<?xml version="1.0" standalone="no"?>
<!DOCTYPE svg PUBLIC "-//W3C//DTD SVG 20010904//EN"
 "http://www.w3.org/TR/2001/REC-SVG-20010904/DTD/svg10.dtd">
<svg version="1.0" xmlns="http://www.w3.org/2000/svg"
 width="700.000000pt" height="700.000000pt" viewBox="0 0 700.000000 700.000000"
 preserveAspectRatio="xMidYMid meet">
<metadata>
Created by potrace 1.11, written by Peter Selinger 2001-2013
</metadata>
<g transform="translate(0.000000,700.000000) scale(0.100000,-0.100000)"
fill="#000000" stroke="none">
<path d="M422 6355 c-7 -10 -10 -1035 -4 -1035 6 0 49 35 124 102 40 36 138
123 218 193 80 71 166 147 191 169 25 23 74 66 108 96 35 30 76 66 91 80 15
14 58 52 95 85 38 33 73 65 79 70 6 6 65 57 131 115 134 117 148 130 143 131
-2 1 -266 2 -586 3 -380 0 -586 -2 -590 -9z"/>
<path d="M2466 6350 c-11 -8 -39 -31 -61 -51 -56 -51 -88 -80 -122 -109 -136
-118 -179 -157 -188 -166 -5 -6 -50 -46 -100 -90 -49 -43 -95 -83 -101 -89 -6
-5 -42 -37 -80 -70 -37 -33 -113 -100 -169 -149 -55 -49 -122 -109 -150 -133
-27 -24 -77 -68 -110 -97 -33 -30 -125 -111 -205 -181 -80 -71 -178 -158 -219
-194 -41 -36 -93 -82 -115 -102 -392 -347 -396 -351 -415 -369 -14 -13 -16
-50 -16 -270 l0 -255 288 -3 c159 -1 294 1 302 5 7 5 46 37 86 73 40 36 96 85
124 110 28 25 86 77 130 115 90 81 91 82 175 155 35 30 73 64 84 75 12 11 39
35 61 54 22 19 74 64 115 101 41 37 93 82 115 101 21 19 46 41 55 49 23 21
210 187 345 305 37 33 73 65 79 70 18 17 198 176 276 245 108 94 164 144 170
150 3 3 58 52 123 109 64 57 118 108 118 115 4 38 3 506 -1 507 -3 1 -133 2
-289 3 -234 1 -287 -2 -305 -14z"/>
<path d="M3953 6357 c-3 -5 -5 -532 -5 -1170 l0 -1162 1324 -3 1325 -2 -1
1172 -1 1173 -1318 0 c-726 0 -1321 -4 -1324 -8z"/>
<path d="M2874 4904 c-104 -92 -220 -194 -258 -228 -38 -33 -77 -68 -86 -76
-52 -45 -166 -146 -259 -229 -58 -52 -122 -108 -141 -125 -107 -95 -208 -184
-230 -203 l-25 -23 595 0 595 0 0 525 c0 289 -1 525 -1 525 -1 0 -87 -75 -190
-166z"/>
<path d="M435 3122 c-20 -3 -20 -9 -20 -522 0 -286 3 -520 8 -520 4 0 15 8 25
18 10 9 51 46 92 82 41 36 119 105 175 155 55 49 109 97 120 107 11 9 29 25
41 35 19 16 136 120 190 168 12 11 33 29 45 40 174 150 491 435 487 436 -8 3
-1146 4 -1163 1z"/>
<path d="M2451 3097 c-20 -16 -54 -45 -76 -65 -36 -33 -119 -107 -224 -198
-36 -32 -65 -58 -126 -113 -22 -20 -78 -70 -125 -111 -47 -41 -98 -86 -115
-101 -16 -14 -77 -68 -135 -119 -58 -51 -121 -107 -140 -124 -19 -17 -96 -85
-170 -150 -74 -66 -167 -148 -206 -183 -40 -35 -83 -73 -95 -84 -13 -11 -53
-46 -88 -77 -35 -31 -72 -64 -83 -73 -10 -9 -49 -44 -86 -77 -55 -49 -345
-305 -362 -319 -3 -3 -5 -121 -5 -264 l0 -259 295 0 295 0 50 48 c28 26 87 78
130 116 91 78 186 162 325 286 52 47 151 135 220 195 69 60 127 112 130 115 3
3 61 55 130 115 119 104 170 150 229 204 14 13 50 44 80 70 30 25 59 51 65 56
6 6 70 62 141 125 72 63 135 119 141 125 6 5 37 33 70 62 32 28 71 62 85 75
14 12 61 55 105 93 43 39 97 86 118 107 l40 36 1 252 c0 149 -4 254 -9 258 -6
3 -136 6 -290 6 l-280 1 -35 -28z"/>
<path d="M3959 3122 c-12 -2 -14 -164 -12 -1160 1 -636 2 -1163 2 -1170 1 -10
269 -12 1324 -10 l1322 3 1 1168 c0 642 -2 1167 -5 1168 -15 2 -2619 4 -2632
1z"/>
<path d="M2965 1744 c-54 -47 -104 -91 -110 -97 -7 -7 -43 -39 -81 -72 -37
-33 -91 -80 -119 -105 -28 -25 -84 -74 -125 -110 -40 -36 -81 -72 -90 -80 -9
-8 -52 -46 -96 -85 -43 -38 -95 -84 -114 -101 -46 -42 -207 -183 -245 -216
-16 -15 -48 -42 -70 -62 l-40 -36 595 3 595 2 0 523 c0 287 0 522 -1 522 -1 0
-45 -39 -99 -86z"/>
</g>
</svg>
