<svg xmlns="http://www.w3.org/2000/svg" viewBox="0 0 100 100"><path d="m79.9 85.9c-4.6-0.6-9.7-2.8-12.3-5.4-4.7-4.6-5.5-11.7-2.5-20.2 1-2.8 2-4.9 5.7-11.3 5-8.8 5.5-9.8 5.6-11.6 0.2-2-0.3-3.1-1.6-3.9-1.1-0.7-2-0.7-3.3 0.1-2.3 1.2-4.5 5.1-11.4 20.4-4.2 9.1-5.2 11.3-6.7 13.5-3 4.4-5.1 6-8 6-2.8 0-4.6-1.2-5.2-3.5-0.5-2 0.1-4 5.5-17.3 3.2-7.9 4.1-11.8 3-14.2-0.7-1.5-1.6-2.1-3.5-2.1-1 0-1.5 0.1-2.1 0.7-1.1 0.9-1.6 2-4.6 9.6-1.4 3.5-3.1 7.8-3.9 9.4-1.8 3.9-3.5 8.9-4.7 14-1.2 4.7-1.7 6.1-3 7.9-1.1 1.6-3 2.6-5.6 3.1-5.1 1-9.3 0.1-12.5-2.5-2.4-2-3.2-4.2-3.2-8.8 0-3.3 0.4-5.8 1.7-10 0.5-1.7 1.7-5.7 2.5-8.9 0.9-3.2 2.1-7.2 2.8-8.9 0.6-1.7 1.8-4.9 2.6-7.3 2.8-8 5.9-13.4 9.1-15.9 2.3-1.8 3.9-2.3 7.1-2.4 3.2 0 4.8 0.5 9.8 3 5.4 2.8 7.1 2.6 11.4-1.3 2.8-2.5 4.4-3.3 6.7-3.3 2.1 0 3.7 0.6 6.2 2.6 3.1 2.4 3.9 2.6 6 1.9 4.8-1.7 10.7-1.7 14.2 0.1 3.3 1.7 4.9 5.5 4.2 10.4-0.6 4.9-2.4 9.8-7.2 19.9-3.1 6.5-4.3 9.4-5.4 13-0.6 2-0.7 2.9-0.7 5.7 0 3.2 0 3.4 0.7 4.4 0.9 1.3 2.1 2 4.4 2.4 0.9 0.2 2.4 0.4 3.3 0.6 5.6 1 8.1 4.9 4.9 7.8-0.9 0.9-3.3 1.9-5.2 2.2-1.9 0.3-2.6 0.3-4.8 0z" stroke-width="0.3"/></svg>
