<svg xmlns="http://www.w3.org/2000/svg" viewBox="0 0 512 512"><path d="M502 246h-28c-5.5 0-10 4.5-10 10 0 5.5 4.5 10 10 10h28c5.5 0 10-4.5 10-10S507.5 246 502 246z"/><path d="M501 192.6c-2.8-4.8-8.9-6.4-13.7-3.7L469 199.6c-4.8 2.8-6.4 8.9-3.7 13.7 1.9 3.2 5.2 5 8.7 5 1.7 0 3.4-0.4 5-1.3l18.4-10.6C502.1 203.5 503.7 197.4 501 192.6z"/><path d="M497.3 305.7L479 295.1c-4.8-2.8-10.9-1.1-13.7 3.7s-1.1 10.9 3.7 13.7l18.4 10.6c1.6 0.9 3.3 1.3 5 1.3 3.5 0 6.8-1.8 8.7-5C503.7 314.6 502.1 308.5 497.3 305.7z"/><path d="M424.3 118c-9.9-43.1-23.2-64-40.9-64 -3.4 0-6.6 0.8-9.7 2.3L6.1 210.8C2.4 212.3 0 216 0 220v72c0 4 2.4 7.7 6.1 9.2l53.9 22.7c0 0 0.1 0 0.1 0L86 334.8v62.7c0 15.7 12.8 28.5 28.5 28.5h91c15.7 0 28.5-12.8 28.5-28.5v-0.6l139.8 58.7c3.1 1.6 6.3 2.3 9.7 2.3 17.6 0 31-20.9 40.9-64 8.5-37 13.1-86 13.1-138C437.5 204 432.8 155 424.3 118zM214 397.5c0 4.7-3.8 8.5-8.5 8.5h-91c-4.7 0-8.5-3.8-8.5-8.5v-54.3l108 45.4L214 397.5 214 397.5zM74 308v-52.2c0-5.5-4.5-10-10-10 -5.5 0-10 4.5-10 10v43.8l-34-14.3v-58.7L351.6 87.4c-3.3 8.5-6.3 18.8-9 30.7 -0.3 1.3-0.6 2.7-0.9 4.1l-113.4 42.7c-5.2 1.9-7.8 7.7-5.8 12.9 1.5 4 5.3 6.5 9.4 6.5 1.2 0 2.4-0.2 3.5-0.6l102.1-38.4c-5.2 32.4-7.9 70.8-7.9 110.9 0 52 4.7 101 13.1 138 2.7 11.9 5.7 22.1 9 30.7L74 308zM350.3 219.2c17.7 3 31.2 18.4 31.2 37 0 18.5-13.5 33.9-31.2 37 -0.5-12.1-0.8-24.5-0.8-37.1C349.5 243.5 349.7 231.2 350.3 219.2zM404.8 389.5c-9.1 39.8-19.3 48.5-21.4 48.5 -0.1 0-0.2 0-0.3 0 -0.2-0.1-0.3-0.2-0.5-0.2l-0.2-0.1c-3.4-2-12.3-12.8-20.3-48.1 -5-21.7-8.6-47.8-10.6-76.4 28.2-3.7 50-27.8 50-57 0-29.2-21.8-53.3-50-57 2.1-28.7 5.7-54.9 10.7-76.7 8.1-35.2 17-46 20.3-48.1l0.9-0.4c0 0 0.1 0 0.1 0 2 0 12.2 8.6 21.4 48.5 8.1 35.6 12.6 83 12.6 133.5S413 354 404.8 389.5z"/></svg>
