<svg xmlns="http://www.w3.org/2000/svg" viewBox="0 0 15 15"><path d="M15 7C14.7 3.3 11.7 0.3 8 0V0H7.5 7v0C3.3 0.3 0.3 3.3 0 7H0v0.5V8h0C0.3 11.7 3.3 14.7 7 15V15h0.5H8v0c3.7-0.2 6.7-3.2 7-7H15V7.5 7H15zM4.7 1.6C4.2 2.3 3.8 3.1 3.5 4H2C2.7 3 3.6 2.2 4.7 1.6zM1.5 5h1.8C3.1 5.6 3 6.3 3 7H1C1.1 6.3 1.2 5.6 1.5 5zM1 8H3c0 0.7 0.1 1.4 0.2 2H1.5C1.2 9.4 1.1 8.7 1 8zM2 11h1.5c0.3 0.9 0.7 1.7 1.2 2.4C3.6 12.8 2.7 12 2 11zM7 13.9C6 13.7 5.1 12.6 4.6 11H7V13.9zM7 10H4.3C4.1 9.4 4 8.7 4 8H7V10zM7 7H4c0-0.7 0.1-1.4 0.3-2H7V7zM7 4H4.6C5.1 2.4 6 1.3 7 1.1V4zM13 4h-1.5c-0.3-0.9-0.7-1.7-1.2-2.4C11.4 2.2 12.3 3 13 4zM8 1.1C9 1.3 9.9 2.4 10.5 4H8V1.1zM8 5h2.7c0.1 0.6 0.2 1.3 0.3 2H8V5zM8 8h3c0 0.7-0.1 1.4-0.3 2H8V8zM8 13.9V11h2.5C9.9 12.6 9 13.7 8 13.9zM10.3 13.4c0.5-0.6 0.9-1.4 1.2-2.4h1.5C12.3 12 11.4 12.8 10.3 13.4zM13.5 10h-1.8c0.1-0.6 0.2-1.3 0.2-2h2C13.9 8.7 13.8 9.4 13.5 10zM12 7c0-0.7-0.1-1.4-0.2-2h1.8c0.3 0.6 0.4 1.3 0.5 2H12z"/></svg>
