<svg xmlns="http://www.w3.org/2000/svg" viewBox="0 0 512 512"><path d="M509.8 274.6c-7.8-24-33.5-37.1-57.5-29.3l-46 14.9c-10.2-31.4-21-64.7-31.2-96 27.9-9.1 46-14.9 46-14.9 24-7.8 37.1-33.5 29.3-57.5 -7.8-24-33.5-37.1-57.5-29.3l-46 14.9c-9.1-27.9-14.9-46-14.9-46 -7.7-23.9-33.5-37.1-57.4-29.3s-37.1 33.5-29.3 57.5l14.9 46 -96 31.2c-9.1-27.9-14.9-46-14.9-46 -7.8-24-33.5-37.1-57.5-29.3 -24 7.8-37.1 33.5-29.3 57.4l14.9 46 -47.4 15.4c-22.4 8.1-35 32.3-28.3 55.5 7 24.2 32.7 38.9 56.4 31.2 0.2-0.1 18.8-6.1 47.4-15.4l31.2 96 -47.4 15.4c-22.4 8.1-34.9 32.3-28.3 55.5 7 24.2 32.7 39 56.4 31.2 0.2-0.1 18.8-6.1 47.5-15.4l15.4 47.4c8.1 22.4 32.3 34.9 55.5 28.3 24.2-7 39-32.7 31.2-56.4 -0.1-0.2-6.1-18.8-15.4-47.4 31.4-10.2 64.7-21 96-31.2l15.4 47.4c8.1 22.4 32.3 34.9 55.5 28.3 24.2-7 39-32.7 31.2-56.4 -0.1-0.2-6.1-18.8-15.4-47.4 27.9-9.1 46-14.9 46-14.9C504.4 324.3 517.5 298.5 509.8 274.6zM223.6 319.6c-10.2-31.4-21-64.7-31.2-96 31.4-10.2 64.7-21 96-31.2l31.2 96L223.6 319.6z"/></svg>
