<svg xmlns="http://www.w3.org/2000/svg" viewBox="0 0 49.7 49.7"><path d="M24.8 0C11.1 0 0 11.1 0 24.8c0 13.7 11.1 24.8 24.8 24.8 13.7 0 24.8-11.1 24.8-24.8C49.7 11.1 38.5 0 24.8 0zM33.2 36.7c-1.1 0.5-2.2 0.9-3.1 1.1 -0.9 0.2-1.9 0.3-3 0.3 -1.2 0-2-0.2-2.9-0.5 -0.9-0.3-1.8-0.8-2.4-1.3 -0.7-0.6-1.1-1.2-1.4-1.8 -0.3-0.6-0.4-1.6-0.4-2.8v-9.5h-3.7v-3.8c1.1-0.3 2.3-0.8 3-1.5 0.8-0.6 1.4-1.4 1.8-2.3 0.5-0.9 0.8-2 0.9-3.4h3.8v6.2h6.2v4.8h-6.2v6.9c0 1.6 0 2.5 0.1 2.9 0.2 0.4 0.6 0.9 1 1.2 0.6 0.4 1.3 0.5 2 0.5 1.4 0 2.7-0.4 4.1-1.3v4.3H33.2L33.2 36.7z"/></svg>
