<?xml version="1.0" encoding="utf-8"?>
<!-- Generator: Adobe Illustrator 19.2.1, SVG Export Plug-In . SVG Version: 6.00 Build 0)  -->
<svg version="1.1" id="Capa_1" xmlns="http://www.w3.org/2000/svg" xmlns:xlink="http://www.w3.org/1999/xlink" x="0px" y="0px"
     viewBox="0 0 2080 515" style="enable-background:new 0 0 2080 515;" xml:space="preserve">
<style type="text/css">
    .st0{clip-path:url(#SVGID_2_);}
    .st1{clip-path:url(#SVGID_4_);fill:#1885D6;}
    .st2{clip-path:url(#SVGID_6_);}
    .st3{fill:#007EC0;}
    .st4{clip-path:url(#SVGID_8_);}
    .st5{opacity:0.6;clip-path:url(#SVGID_10_);fill:#cee5f5;}
    .st6{clip-path:url(#SVGID_12_);}
    .st7{opacity:0.6;clip-path:url(#SVGID_14_);fill:#cee5f5;}
    .st8{clip-path:url(#SVGID_16_);}
    .st9{clip-path:url(#SVGID_18_);fill:#FFFFFF;}
    .st10{clip-path:url(#SVGID_20_);}
    .st11{clip-path:url(#SVGID_22_);fill:#FFFFFF;}
    .st12{clip-path:url(#SVGID_24_);}
    .st13{opacity:0.6;clip-path:url(#SVGID_26_);fill:#cee5f5;}
    .st14{clip-path:url(#SVGID_28_);}
    .st15{opacity:0.6;clip-path:url(#SVGID_30_);fill:#cee5f5;}
    .st16{clip-path:url(#SVGID_32_);}
    .st17{clip-path:url(#SVGID_34_);fill:#FFFFFF;}
    .st18{clip-path:url(#SVGID_36_);}
    .st19{clip-path:url(#SVGID_38_);fill:#FFFFFF;}
</style>
<g>
    <defs>
        <rect id="SVGID_1_" x="16" y="18" width="480" height="480"/>
    </defs>
    <clipPath id="SVGID_2_">
        <use xlink:href="#SVGID_1_"  style="overflow:visible;"/>
    </clipPath>
    <g class="st0">
        <defs>
            <rect id="SVGID_3_" x="-95" y="-93" width="2417" height="702"/>
        </defs>
        <clipPath id="SVGID_4_">
            <use xlink:href="#SVGID_3_"  style="overflow:visible;"/>
        </clipPath>
        <rect x="11" y="13" class="st1" width="490" height="490"/>
    </g>
</g>
<g>
    <defs>
        <rect id="SVGID_5_" x="-95" y="-93" width="2417" height="702"/>
    </defs>
    <clipPath id="SVGID_6_">
        <use xlink:href="#SVGID_5_"  style="overflow:visible;"/>
    </clipPath>
    <g class="st2">
        <path class="st3" d="M665.3,17.6h3.4L749.3,210H728l-12.9-31.9h-96.3L606.2,210h-19.9L665.3,17.6z M707.9,161l-33.6-84.8
            c-0.9-2.2-1.8-4.7-2.7-7.3c-0.8-2.6-1.6-5.1-2.4-7.3c-0.7-2.6-1.5-5.3-2.2-8.1c-0.9,2.8-1.8,5.5-2.5,8.1c-0.7,2.2-1.5,4.7-2.4,7.3
            c-0.8,2.6-1.7,5.1-2.7,7.3L625.8,161H707.9z"/>
        <path class="st3" d="M803.6,19.6h20.2v172.5h89.9V210h-110V19.6z"/>
        <path class="st3" d="M970,19.6h20.4V210H970V19.6z"/>
        <path class="st3" d="M1148,212.2c-13.4,0-26.1-2.4-38.1-7.1c-11.9-4.8-22.3-11.4-31.1-20c-8.8-8.6-15.7-18.9-20.9-30.8
            c-5.1-11.9-7.7-25.1-7.7-39.5c0-14.4,2.6-27.5,7.7-39.5c5.1-11.9,12.1-22.2,20.9-30.8c8.8-8.6,19.1-15.3,31.1-20
            c11.9-4.8,24.6-7.1,38.1-7.1c34,0,59.2,12.2,75.6,36.7l-15.4,11.2c-6.2-9.1-14.3-16.4-24.4-21.8c-10.1-5.4-22-8.1-35.8-8.1
            c-11.2,0-21.5,2-30.8,6c-9.3,4-17.4,9.6-24.2,16.7c-6.8,7.1-12.1,15.5-16,25.1c-3.8,9.6-5.7,20.2-5.7,31.6c0,11.4,1.9,22,5.7,31.6
            c3.8,9.6,9.1,18,16,25.1c6.8,7.1,14.9,12.7,24.2,16.7c9.3,4,19.6,6,30.8,6c14,0,26.2-2.8,36.7-8.4c10.5-5.6,19.1-13.4,26-23.5
            l15.7,10.9c-8.4,12.3-19.3,21.9-32.6,28.7C1180.5,208.8,1165.2,212.2,1148,212.2z"/>
        <path class="st3" d="M1341.5,17.6h3.4l80.6,192.4h-21.3l-12.9-31.9H1295l-12.6,31.9h-19.9L1341.5,17.6z M1384.1,161l-33.6-84.8
            c-0.9-2.2-1.8-4.7-2.7-7.3s-1.6-5.1-2.4-7.3c-0.7-2.6-1.5-5.3-2.2-8.1c-0.9,2.8-1.8,5.5-2.5,8.1c-0.7,2.2-1.5,4.7-2.4,7.3
            c-0.8,2.6-1.7,5.1-2.7,7.3L1302,161H1384.1z"/>
        <path class="st3" d="M1510.4,77.6c-1.5-1.5-3-3.3-4.5-5.3c-1.5-2.1-2.9-4-4.2-5.9c-1.5-2.1-3-4.2-4.5-6.4c0.2,2.6,0.5,5.2,0.8,7.8
            c0.2,2.2,0.4,4.6,0.6,7c0.2,2.4,0.3,4.7,0.3,6.7V210h-19V17.6h3.4L1596.9,152c1.3,1.7,2.8,3.5,4.3,5.5c1.6,2,3,3.9,4.3,5.7
            c1.5,2.1,3,4.2,4.5,6.4c-0.4-2.6-0.7-5.2-0.8-7.8c-0.2-2.2-0.3-4.6-0.4-7c-0.1-2.4-0.1-4.7-0.1-6.7V19.6h18.8V212h-3.4
            L1510.4,77.6z"/>
        <path class="st3" d="M1739.1,37.5h-58.5V19.6h137.2v17.9h-58.5V210h-20.2V37.5z"/>
        <path class="st3" d="M1871,19.6h115.9v17.9h-95.8v89h85.4v17.9h-85.4v47.6h99.7V210H1871V19.6z"/>
    </g>
    <g class="st2">
        <path class="st3" d="M595.9,286.6h122.6V321h-83.4v63H711v35h-75.9v58h-39.2V286.6z"/>
        <path class="st3" d="M892.1,477h-45.4l-31.4-48.2c-3.6,0.6-7.6,0.8-11.2,0.8h-13.4V477h-39.2V286.6h52.6c53.2,0,85.1,25.5,85.1,72
            c0,29.7-13.2,48.4-36.7,59.1L892.1,477z M803.1,395.5c31.9,0,45.9-10.1,45.9-37S834.4,321,803.1,321h-12.3v74.5H803.1z"/>
        <path class="st3" d="M917,381.8c0-56.3,43.7-97.7,98.6-97.7c54.9,0,98.6,41.4,98.6,97.7c0,56.3-43.7,97.7-98.6,97.7
            C960.7,479.5,917,438.1,917,381.8z M1073.8,381.8c0-35.6-23.5-62.7-58.2-62.7c-34.7,0-58.2,27.2-58.2,62.7
            c0,35.6,23.5,62.7,58.2,62.7C1050.3,444.5,1073.8,417.4,1073.8,381.8z"/>
        <path class="st3" d="M1204,388.5c-9.5-9-22.7-26-22.7-26s2.8,21,2.8,34.7V477h-36.7V284.9h3.9l96,90.2c9.2,8.7,22.4,26,22.4,26
            s-2.5-21.6-2.5-34.7v-79.8h36.7v192.1h-3.9L1204,388.5z"/>
        <path class="st3" d="M1387.2,321h-54.3v-34.4h147.8V321h-54.3v156h-39.2V321z"/>
        <path class="st3" d="M1509.5,286.6h126V321h-86.8v60.5h76.4v33.6h-76.4v27.4h90.7V477h-129.9V286.6z"/>
        <path class="st3" d="M1732.4,388.5c-9.5-9-22.7-26-22.7-26s2.8,21,2.8,34.7V477h-36.7V284.9h3.9l96,90.2c9.2,8.7,22.4,26,22.4,26
            s-2.5-21.6-2.5-34.7v-79.8h36.7v192.1h-3.9L1732.4,388.5z"/>
        <path class="st3" d="M1872.1,286.6h58.5c58.5,0,100.2,38.9,100.2,95.2c0,56.3-41.4,95.2-100.2,95.2h-58.5V286.6z M1928.7,442.6
            c42.3,0,61.6-25.2,61.6-60.8c0-35.6-19.3-60.8-61.6-60.8h-17.4v121.5H1928.7z"/>
    </g>
</g>
<g>
    <defs>
        <polygon id="SVGID_7_" points="124,287 212,287 241,316 217,372         "/>
    </defs>
    <clipPath id="SVGID_8_">
        <use xlink:href="#SVGID_7_"  style="overflow:visible;"/>
    </clipPath>
    <g class="st4">
        <defs>
            <rect id="SVGID_9_" x="-95" y="-93" width="2417" height="702"/>
        </defs>
        <clipPath id="SVGID_10_">
            <use xlink:href="#SVGID_9_"  style="overflow:visible;"/>
        </clipPath>
        <rect x="119" y="282" class="st5" width="127" height="95"/>
    </g>
</g>
<g>
    <defs>
        <polygon id="SVGID_11_" points="241,145 241,252 169,252         "/>
    </defs>
    <clipPath id="SVGID_12_">
        <use xlink:href="#SVGID_11_"  style="overflow:visible;"/>
    </clipPath>
    <g class="st6">
        <defs>
            <rect id="SVGID_13_" x="-95" y="-93" width="2417" height="702"/>
        </defs>
        <clipPath id="SVGID_14_">
            <use xlink:href="#SVGID_13_"  style="overflow:visible;"/>
        </clipPath>
        <rect x="164" y="140" class="st7" width="82" height="117"/>
    </g>
</g>
<g>
    <defs>
        <polygon id="SVGID_15_" points="105,316 241,316 241,372 70,372         "/>
    </defs>
    <clipPath id="SVGID_16_">
        <use xlink:href="#SVGID_15_"  style="overflow:visible;"/>
    </clipPath>
    <g class="st8">
        <defs>
            <rect id="SVGID_17_" x="-95" y="-93" width="2417" height="702"/>
        </defs>
        <clipPath id="SVGID_18_">
            <use xlink:href="#SVGID_17_"  style="overflow:visible;"/>
        </clipPath>
        <rect x="65" y="311" class="st9" width="181" height="66"/>
    </g>
</g>
<g>
    <defs>
        <polygon id="SVGID_19_" points="159,231 241,231 241,287 124,287         "/>
    </defs>
    <clipPath id="SVGID_20_">
        <use xlink:href="#SVGID_19_"  style="overflow:visible;"/>
    </clipPath>
    <g class="st10">
        <defs>
            <rect id="SVGID_21_" x="-95" y="-93" width="2417" height="702"/>
        </defs>
        <clipPath id="SVGID_22_">
            <use xlink:href="#SVGID_21_"  style="overflow:visible;"/>
        </clipPath>
        <rect x="119" y="226" class="st11" width="127" height="66"/>
    </g>
</g>
<g>
    <defs>
        <polygon id="SVGID_23_" points="388,230 300,230 271,201 295,145         "/>
    </defs>
    <clipPath id="SVGID_24_">
        <use xlink:href="#SVGID_23_"  style="overflow:visible;"/>
    </clipPath>
    <g class="st12">
        <defs>
            <rect id="SVGID_25_" x="-95" y="-93" width="2417" height="702"/>
        </defs>
        <clipPath id="SVGID_26_">
            <use xlink:href="#SVGID_25_"  style="overflow:visible;"/>
        </clipPath>
        <rect x="266" y="140" class="st13" width="127" height="95"/>
    </g>
</g>
<g>
    <defs>
        <polygon id="SVGID_27_" points="271,372 271,265 343,265         "/>
    </defs>
    <clipPath id="SVGID_28_">
        <use xlink:href="#SVGID_27_"  style="overflow:visible;"/>
    </clipPath>
    <g class="st14">
        <defs>
            <rect id="SVGID_29_" x="-95" y="-93" width="2417" height="702"/>
        </defs>
        <clipPath id="SVGID_30_">
            <use xlink:href="#SVGID_29_"  style="overflow:visible;"/>
        </clipPath>
        <rect x="266" y="260" class="st15" width="82" height="117"/>
    </g>
</g>
<g>
    <defs>
        <polygon id="SVGID_31_" points="407,201 271,201 271,145 442,145         "/>
    </defs>
    <clipPath id="SVGID_32_">
        <use xlink:href="#SVGID_31_"  style="overflow:visible;"/>
    </clipPath>
    <g class="st16">
        <defs>
            <rect id="SVGID_33_" x="-95" y="-93" width="2417" height="702"/>
        </defs>
        <clipPath id="SVGID_34_">
            <use xlink:href="#SVGID_33_"  style="overflow:visible;"/>
        </clipPath>
        <rect x="266" y="140" class="st17" width="181" height="66"/>
    </g>
</g>
<g>
    <defs>
        <polygon id="SVGID_35_" points="353,286 271,286 271,230 388,230         "/>
    </defs>
    <clipPath id="SVGID_36_">
        <use xlink:href="#SVGID_35_"  style="overflow:visible;"/>
    </clipPath>
    <g class="st18">
        <defs>
            <rect id="SVGID_37_" x="-95" y="-93" width="2417" height="702"/>
        </defs>
        <clipPath id="SVGID_38_">
            <use xlink:href="#SVGID_37_"  style="overflow:visible;"/>
        </clipPath>
        <rect x="266" y="225" class="st19" width="127" height="66"/>
    </g>
</g>
</svg>
