<?xml version="1.0" encoding="UTF-8" standalone="no"?>
<!-- Generator: Adobe Illustrator 19.2.1, SVG Export Plug-In . SVG Version: 6.00 Build 0)  -->

<svg
   xmlns:dc="http://purl.org/dc/elements/1.1/"
   xmlns:cc="http://creativecommons.org/ns#"
   xmlns:rdf="http://www.w3.org/1999/02/22-rdf-syntax-ns#"
   xmlns:svg="http://www.w3.org/2000/svg"
   xmlns="http://www.w3.org/2000/svg"
   xmlns:xlink="http://www.w3.org/1999/xlink"
   xmlns:sodipodi="http://sodipodi.sourceforge.net/DTD/sodipodi-0.dtd"
   xmlns:inkscape="http://www.inkscape.org/namespaces/inkscape"
   version="1.1"
   id="Capa_1"
   x="0px"
   y="0px"
   viewBox="0 0 2080 2080"
   xml:space="preserve"
   sodipodi:docname="alicantefrontend_logo.svg"
   width="2080"
   height="2080"
   inkscape:version="0.92.3 (2405546, 2018-03-11)"><metadata
   id="metadata215"><rdf:RDF><cc:Work
       rdf:about=""><dc:format>image/svg+xml</dc:format><dc:type
         rdf:resource="http://purl.org/dc/dcmitype/StillImage" /><dc:title></dc:title></cc:Work></rdf:RDF></metadata><defs
   id="defs213" /><sodipodi:namedview
   pagecolor="#ffffff"
   bordercolor="#666666"
   borderopacity="1"
   objecttolerance="10"
   gridtolerance="10"
   guidetolerance="10"
   inkscape:pageopacity="0"
   inkscape:pageshadow="2"
   inkscape:window-width="1853"
   inkscape:window-height="1145"
   id="namedview211"
   showgrid="false"
   inkscape:zoom="0.17980769"
   inkscape:cx="1034.4385"
   inkscape:cy="257.5"
   inkscape:window-x="67"
   inkscape:window-y="27"
   inkscape:window-maximized="1"
   inkscape:current-layer="Capa_1" />
<style
   type="text/css"
   id="style2">
    .st0{clip-path:url(#SVGID_2_);}
    .st1{clip-path:url(#SVGID_4_);fill:#1885D6;}
    .st2{clip-path:url(#SVGID_6_);}
    .st3{fill:#007EC0;}
    .st4{clip-path:url(#SVGID_8_);}
    .st5{opacity:0.6;clip-path:url(#SVGID_10_);fill:#cee5f5;}
    .st6{clip-path:url(#SVGID_12_);}
    .st7{opacity:0.6;clip-path:url(#SVGID_14_);fill:#cee5f5;}
    .st8{clip-path:url(#SVGID_16_);}
    .st9{clip-path:url(#SVGID_18_);fill:#FFFFFF;}
    .st10{clip-path:url(#SVGID_20_);}
    .st11{clip-path:url(#SVGID_22_);fill:#FFFFFF;}
    .st12{clip-path:url(#SVGID_24_);}
    .st13{opacity:0.6;clip-path:url(#SVGID_26_);fill:#cee5f5;}
    .st14{clip-path:url(#SVGID_28_);}
    .st15{opacity:0.6;clip-path:url(#SVGID_30_);fill:#cee5f5;}
    .st16{clip-path:url(#SVGID_32_);}
    .st17{clip-path:url(#SVGID_34_);fill:#FFFFFF;}
    .st18{clip-path:url(#SVGID_36_);}
    .st19{clip-path:url(#SVGID_38_);fill:#FFFFFF;}
</style>









<g
   id="g7974"
   transform="translate(0,-782.7)"><g
     transform="translate(0,1565)"
     id="g20">
    <defs
   id="defs5">
        <rect
   height="480"
   width="480"
   y="18"
   x="16"
   id="SVGID_1_" />
    </defs>
    <clipPath
   id="SVGID_2_">
        <use
   height="100%"
   width="100%"
   y="0"
   x="0"
   id="use7"
   style="overflow:visible"
   xlink:href="#SVGID_1_" />
    </clipPath>
    <g
   id="g18"
   clip-path="url(#SVGID_2_)"
   class="st0">
        <defs
   id="defs11">
            <rect
   height="702"
   width="2417"
   y="-93"
   x="-95"
   id="SVGID_3_" />
        </defs>
        <clipPath
   id="SVGID_4_">
            <use
   height="100%"
   width="100%"
   y="0"
   x="0"
   id="use13"
   style="overflow:visible"
   xlink:href="#SVGID_3_" />
        </clipPath>
        <rect
   style="fill:#1885d6"
   id="rect16"
   clip-path="url(#SVGID_4_)"
   height="490"
   width="490"
   class="st1"
   y="13"
   x="11" />
    </g>
</g><g
     transform="translate(0,1565)"
     id="g64">
    <defs
   id="defs23">
        <rect
   height="702"
   width="2417"
   y="-93"
   x="-95"
   id="SVGID_5_" />
    </defs>
    <clipPath
   id="SVGID_6_">
        <use
   height="100%"
   width="100%"
   y="0"
   x="0"
   id="use25"
   style="overflow:visible"
   xlink:href="#SVGID_5_" />
    </clipPath>
    <g
   id="g44"
   clip-path="url(#SVGID_6_)"
   class="st2">
        <path
   style="fill:#007ec0"
   inkscape:connector-curvature="0"
   id="path28"
   d="m 665.3,17.6 h 3.4 L 749.3,210 H 728 L 715.1,178.1 H 618.8 L 606.2,210 H 586.3 Z M 707.9,161 674.3,76.2 c -0.9,-2.2 -1.8,-4.7 -2.7,-7.3 -0.8,-2.6 -1.6,-5.1 -2.4,-7.3 -0.7,-2.6 -1.5,-5.3 -2.2,-8.1 -0.9,2.8 -1.8,5.5 -2.5,8.1 -0.7,2.2 -1.5,4.7 -2.4,7.3 -0.8,2.6 -1.7,5.1 -2.7,7.3 L 625.8,161 Z"
   class="st3" />
        <path
   style="fill:#007ec0"
   inkscape:connector-curvature="0"
   id="path30"
   d="m 803.6,19.6 h 20.2 v 172.5 h 89.9 V 210 h -110 V 19.6 Z"
   class="st3" />
        <path
   style="fill:#007ec0"
   inkscape:connector-curvature="0"
   id="path32"
   d="m 970,19.6 h 20.4 V 210 H 970 Z"
   class="st3" />
        <path
   style="fill:#007ec0"
   inkscape:connector-curvature="0"
   id="path34"
   d="m 1148,212.2 c -13.4,0 -26.1,-2.4 -38.1,-7.1 -11.9,-4.8 -22.3,-11.4 -31.1,-20 -8.8,-8.6 -15.7,-18.9 -20.9,-30.8 -5.1,-11.9 -7.7,-25.1 -7.7,-39.5 0,-14.4 2.6,-27.5 7.7,-39.5 5.1,-11.9 12.1,-22.2 20.9,-30.8 8.8,-8.6 19.1,-15.3 31.1,-20 11.9,-4.8 24.6,-7.1 38.1,-7.1 34,0 59.2,12.2 75.6,36.7 l -15.4,11.2 c -6.2,-9.1 -14.3,-16.4 -24.4,-21.8 -10.1,-5.4 -22,-8.1 -35.8,-8.1 -11.2,0 -21.5,2 -30.8,6 -9.3,4 -17.4,9.6 -24.2,16.7 -6.8,7.1 -12.1,15.5 -16,25.1 -3.8,9.6 -5.7,20.2 -5.7,31.6 0,11.4 1.9,22 5.7,31.6 3.8,9.6 9.1,18 16,25.1 6.8,7.1 14.9,12.7 24.2,16.7 9.3,4 19.6,6 30.8,6 14,0 26.2,-2.8 36.7,-8.4 10.5,-5.6 19.1,-13.4 26,-23.5 l 15.7,10.9 c -8.4,12.3 -19.3,21.9 -32.6,28.7 -13.3,6.9 -28.6,10.3 -45.8,10.3 z"
   class="st3" />
        <path
   style="fill:#007ec0"
   inkscape:connector-curvature="0"
   id="path36"
   d="m 1341.5,17.6 h 3.4 l 80.6,192.4 h -21.3 l -12.9,-31.9 H 1295 l -12.6,31.9 h -19.9 z m 42.6,143.4 -33.6,-84.8 c -0.9,-2.2 -1.8,-4.7 -2.7,-7.3 -0.9,-2.6 -1.6,-5.1 -2.4,-7.3 -0.7,-2.6 -1.5,-5.3 -2.2,-8.1 -0.9,2.8 -1.8,5.5 -2.5,8.1 -0.7,2.2 -1.5,4.7 -2.4,7.3 -0.8,2.6 -1.7,5.1 -2.7,7.3 L 1302,161 Z"
   class="st3" />
        <path
   style="fill:#007ec0"
   inkscape:connector-curvature="0"
   id="path38"
   d="m 1510.4,77.6 c -1.5,-1.5 -3,-3.3 -4.5,-5.3 -1.5,-2.1 -2.9,-4 -4.2,-5.9 -1.5,-2.1 -3,-4.2 -4.5,-6.4 0.2,2.6 0.5,5.2 0.8,7.8 0.2,2.2 0.4,4.6 0.6,7 0.2,2.4 0.3,4.7 0.3,6.7 V 210 h -19 V 17.6 h 3.4 L 1596.9,152 c 1.3,1.7 2.8,3.5 4.3,5.5 1.6,2 3,3.9 4.3,5.7 1.5,2.1 3,4.2 4.5,6.4 -0.4,-2.6 -0.7,-5.2 -0.8,-7.8 -0.2,-2.2 -0.3,-4.6 -0.4,-7 -0.1,-2.4 -0.1,-4.7 -0.1,-6.7 V 19.6 h 18.8 V 212 h -3.4 z"
   class="st3" />
        <path
   style="fill:#007ec0"
   inkscape:connector-curvature="0"
   id="path40"
   d="m 1739.1,37.5 h -58.5 V 19.6 h 137.2 v 17.9 h -58.5 V 210 h -20.2 z"
   class="st3" />
        <path
   style="fill:#007ec0"
   inkscape:connector-curvature="0"
   id="path42"
   d="m 1871,19.6 h 115.9 v 17.9 h -95.8 v 89 h 85.4 v 17.9 h -85.4 V 192 h 99.7 v 18 H 1871 Z"
   class="st3" />
    </g>
    <g
   id="g62"
   clip-path="url(#SVGID_6_)"
   class="st2">
        <path
   style="fill:#007ec0"
   inkscape:connector-curvature="0"
   id="path46"
   d="M 595.9,286.6 H 718.5 V 321 h -83.4 v 63 H 711 v 35 h -75.9 v 58 h -39.2 z"
   class="st3" />
        <path
   style="fill:#007ec0"
   inkscape:connector-curvature="0"
   id="path48"
   d="m 892.1,477 h -45.4 l -31.4,-48.2 c -3.6,0.6 -7.6,0.8 -11.2,0.8 H 790.7 V 477 H 751.5 V 286.6 h 52.6 c 53.2,0 85.1,25.5 85.1,72 0,29.7 -13.2,48.4 -36.7,59.1 z m -89,-81.5 c 31.9,0 45.9,-10.1 45.9,-37 0,-26.9 -14.6,-37.5 -45.9,-37.5 h -12.3 v 74.5 z"
   class="st3" />
        <path
   style="fill:#007ec0"
   inkscape:connector-curvature="0"
   id="path50"
   d="m 917,381.8 c 0,-56.3 43.7,-97.7 98.6,-97.7 54.9,0 98.6,41.4 98.6,97.7 0,56.3 -43.7,97.7 -98.6,97.7 -54.9,0 -98.6,-41.4 -98.6,-97.7 z m 156.8,0 c 0,-35.6 -23.5,-62.7 -58.2,-62.7 -34.7,0 -58.2,27.2 -58.2,62.7 0,35.6 23.5,62.7 58.2,62.7 34.7,0 58.2,-27.1 58.2,-62.7 z"
   class="st3" />
        <path
   style="fill:#007ec0"
   inkscape:connector-curvature="0"
   id="path52"
   d="m 1204,388.5 c -9.5,-9 -22.7,-26 -22.7,-26 0,0 2.8,21 2.8,34.7 V 477 h -36.7 V 284.9 h 3.9 l 96,90.2 c 9.2,8.7 22.4,26 22.4,26 0,0 -2.5,-21.6 -2.5,-34.7 v -79.8 h 36.7 v 192.1 h -3.9 z"
   class="st3" />
        <path
   style="fill:#007ec0"
   inkscape:connector-curvature="0"
   id="path54"
   d="m 1387.2,321 h -54.3 v -34.4 h 147.8 V 321 h -54.3 v 156 h -39.2 z"
   class="st3" />
        <path
   style="fill:#007ec0"
   inkscape:connector-curvature="0"
   id="path56"
   d="m 1509.5,286.6 h 126 V 321 h -86.8 v 60.5 h 76.4 v 33.6 h -76.4 v 27.4 h 90.7 V 477 h -129.9 z"
   class="st3" />
        <path
   style="fill:#007ec0"
   inkscape:connector-curvature="0"
   id="path58"
   d="m 1732.4,388.5 c -9.5,-9 -22.7,-26 -22.7,-26 0,0 2.8,21 2.8,34.7 V 477 h -36.7 V 284.9 h 3.9 l 96,90.2 c 9.2,8.7 22.4,26 22.4,26 0,0 -2.5,-21.6 -2.5,-34.7 v -79.8 h 36.7 v 192.1 h -3.9 z"
   class="st3" />
        <path
   style="fill:#007ec0"
   inkscape:connector-curvature="0"
   id="path60"
   d="m 1872.1,286.6 h 58.5 c 58.5,0 100.2,38.9 100.2,95.2 0,56.3 -41.4,95.2 -100.2,95.2 h -58.5 z m 56.6,156 c 42.3,0 61.6,-25.2 61.6,-60.8 0,-35.6 -19.3,-60.8 -61.6,-60.8 h -17.4 v 121.5 h 17.4 z"
   class="st3" />
    </g>
</g><g
     transform="translate(0,1565)"
     id="g82">
    <defs
   id="defs67">
        <polygon
   points="217,372 124,287 212,287 241,316 "
   id="SVGID_7_" />
    </defs>
    <clipPath
   id="SVGID_8_">
        <use
   height="100%"
   width="100%"
   y="0"
   x="0"
   id="use69"
   style="overflow:visible"
   xlink:href="#SVGID_7_" />
    </clipPath>
    <g
   id="g80"
   clip-path="url(#SVGID_8_)"
   class="st4">
        <defs
   id="defs73">
            <rect
   height="702"
   width="2417"
   y="-93"
   x="-95"
   id="SVGID_9_" />
        </defs>
        <clipPath
   id="SVGID_10_">
            <use
   height="100%"
   width="100%"
   y="0"
   x="0"
   id="use75"
   style="overflow:visible"
   xlink:href="#SVGID_9_" />
        </clipPath>
        <rect
   style="opacity:0.6;fill:#cee5f5"
   id="rect78"
   clip-path="url(#SVGID_10_)"
   height="95"
   width="127"
   class="st5"
   y="282"
   x="119" />
    </g>
</g><g
     transform="translate(0,1565)"
     id="g100">
    <defs
   id="defs85">
        <polygon
   points="241,145 241,252 169,252 "
   id="SVGID_11_" />
    </defs>
    <clipPath
   id="SVGID_12_">
        <use
   height="100%"
   width="100%"
   y="0"
   x="0"
   id="use87"
   style="overflow:visible"
   xlink:href="#SVGID_11_" />
    </clipPath>
    <g
   id="g98"
   clip-path="url(#SVGID_12_)"
   class="st6">
        <defs
   id="defs91">
            <rect
   height="702"
   width="2417"
   y="-93"
   x="-95"
   id="SVGID_13_" />
        </defs>
        <clipPath
   id="SVGID_14_">
            <use
   height="100%"
   width="100%"
   y="0"
   x="0"
   id="use93"
   style="overflow:visible"
   xlink:href="#SVGID_13_" />
        </clipPath>
        <rect
   style="opacity:0.6;fill:#cee5f5"
   id="rect96"
   clip-path="url(#SVGID_14_)"
   height="117"
   width="82"
   class="st7"
   y="140"
   x="164" />
    </g>
</g><g
     transform="translate(0,1565)"
     id="g118">
    <defs
   id="defs103">
        <polygon
   points="70,372 105,316 241,316 241,372 "
   id="SVGID_15_" />
    </defs>
    <clipPath
   id="SVGID_16_">
        <use
   height="100%"
   width="100%"
   y="0"
   x="0"
   id="use105"
   style="overflow:visible"
   xlink:href="#SVGID_15_" />
    </clipPath>
    <g
   id="g116"
   clip-path="url(#SVGID_16_)"
   class="st8">
        <defs
   id="defs109">
            <rect
   height="702"
   width="2417"
   y="-93"
   x="-95"
   id="SVGID_17_" />
        </defs>
        <clipPath
   id="SVGID_18_">
            <use
   height="100%"
   width="100%"
   y="0"
   x="0"
   id="use111"
   style="overflow:visible"
   xlink:href="#SVGID_17_" />
        </clipPath>
        <rect
   style="fill:#ffffff"
   id="rect114"
   clip-path="url(#SVGID_18_)"
   height="66"
   width="181"
   class="st9"
   y="311"
   x="65" />
    </g>
</g><g
     transform="translate(0,1565)"
     id="g136">
    <defs
   id="defs121">
        <polygon
   points="124,287 159,231 241,231 241,287 "
   id="SVGID_19_" />
    </defs>
    <clipPath
   id="SVGID_20_">
        <use
   height="100%"
   width="100%"
   y="0"
   x="0"
   id="use123"
   style="overflow:visible"
   xlink:href="#SVGID_19_" />
    </clipPath>
    <g
   id="g134"
   clip-path="url(#SVGID_20_)"
   class="st10">
        <defs
   id="defs127">
            <rect
   height="702"
   width="2417"
   y="-93"
   x="-95"
   id="SVGID_21_" />
        </defs>
        <clipPath
   id="SVGID_22_">
            <use
   height="100%"
   width="100%"
   y="0"
   x="0"
   id="use129"
   style="overflow:visible"
   xlink:href="#SVGID_21_" />
        </clipPath>
        <rect
   style="fill:#ffffff"
   id="rect132"
   clip-path="url(#SVGID_22_)"
   height="66"
   width="127"
   class="st11"
   y="226"
   x="119" />
    </g>
</g><g
     transform="translate(0,1565)"
     id="g154">
    <defs
   id="defs139">
        <polygon
   points="295,145 388,230 300,230 271,201 "
   id="SVGID_23_" />
    </defs>
    <clipPath
   id="SVGID_24_">
        <use
   height="100%"
   width="100%"
   y="0"
   x="0"
   id="use141"
   style="overflow:visible"
   xlink:href="#SVGID_23_" />
    </clipPath>
    <g
   id="g152"
   clip-path="url(#SVGID_24_)"
   class="st12">
        <defs
   id="defs145">
            <rect
   height="702"
   width="2417"
   y="-93"
   x="-95"
   id="SVGID_25_" />
        </defs>
        <clipPath
   id="SVGID_26_">
            <use
   height="100%"
   width="100%"
   y="0"
   x="0"
   id="use147"
   style="overflow:visible"
   xlink:href="#SVGID_25_" />
        </clipPath>
        <rect
   style="opacity:0.6;fill:#cee5f5"
   id="rect150"
   clip-path="url(#SVGID_26_)"
   height="95"
   width="127"
   class="st13"
   y="140"
   x="266" />
    </g>
</g><g
     transform="translate(0,1565)"
     id="g172">
    <defs
   id="defs157">
        <polygon
   points="271,372 271,265 343,265 "
   id="SVGID_27_" />
    </defs>
    <clipPath
   id="SVGID_28_">
        <use
   height="100%"
   width="100%"
   y="0"
   x="0"
   id="use159"
   style="overflow:visible"
   xlink:href="#SVGID_27_" />
    </clipPath>
    <g
   id="g170"
   clip-path="url(#SVGID_28_)"
   class="st14">
        <defs
   id="defs163">
            <rect
   height="702"
   width="2417"
   y="-93"
   x="-95"
   id="SVGID_29_" />
        </defs>
        <clipPath
   id="SVGID_30_">
            <use
   height="100%"
   width="100%"
   y="0"
   x="0"
   id="use165"
   style="overflow:visible"
   xlink:href="#SVGID_29_" />
        </clipPath>
        <rect
   style="opacity:0.6;fill:#cee5f5"
   id="rect168"
   clip-path="url(#SVGID_30_)"
   height="117"
   width="82"
   class="st15"
   y="260"
   x="266" />
    </g>
</g><g
     transform="translate(0,1565)"
     id="g190">
    <defs
   id="defs175">
        <polygon
   points="442,145 407,201 271,201 271,145 "
   id="SVGID_31_" />
    </defs>
    <clipPath
   id="SVGID_32_">
        <use
   height="100%"
   width="100%"
   y="0"
   x="0"
   id="use177"
   style="overflow:visible"
   xlink:href="#SVGID_31_" />
    </clipPath>
    <g
   id="g188"
   clip-path="url(#SVGID_32_)"
   class="st16">
        <defs
   id="defs181">
            <rect
   height="702"
   width="2417"
   y="-93"
   x="-95"
   id="SVGID_33_" />
        </defs>
        <clipPath
   id="SVGID_34_">
            <use
   height="100%"
   width="100%"
   y="0"
   x="0"
   id="use183"
   style="overflow:visible"
   xlink:href="#SVGID_33_" />
        </clipPath>
        <rect
   style="fill:#ffffff"
   id="rect186"
   clip-path="url(#SVGID_34_)"
   height="66"
   width="181"
   class="st17"
   y="140"
   x="266" />
    </g>
</g><g
     transform="translate(0,1565)"
     id="g208">
    <defs
   id="defs193">
        <polygon
   points="388,230 353,286 271,286 271,230 "
   id="SVGID_35_" />
    </defs>
    <clipPath
   id="SVGID_36_">
        <use
   height="100%"
   width="100%"
   y="0"
   x="0"
   id="use195"
   style="overflow:visible"
   xlink:href="#SVGID_35_" />
    </clipPath>
    <g
   id="g206"
   clip-path="url(#SVGID_36_)"
   class="st18">
        <defs
   id="defs199">
            <rect
   height="702"
   width="2417"
   y="-93"
   x="-95"
   id="SVGID_37_" />
        </defs>
        <clipPath
   id="SVGID_38_">
            <use
   height="100%"
   width="100%"
   y="0"
   x="0"
   id="use201"
   style="overflow:visible"
   xlink:href="#SVGID_37_" />
        </clipPath>
        <rect
   style="fill:#ffffff"
   id="rect204"
   clip-path="url(#SVGID_38_)"
   height="66"
   width="127"
   class="st19"
   y="225"
   x="266" />
    </g>
</g></g>
</svg>