<?xml version="1.0" encoding="UTF-8" standalone="no"?>
<!-- Created with Inkscape (http://www.inkscape.org/) -->

<svg
   xmlns:dc="http://purl.org/dc/elements/1.1/"
   xmlns:cc="http://creativecommons.org/ns#"
   xmlns:rdf="http://www.w3.org/1999/02/22-rdf-syntax-ns#"
   xmlns:svg="http://www.w3.org/2000/svg"
   xmlns="http://www.w3.org/2000/svg"
   xmlns:sodipodi="http://sodipodi.sourceforge.net/DTD/sodipodi-0.dtd"
   xmlns:inkscape="http://www.inkscape.org/namespaces/inkscape"
   version="1.1"
   id="svg2"
   width="384.79999"
   height="441.60001"
   viewBox="0 0 384.79999 441.60001"
   sodipodi:docname="nuevo_logo_bylinedu.svg"
   inkscape:version="0.92.2 (5c3e80d, 2017-08-06)">
  <metadata
     id="metadata8">
    <rdf:RDF>
      <cc:Work
         rdf:about="">
        <dc:format>image/svg+xml</dc:format>
        <dc:type
           rdf:resource="http://purl.org/dc/dcmitype/StillImage" />
        <dc:title></dc:title>
      </cc:Work>
    </rdf:RDF>
  </metadata>
  <defs
     id="defs6" />
  <sodipodi:namedview
     pagecolor="#ffffff"
     bordercolor="#666666"
     borderopacity="1"
     objecttolerance="10"
     gridtolerance="10"
     guidetolerance="10"
     inkscape:pageopacity="0"
     inkscape:pageshadow="2"
     inkscape:window-width="1440"
     inkscape:window-height="837"
     id="namedview4"
     showgrid="false"
     inkscape:zoom="5.1560235"
     inkscape:cx="112.69603"
     inkscape:cy="122.03617"
     inkscape:window-x="-8"
     inkscape:window-y="171"
     inkscape:window-maximized="1"
     inkscape:current-layer="svg2" />
  <path
     style="fill:#fdc787;fill-rule:evenodd;stroke:none;stroke-width:1px;stroke-linecap:butt;stroke-linejoin:miter;stroke-opacity:1;fill-opacity:0.78431374"
     d="m 338.68475,191.32882 c -22.4092,32.44255 -47.64793,63.11665 -79.99322,89.34915 26.66441,-14.02924 53.32881,-26.18644 79.99322,-63.15254 z"
     id="path826"
     inkscape:connector-curvature="0"
     sodipodi:nodetypes="cccc" />
  <path
     style="fill:#fec787;fill-opacity:1;fill-rule:evenodd;stroke:none;stroke-width:1px;stroke-linecap:butt;stroke-linejoin:miter;stroke-opacity:1"
     d="m 228.06013,36.525253 c -13.8928,19.647458 -23.57449,38.808561 -33.92453,58.456019 14.57401,15.554148 34.84516,23.744008 62.21694,29.003388 9.45643,-27.202658 15.7714,-56.562556 14.0339,-87.496524 z"
     id="path830"
     inkscape:connector-curvature="0"
     sodipodi:nodetypes="ccccc" />
  <path
     style="fill:#fcd68d;fill-rule:evenodd;stroke:none;stroke-width:1px;stroke-linecap:butt;stroke-linejoin:miter;stroke-opacity:1;fill-opacity:0.43555555"
     d="m 181.03729,36.488136 44.44068,31.81017 C 204.08963,109.30848 179.21973,150.31865 164.66441,191.32882 131.78237,171.18162 96.828804,154.40066 73.444069,118.82034 88.63656,88.591848 110.22046,60.493826 144.08136,36.488136 Z"
     id="path828"
     inkscape:connector-curvature="0"
     sodipodi:nodetypes="cccccc" />
  <path
     style="fill:#fcd68d;fill-rule:evenodd;stroke:none;stroke-width:1px;stroke-linecap:butt;stroke-linejoin:miter;stroke-opacity:1;fill-opacity:0.78431374"
     d="m 53.328814,113.20678 25.261018,27.1322 c -9.204947,31.08077 -1.329311,54.2782 5.145762,78.12204 C 50.634381,192.39848 52.426873,152.6277 53.328814,113.20678 Z"
     id="path832"
     inkscape:connector-curvature="0"
     sodipodi:nodetypes="cccc" />
  <g
     id="g822"
     style="fill:#b0b1d7;fill-opacity:0.8627451;stroke:none"
     transform="translate(0,0.467797)">
    <path
       sodipodi:nodetypes="cccccc"
       inkscape:connector-curvature="0"
       id="path819"
       d="m 110.8678,36.020339 c 0,0 10.58858,18.130699 27.6,32.745763 C 136.48985,74.464505 81.150756,131.82236 85.138985,197.87797 60.037183,178.38258 46.779662,133.78983 46.779662,133.78983 46.781092,86.838408 58.949044,67.153037 80.928815,36.020339 Z"
       style="fill:#b0b1d7;fill-opacity:0.8627451;fill-rule:evenodd;stroke:none;stroke-width:1px;stroke-linecap:butt;stroke-linejoin:miter;stroke-opacity:1" />
  </g>
  <path
     style="fill:#b0b1d7;fill-rule:evenodd;stroke:none;stroke-width:1px;stroke-linecap:butt;stroke-linejoin:miter;stroke-opacity:1;fill-opacity:0.86274511"
     d="m 216.12204,138 c 0,0 27.59999,24.32543 109.46441,19.17966 4.21017,-50.05424 -25.72881,-120.691524 -25.72881,-120.691524 h -45.37628 c 0,0 -27.6,83.735594 -38.35932,101.511864 z"
     id="path817"
     inkscape:connector-curvature="0"
     sodipodi:nodetypes="ccccc" />
  <path
     style="fill:#fdc787;fill-rule:evenodd;stroke:none;stroke-width:1px;stroke-linecap:butt;stroke-linejoin:miter;stroke-opacity:1;fill-opacity:0.78431374"
     d="m 145.48475,155.77628 c 47.70307,20.29556 98.09624,35.21091 152.0339,43.03728 -12.99995,29.72392 -27.5481,56.33309 -58.00678,81.86441 -10.33646,7.86268 -25.779,9.25556 -40.23051,8.88814 -34.46257,-2.88223 -58.51103,-11.75264 -82.8,-30.87458 -5.09921,-42.8544 10.76012,-73.57491 29.00339,-102.91525 z"
     id="path824"
     inkscape:connector-curvature="0"
     sodipodi:nodetypes="cccccc" />
  <path
     style="fill:#fdc787;fill-opacity:0.78431373;fill-rule:evenodd;stroke:none;stroke-width:1px;stroke-linecap:butt;stroke-linejoin:miter;stroke-opacity:1"
     d="m 80.928815,36.488136 c 1.59315,8.013595 4.216737,15.511971 10.759322,21.050848 L 110.8678,36.488136 Z"
     id="path834"
     inkscape:connector-curvature="0"
     sodipodi:nodetypes="cccc" />
  <g
     aria-label="ByLinedu"
     transform="scale(0.96566499,1.0355558)"
     style="font-style:normal;font-variant:normal;font-weight:bold;font-stretch:normal;font-size:62.07316589px;line-height:125%;font-family:Orbitron;-inkscape-font-specification:'Orbitron, Bold';font-variant-ligatures:normal;font-variant-caps:normal;font-variant-numeric:normal;font-feature-settings:normal;text-align:start;letter-spacing:0px;word-spacing:0px;writing-mode:lr-tb;text-anchor:start;fill:#000000;fill-opacity:1;stroke:none;stroke-width:1.0580653px;stroke-linecap:butt;stroke-linejoin:miter;stroke-opacity:1"
     id="text838">
    <path
       d="m 82.324745,309.62104 v 8.75231 q 0,1.8622 -0.620731,3.16574 2.420853,2.545 2.420853,5.89695 v 9.62134 q 0,3.60024 -2.545,6.14524 -2.545,2.48293 -6.145243,2.48293 H 39.432188 v -44.69268 h 34.264387 q 3.538171,0 6.08317,2.545 2.545,2.48292 2.545,6.08317 z m -8.62817,-0.43451 H 48.060358 q -0.434513,0 -0.434513,0.43451 v 8.75231 q 0,0.43452 0.434513,0.43452 h 25.636217 q 0.372439,0 0.372439,-0.43452 v -8.75231 q 0,-0.43451 -0.372439,-0.43451 z m 2.172561,27.87085 v -9.62134 q 0,-0.37244 -0.434512,-0.37244 H 48.060358 q -0.434513,0 -0.434513,0.37244 v 9.62134 q 0,0.43451 0.434513,0.43451 h 27.374266 q 0.434512,0 0.434512,-0.43451 z"
       style="font-style:normal;font-variant:normal;font-weight:bold;font-stretch:normal;font-size:62.07316589px;font-family:Orbitron;-inkscape-font-specification:'Orbitron, Bold';font-variant-ligatures:normal;font-variant-caps:normal;font-variant-numeric:normal;font-feature-settings:normal;text-align:start;writing-mode:lr-tb;text-anchor:start;stroke-width:1.0580653px"
       id="path844" />
    <path
       d="m 126.58485,351.39628 q 0,3.53817 -2.48293,6.0211 -2.48292,2.545 -6.02109,2.545 H 96.044853 v -8.19366 h 22.035977 q 0.37244,0 0.37244,-0.37244 v -5.71073 H 98.589853 q -3.53817,0 -6.08317,-2.48293 -2.482927,-2.545 -2.482927,-6.08317 v -27.31219 h 8.131585 v 27.31219 q 0,0.43451 0.434512,0.43451 h 19.490977 q 0.37244,0 0.37244,-0.43451 v -27.31219 h 8.13158 z"
       style="font-style:normal;font-variant:normal;font-weight:bold;font-stretch:normal;font-size:62.07316589px;font-family:Orbitron;-inkscape-font-specification:'Orbitron, Bold';font-variant-ligatures:normal;font-variant-caps:normal;font-variant-numeric:normal;font-feature-settings:normal;text-align:start;writing-mode:lr-tb;text-anchor:start;stroke-width:1.0580653px"
       id="path846" />
    <path
       d="m 133.50892,345.68555 v -44.75476 h 8.19366 v 36.5611 h 36.49902 v 8.19366 z"
       style="font-style:normal;font-variant:normal;font-weight:bold;font-stretch:normal;font-size:62.07316589px;font-family:Orbitron;-inkscape-font-specification:'Orbitron, Bold';font-variant-ligatures:normal;font-variant-caps:normal;font-variant-numeric:normal;font-feature-settings:normal;text-align:start;writing-mode:lr-tb;text-anchor:start;stroke-width:1.0580653px"
       id="path848" />
    <path
       d="m 181.57199,345.68555 v -36.00244 h 8.13158 v 36.00244 z m 0,-47.79634 h 8.13158 v 8.19366 h -8.13158 z"
       style="font-style:normal;font-variant:normal;font-weight:bold;font-stretch:normal;font-size:62.07316589px;font-family:Orbitron;-inkscape-font-specification:'Orbitron, Bold';font-variant-ligatures:normal;font-variant-caps:normal;font-variant-numeric:normal;font-feature-settings:normal;text-align:start;writing-mode:lr-tb;text-anchor:start;stroke-width:1.0580653px"
       id="path850" />
    <path
       d="m 224.11828,309.68311 q 3.53817,0 6.0211,2.545 2.545,2.48293 2.545,6.0211 v 27.43634 h -8.13158 v -27.43634 q 0,-0.43451 -0.43452,-0.43451 h -19.4289 q -0.43451,0 -0.43451,0.43451 v 27.43634 h -8.13158 v -36.00244 z"
       style="font-style:normal;font-variant:normal;font-weight:bold;font-stretch:normal;font-size:62.07316589px;font-family:Orbitron;-inkscape-font-specification:'Orbitron, Bold';font-variant-ligatures:normal;font-variant-caps:normal;font-variant-numeric:normal;font-feature-settings:normal;text-align:start;writing-mode:lr-tb;text-anchor:start;stroke-width:1.0580653px"
       id="path852" />
    <path
       d="m 265.51623,309.68311 q 3.53817,0 6.0211,2.545 2.545,2.48293 2.545,6.0211 v 13.53195 h -28.42951 v 5.33829 q 0,0.43451 0.43451,0.43451 h 27.995 v 8.13159 h -27.995 q -3.53817,0 -6.08317,-2.48293 -2.48293,-2.545 -2.48293,-6.08317 v -18.87024 q 0,-3.53817 2.48293,-6.0211 2.545,-2.545 6.08317,-2.545 z m -19.86341,13.90439 h 20.29792 v -5.33829 q 0,-0.43451 -0.43451,-0.43451 h -19.4289 q -0.43451,0 -0.43451,0.43451 z"
       style="font-style:normal;font-variant:normal;font-weight:bold;font-stretch:normal;font-size:62.07316589px;font-family:Orbitron;-inkscape-font-specification:'Orbitron, Bold';font-variant-ligatures:normal;font-variant-caps:normal;font-variant-numeric:normal;font-feature-settings:normal;text-align:start;writing-mode:lr-tb;text-anchor:start;stroke-width:1.0580653px"
       id="path854" />
    <path
       d="m 308.40491,297.88921 h 8.13159 v 47.79634 h -28.05707 q -3.53818,0 -6.08318,-2.48293 -2.48292,-2.545 -2.48292,-6.08317 v -18.87024 q 0,-3.53817 2.48292,-6.0211 2.545,-2.545 6.08318,-2.545 h 19.92548 z m -19.92548,39.66475 h 19.49097 q 0.43451,0 0.43451,-0.43451 v -18.87024 q 0,-0.43451 -0.43451,-0.43451 h -19.49097 q -0.37244,0 -0.37244,0.43451 v 18.87024 q 0,0.43451 0.37244,0.43451 z"
       style="font-style:normal;font-variant:normal;font-weight:bold;font-stretch:normal;font-size:62.07316589px;font-family:Orbitron;-inkscape-font-specification:'Orbitron, Bold';font-variant-ligatures:normal;font-variant-caps:normal;font-variant-numeric:normal;font-feature-settings:normal;text-align:start;writing-mode:lr-tb;text-anchor:start;stroke-width:1.0580653px"
       id="path856" />
    <path
       d="m 350.09189,309.68311 h 8.13158 v 27.43634 q 0,3.53817 -2.545,6.08317 -2.48292,2.48293 -6.02109,2.48293 h -19.4289 q -3.60025,0 -6.08317,-2.48293 -2.48293,-2.545 -2.48293,-6.08317 v -27.43634 h 8.13158 v 27.43634 q 0,0.43451 0.43452,0.43451 h 19.4289 q 0.43451,0 0.43451,-0.43451 z"
       style="font-style:normal;font-variant:normal;font-weight:bold;font-stretch:normal;font-size:62.07316589px;font-family:Orbitron;-inkscape-font-specification:'Orbitron, Bold';font-variant-ligatures:normal;font-variant-caps:normal;font-variant-numeric:normal;font-feature-settings:normal;text-align:start;writing-mode:lr-tb;text-anchor:start;stroke-width:1.0580653px"
       id="path858" />
  </g>
  <g
     aria-label="tecnología inclusiva"
     style="font-style:normal;font-variant:normal;font-weight:normal;font-stretch:normal;font-size:28.66666603px;line-height:125%;font-family:Orbitron;-inkscape-font-specification:'Orbitron, Normal';font-variant-ligatures:normal;font-variant-caps:normal;font-variant-numeric:normal;font-feature-settings:normal;text-align:start;letter-spacing:0px;word-spacing:0px;writing-mode:lr-tb;text-anchor:start;fill:#000000;fill-opacity:1;stroke:none;stroke-width:1px;stroke-linecap:butt;stroke-linejoin:miter;stroke-opacity:1"
     id="text842">
    <path
       d="M 47.085673,384.28674 H 39.89034 v 10.80734 q 0,0.45866 0.315333,0.80266 0.344,0.31534 0.802667,0.31534 h 6.077333 v 2.35066 H 41.00834 q -1.462,0 -2.465333,-1.00333 -1.003334,-1.032 -1.003334,-2.46533 v -18.60467 h 2.350667 v 5.44667 h 7.195333 z"
       style=""
       id="path861" />
    <path
       d="m 62.684819,381.93608 q 1.462,0 2.465333,1.032 1.032,1.00333 1.032,2.43666 v 6.02 H 51.590819 v 3.66934 q 0,0.45866 0.315333,0.80266 0.344,0.31534 0.802667,0.31534 h 13.473333 v 2.35066 H 52.708819 q -1.433333,0 -2.465333,-1.00333 -1.003334,-1.032 -1.003334,-2.46533 v -9.68934 q 0,-1.43333 1.003334,-2.43666 1.032,-1.032 2.465333,-1.032 z m -11.094,7.138 h 12.212 v -3.66934 q 0,-0.45866 -0.344,-0.774 -0.315334,-0.344 -0.774,-0.344 h -9.976 q -0.458667,0 -0.802667,0.344 -0.315333,0.31534 -0.315333,0.774 z"
       style=""
       id="path863" />
    <path
       d="m 71.969235,396.21208 h 13.473333 v 2.35066 H 71.969235 q -1.433333,0 -2.465333,-1.00333 -1.003334,-1.032 -1.003334,-2.46533 v -9.68934 q 0,-1.43333 1.003334,-2.43666 1.032,-1.032 2.465333,-1.032 h 13.416 v 2.35066 h -13.416 q -0.458667,0 -0.802667,0.344 -0.315333,0.31534 -0.315333,0.774 v 9.68934 q 0,0.45866 0.315333,0.80266 0.344,0.31534 0.802667,0.31534 z"
       style=""
       id="path865" />
    <path
       d="m 101.99219,381.93608 q 1.43334,0 2.43667,1.032 1.032,1.00333 1.032,2.43666 v 13.158 h -2.35067 v -13.158 q 0,-0.45866 -0.344,-0.774 -0.31533,-0.344 -0.774,-0.344 h -9.975997 q -0.458667,0 -0.802667,0.344 -0.344,0.31534 -0.344,0.774 v 13.158 h -2.350667 v -16.62666 z"
       style=""
       id="path867" />
    <path
       d="m 111.3859,381.93608 h 9.976 q 1.462,0 2.46533,1.032 1.032,1.00333 1.032,2.43666 v 9.68934 q 0,1.43333 -1.032,2.46533 -1.00333,1.00333 -2.46533,1.00333 h -9.976 q -1.43334,0 -2.46534,-1.00333 -1.00333,-1.032 -1.00333,-2.46533 v -9.68934 q 0,-1.43333 1.00333,-2.43666 1.032,-1.032 2.46534,-1.032 z m 9.976,2.35066 h -9.976 q -0.45867,0 -0.80267,0.344 -0.31533,0.31534 -0.31533,0.774 v 9.68934 q 0,0.45866 0.31533,0.80266 0.344,0.31534 0.80267,0.31534 h 9.976 q 0.45866,0 0.774,-0.31534 0.344,-0.344 0.344,-0.80266 v -9.68934 q 0,-0.45866 -0.344,-0.774 -0.31534,-0.344 -0.774,-0.344 z"
       style=""
       id="path869" />
    <path
       d="m 127.20632,376.48941 h 2.35067 v 18.60467 q 0,0.45866 0.31533,0.80266 0.344,0.31534 0.80267,0.31534 h 2.80933 v 2.35066 h -2.80933 q -1.43334,0 -2.46534,-1.00333 -1.00333,-1.032 -1.00333,-2.46533 z"
       style=""
       id="path871" />
    <path
       d="m 139.04476,381.93608 h 9.976 q 1.462,0 2.46533,1.032 1.032,1.00333 1.032,2.43666 v 9.68934 q 0,1.43333 -1.032,2.46533 -1.00333,1.00333 -2.46533,1.00333 h -9.976 q -1.43334,0 -2.46534,-1.00333 -1.00333,-1.032 -1.00333,-2.46533 v -9.68934 q 0,-1.43333 1.00333,-2.43666 1.032,-1.032 2.46534,-1.032 z m 9.976,2.35066 h -9.976 q -0.45867,0 -0.80267,0.344 -0.31533,0.31534 -0.31533,0.774 v 9.68934 q 0,0.45866 0.31533,0.80266 0.344,0.31534 0.80267,0.31534 h 9.976 q 0.45866,0 0.774,-0.31534 0.344,-0.344 0.344,-0.80266 v -9.68934 q 0,-0.45866 -0.344,-0.774 -0.31534,-0.344 -0.774,-0.344 z"
       style=""
       id="path873" />
    <path
       d="m 172.02307,401.63008 q 0,1.462 -1.00333,2.46533 -1.00334,1.032 -2.46534,1.032 h -10.37733 v -2.37933 h 10.37733 q 0.45867,0 0.774,-0.344 0.344,-0.31534 0.344,-0.774 v -3.06734 h -11.094 q -1.43333,0 -2.46533,-1.00333 -1.00333,-1.032 -1.00333,-2.46533 v -9.68934 q 0,-1.43333 1.00333,-2.43666 1.032,-1.032 2.46533,-1.032 h 9.976 q 1.462,0 2.46534,1.032 1.00333,1.00333 1.00333,2.43666 z m -13.44467,-5.418 h 9.976 q 0.45867,0 0.774,-0.31534 0.344,-0.344 0.344,-0.80266 v -9.68934 q 0,-0.45866 -0.344,-0.774 -0.31533,-0.344 -0.774,-0.344 h -9.976 q -0.45866,0 -0.80266,0.344 -0.31534,0.31534 -0.31534,0.774 v 9.68934 q 0,0.45866 0.31534,0.80266 0.344,0.31534 0.80266,0.31534 z"
       style=""
       id="path875" />
    <path
       d="m 174.99275,398.56274 v -16.62666 h 2.35066 v 16.62666 z m -0.0573,-21.87266 1.00334,-3.98467 h 2.26466 l -0.97466,3.98467 z"
       style=""
       id="path877" />
    <path
       d="m 194.62494,381.93608 q 1.462,0 2.46533,1.032 1.032,1.00333 1.032,2.43666 v 13.158 h -13.47333 q -1.43333,0 -2.46533,-1.00333 -1.00334,-1.032 -1.00334,-2.46533 v -6.02 h 14.56267 v -3.66934 q 0,-0.45866 -0.344,-0.774 -0.31533,-0.344 -0.774,-0.344 h -13.44467 v -2.35066 z m 1.118,14.276 v -4.78734 h -12.212 v 3.66934 q 0,0.45866 0.31533,0.80266 0.344,0.31534 0.80267,0.31534 z"
       style=""
       id="path879" />
    <path
       d="m 208.83913,398.56274 v -16.62666 h 2.35067 v 16.62666 z m 0,-22.07333 h 2.35067 v 2.35067 h -2.35067 z"
       style=""
       id="path881" />
    <path
       d="m 227.91277,381.93608 q 1.43333,0 2.43666,1.032 1.032,1.00333 1.032,2.43666 v 13.158 h -2.35066 v -13.158 q 0,-0.45866 -0.344,-0.774 -0.31534,-0.344 -0.774,-0.344 h -9.976 q -0.45867,0 -0.80267,0.344 -0.344,0.31534 -0.344,0.774 v 13.158 h -2.35067 v -16.62666 z"
       style=""
       id="path883" />
    <path
       d="m 237.19449,396.21208 h 13.47333 v 2.35066 h -13.47333 q -1.43333,0 -2.46533,-1.00333 -1.00334,-1.032 -1.00334,-2.46533 v -9.68934 q 0,-1.43333 1.00334,-2.43666 1.032,-1.032 2.46533,-1.032 h 13.416 v 2.35066 h -13.416 q -0.45867,0 -0.80267,0.344 -0.31533,0.31534 -0.31533,0.774 v 9.68934 q 0,0.45866 0.31533,0.80266 0.344,0.31534 0.80267,0.31534 z"
       style=""
       id="path885" />
    <path
       d="m 253.68679,376.48941 h 2.35066 v 18.60467 q 0,0.45866 0.31534,0.80266 0.344,0.31534 0.80266,0.31534 h 2.80934 v 2.35066 h -2.80934 q -1.43333,0 -2.46533,-1.00333 -1.00333,-1.032 -1.00333,-2.46533 z"
       style=""
       id="path887" />
    <path
       d="m 276.98516,381.93608 h 2.35067 v 13.158 q 0,1.43333 -1.032,2.46533 -1.00333,1.00333 -2.46533,1.00333 h -9.976 q -1.43334,0 -2.46534,-1.00333 -1.00333,-1.032 -1.00333,-2.46533 v -13.158 h 2.35067 v 13.158 q 0,0.45866 0.31533,0.80266 0.344,0.31534 0.80267,0.31534 h 9.976 q 0.45866,0 0.80266,-0.31534 0.344,-0.344 0.344,-0.80266 z"
       style=""
       id="path889" />
    <path
       d="m 298.67687,385.40474 v 0.22934 h -2.37933 v -0.22934 q 0,-0.45866 -0.344,-0.774 -0.31534,-0.344 -0.774,-0.344 h -9.976 q -0.45867,0 -0.80267,0.344 -0.31533,0.31534 -0.31533,0.774 v 2.55134 q 0,0.45866 0.31533,0.80266 0.344,0.31534 0.80267,0.31534 h 9.976 q 1.462,0 2.46533,1.032 1.032,1.00333 1.032,2.43666 v 2.55134 q 0,1.43333 -1.032,2.46533 -1.00333,1.00333 -2.46533,1.00333 h -9.976 q -1.43334,0 -2.46534,-1.00333 -1.00333,-1.032 -1.00333,-2.46533 v -0.22934 h 2.35067 v 0.22934 q 0,0.45866 0.31533,0.80266 0.344,0.31534 0.80267,0.31534 h 9.976 q 0.45866,0 0.774,-0.31534 0.344,-0.344 0.344,-0.80266 v -2.55134 q 0,-0.45866 -0.344,-0.774 -0.31534,-0.344 -0.774,-0.344 h -9.976 q -1.43334,0 -2.46534,-1.00333 -1.00333,-1.032 -1.00333,-2.46533 v -2.55134 q 0,-1.43333 1.00333,-2.43666 1.032,-1.032 2.46534,-1.032 h 9.976 q 1.462,0 2.46533,1.032 1.032,1.00333 1.032,2.43666 z"
       style=""
       id="path891" />
    <path
       d="m 301.50188,398.56274 v -16.62666 h 2.35067 v 16.62666 z m 0,-22.07333 h 2.35067 v 2.35067 h -2.35067 z"
       style=""
       id="path893" />
    <path
       d="m 324.78279,381.93608 h 2.752 l -9.202,16.62666 h -2.72334 l -9.17333,-16.62666 h 2.752 l 7.79733,14.33333 z"
       style=""
       id="path895" />
    <path
       d="m 343.38927,381.93608 q 1.462,0 2.46533,1.032 1.032,1.00333 1.032,2.43666 v 13.158 h -13.47333 q -1.43334,0 -2.46534,-1.00333 -1.00333,-1.032 -1.00333,-2.46533 v -6.02 h 14.56267 v -3.66934 q 0,-0.45866 -0.344,-0.774 -0.31534,-0.344 -0.774,-0.344 H 329.9446 v -2.35066 z m 1.118,14.276 v -4.78734 h -12.212 v 3.66934 q 0,0.45866 0.31533,0.80266 0.344,0.31534 0.80267,0.31534 z"
       style=""
       id="path897" />
  </g>
</svg>
