<?xml version="1.0" encoding="UTF-8" standalone="no"?>
<svg
   xmlns:dc="http://purl.org/dc/elements/1.1/"
   xmlns:cc="http://creativecommons.org/ns#"
   xmlns:rdf="http://www.w3.org/1999/02/22-rdf-syntax-ns#"
   xmlns:svg="http://www.w3.org/2000/svg"
   xmlns="http://www.w3.org/2000/svg"
   xmlns:sodipodi="http://sodipodi.sourceforge.net/DTD/sodipodi-0.dtd"
   xmlns:inkscape="http://www.inkscape.org/namespaces/inkscape"
   version="1.0"
   width="450"
   height="450"
   id="svg2"
   inkscape:version="0.91 r13725"
   sodipodi:docname="geoinquietos-vlc.svg"
   inkscape:export-filename="/home/jsanz/src/osgeo/geoinquietos-vlc-portfolio/imgs/logo/png/geoinquietos.png"
   inkscape:export-xdpi="300"
   inkscape:export-ydpi="300">
  <title
     id="title3959">Geoinquietos VLC Logo</title>
  <metadata
     id="metadata42">
    <rdf:RDF>
      <cc:Work
         rdf:about="">
        <dc:format>image/svg+xml</dc:format>
        <dc:type
           rdf:resource="http://purl.org/dc/dcmitype/StillImage" />
        <dc:title>Geoinquietos VLC Logo</dc:title>
        <dc:date>2016-05-28</dc:date>
        <dc:creator>
          <cc:Agent>
            <dc:title>Fernando González</dc:title>
          </cc:Agent>
        </dc:creator>
        <dc:source>OpenClipart and OSGeo</dc:source>
        <dc:subject>
          <rdf:Bag>
            <rdf:li>geoinquietos</rdf:li>
            <rdf:li>osgeo</rdf:li>
            <rdf:li>valencia</rdf:li>
          </rdf:Bag>
        </dc:subject>
        <dc:description>Logo for Geoinquietos Valencia</dc:description>
      </cc:Work>
    </rdf:RDF>
  </metadata>
  <defs
     id="defs40" />
  <sodipodi:namedview
     pagecolor="#ffffff"
     bordercolor="#666666"
     borderopacity="1"
     objecttolerance="10"
     gridtolerance="10"
     guidetolerance="10"
     inkscape:pageopacity="0"
     inkscape:pageshadow="2"
     inkscape:window-width="1491"
     inkscape:window-height="1028"
     id="namedview38"
     showgrid="false"
     fit-margin-top="0.5"
     fit-margin-left="0.5"
     fit-margin-right="0.5"
     fit-margin-bottom="0.5"
     inkscape:zoom="0.77377049"
     inkscape:cx="-270.81028"
     inkscape:cy="266.33235"
     inkscape:window-x="258"
     inkscape:window-y="116"
     inkscape:window-maximized="0"
     inkscape:current-layer="svg2" />
  <g
     inkscape:groupmode="layer"
     id="layer2"
     inkscape:label="Fuego"
     style="display:inline"
     transform="translate(-12.774608,151.14135)">
    <g
       id="g4252"
       transform="matrix(0.61001486,-0.65150743,0.65150743,0.61001486,8.4871756,100.28502)">
      <path
         style="fill:#ed1c24"
         d="M 167.89,65.402 C 134.12667,78.248 100.36333,91.094 66.6,103.94 71.05105,83.319743 85.16999,64.527681 106.42275,59.321008 129.51041,52.08519 154.07232,51.882807 178.04,52.431 c -3.38333,4.323667 -6.76667,8.647333 -10.15,12.971 z"
         id="path4254"
         inkscape:connector-curvature="0" />
      <g
         id="g4256">
        <linearGradient
           x1="324.47"
           y1="11.248"
           x2="255.71001"
           gradientUnits="userSpaceOnUse"
           y2="103.22"
           id="SVGID_1_">
          <stop
             id="stop4259"
             offset="0"
             style="stop-color:#FFFFFF" />
          <stop
             id="stop4261"
             offset=".4835"
             style="stop-color:#FFF200" />
          <stop
             id="stop4263"
             offset="1"
             style="stop-color:#ED1C24" />
        </linearGradient>
        <path
           style="fill:url(#SVGID_1_)"
           d="m 261.79,100.67 c -15.33037,-6.695449 -7.5254,-32.737522 0.31537,-43.9805 12.83719,-15.946258 33.67977,-22.261264 47.75133,-36.580926 7.63339,-23.436109 25.34745,6.074617 18.5061,19.057512 -7.23515,28.371436 -41.1538,32.776864 -57.69547,53.238867 -1.55017,3.975965 -3.87539,8.457347 -8.87733,8.265047 z"
           id="path4265"
           inkscape:connector-curvature="0" />
        <path
           style="fill:#ed1c24"
           d="m 318.15,18.813 c 11.13855,21.335689 -9.37737,39.611123 -26.91543,47.971697 -10.84234,3.844205 -28.93586,22.295647 -29.45498,22.350384 C 257.96174,67.97421 274.48932,52.313745 291.52532,43.275938 300.53177,36.050472 316.08257,31.680174 318.143,18.813 m 0.01,-15.847 c -16.79791,3.7606002 -20.72836,24.55859 -38.923,29.365 -18.04099,10.436533 -34.79219,27.942193 -33.25894,50.325219 -7.5242,18.740281 18.91299,36.854091 29.80525,17.518341 8.48212,-16.041739 28.87078,-20.019029 41.77803,-31.852105 C 336.85308,55.216331 343.89528,25.669333 328.73574,7.0292266 325.86415,4.4347929 322.01395,2.9653955 318.153,2.966 Z"
           id="path4267"
           inkscape:connector-curvature="0" />
      </g>
      <path
         style="fill:none;stroke:#ed1c24;stroke-width:24.30599976"
         d="M 285.60001,213.14999 C 288.96646,301.81201 192.10237,373.07346 108.47648,343.7636 22.836207,320.76152 -16.769436,207.20787 36.040119,135.95207 83.324596,60.904715 203.50179,56.648885 255.97646,128.16348 c 19.0846,23.92587 29.69807,54.38581 29.62355,84.98651 z"
         id="circle4269"
         inkscape:connector-curvature="0" />
      <g
         id="g4271">
        <path
           style="fill:#ffffff"
           d="M 158.05,339.31 C 114.85191,340.26193 68.573327,323.18188 44.87308,285.35495 20.109995,245.23324 15.28935,189.56573 45.135411,150.61109 66.297909,121.18806 99.456436,100.67229 135.86148,97.380759 156.78247,99.841448 164.70305,81.929324 170.98621,65.507244 184.79832,34.601734 216.64502,14.809633 250.00345,12.880811 265.762,5.1267891 290.69366,23.566094 269.661,35.791 c -24.73445,3.033732 -21.67952,28.491002 -22.06578,46.825125 0.81354,13.600385 -12.69882,35.518635 -10.57485,41.073735 30.62806,-10.04293 64.64407,-24.600642 77.75891,-56.504813 22.09935,-15.963397 25.09892,18.582411 16.17374,32.113163 -7.77284,31.08152 -29.67095,59.45945 -54.56002,76.73279 16.02967,5.59634 29.04543,-1.77943 43.03563,-6.2835 22.80777,11.82615 0.97995,42.79378 -16.23391,49.88381 -18.57985,9.89384 -37.9355,23.39787 -42.1114,45.59108 C 247.27976,309.31257 204.361,340.38421 158.05,339.31 Z"
           id="path4273"
           inkscape:connector-curvature="0" />
        <path
           style="fill:#ed1c24"
           d="M 265.68,24.307 C 243.2493,28.375742 231.98663,49.975625 236.10076,71.362188 235.37689,100.95763 221.67374,131.20543 198.022,149.35 c 40.2233,-14.90575 87.45829,-22.54472 116.20122,-57.520395 6.32125,-7.239434 12.91927,-25.622952 7.55904,-5.587059 -7.34125,38.800614 -33.86527,72.180914 -69.00762,89.680534 -16.67929,7.86755 -33.07831,22.92054 -32.99464,42.70892 3.34233,-22.22857 29.20756,-26.44583 47.51004,-29.37969 16.55791,-3.77 36.71014,8.35654 49.79796,-7.59731 -0.12995,21.73304 -24.61969,28.39131 -39.02822,39.22515 -22.23511,12.37634 -26.3681,38.36965 -36.82877,59.0809 -18.98966,35.15134 -61.35131,52.36239 -99.97602,46.21469 C 97.38338,324.54023 54.359672,295.11357 42.848497,251.72829 29.993981,216.54564 36.610285,174.45911 63.427688,147.39778 82.960452,124.48475 111.59127,111.6335 141.23211,108.84069 c 22.40517,1.56319 33.50384,-17.619066 39.70346,-36.099022 12.04836,-29.174637 42.13708,-47.127141 73.0806,-48.008434 3.87916,-0.29375 7.76984,-0.426117 11.65983,-0.426234 M 265.676,0 C 226.69852,-1.1282625 185.09764,15.154998 165.39563,50.5455 155.82989,67.730349 151.70484,90.462276 126.81014,86.555769 70.595515,94.543407 20.912745,141.62951 13.166619,198.35907 c -5.9702528,52.66194 18.706378,110.65375 67.227788,135.36049 33.124773,17.31378 72.901663,22.0857 109.293423,13.79295 41.65714,-10.01701 74.67643,-44.95137 85.3575,-86.04095 10.56167,-27.84532 47.87225,-29.9033 60.59181,-56.38562 9.05799,-15.23492 8.66674,-40.93418 -11.53392,-46.70339 -20.76342,0.76559 9.28316,-19.55269 9.46892,-31.39098 7.25631,-17.90342 14.91627,-37.078491 14.4182,-56.635992 C 344.45553,45.194959 305.71008,44.632122 300.16632,68.888735 292.80026,84.587863 266.58207,102.50766 256.44947,100.89042 266.58555,83.874925 248.87882,52.548945 273.626,47.272 299.20678,39.429463 292.43544,-0.97731905 265.676,0 Z"
           id="path4275"
           inkscape:connector-curvature="0" />
      </g>
      <linearGradient
         x1="398.12"
         y1="50.903"
         x2="289.97"
         gradientUnits="userSpaceOnUse"
         y2="168.38"
         id="SVGID_2_">
        <stop
           id="stop4278"
           offset="0"
           style="stop-color:#FFFFFF" />
        <stop
           id="stop4280"
           offset=".4835"
           style="stop-color:#FFF200" />
        <stop
           id="stop4282"
           offset="1"
           style="stop-color:#ED1C24" />
      </linearGradient>
      <path
         style="fill:url(#SVGID_2_);stroke:#ed1c24;stroke-width:12.91399956;stroke-linecap:square;stroke-linejoin:round"
         d="m 284.81,163.63 c 36.29382,-0.41835 78.61217,-16.12564 91.54959,-53.08772 7.68374,-19.007398 1.57587,-44.7684 20.1354,-58.14251 -9.17092,-2.404857 -38.55058,0.20387 -51.32055,12.450378 -26.47527,23.61601 -20.61063,64.964312 -43.60394,90.745822 -4.59255,4.35122 -10.63378,6.804 -16.7605,8.03403 z"
         id="path4284"
         inkscape:connector-curvature="0" />
      <linearGradient
         x1="328.17001"
         y1="160.16"
         x2="240.97"
         gradientUnits="userSpaceOnUse"
         y2="195.19"
         id="SVGID_3_">
        <stop
           id="stop4287"
           offset="0"
           style="stop-color:#FFFFFF" />
        <stop
           id="stop4289"
           offset=".4835"
           style="stop-color:#FFF200" />
        <stop
           id="stop4291"
           offset="1"
           style="stop-color:#ED1C24" />
      </linearGradient>
      <path
         style="fill:url(#SVGID_3_)"
         d="m 242.22,192.82 c 9.66922,-18.78387 32.02891,-22.55933 51.18583,-22.09555 11.26282,2.84764 31.54959,-8.67349 32.48843,-11.33926 -7.17704,19.1765 -27.95904,27.11417 -47.1028,24.91605 -12.04861,0.68735 -28.07591,-2.21011 -36.57146,8.51876 z"
         id="path4293"
         inkscape:connector-curvature="0" />
      <linearGradient
         x1="317.95999"
         y1="70.477997"
         x2="159.05"
         gradientUnits="userSpaceOnUse"
         y2="177.97"
         id="SVGID_4_">
        <stop
           id="stop4296"
           offset="0"
           style="stop-color:#FFFFFF" />
        <stop
           id="stop4298"
           offset=".4835"
           style="stop-color:#FFF200" />
        <stop
           id="stop4300"
           offset="1"
           style="stop-color:#ED1C24" />
      </linearGradient>
      <path
         style="fill:url(#SVGID_4_)"
         d="m 220.66,138.44 c 1.5003,-23.12234 26.0124,-33.69056 45.23395,-39.604425 11.14232,-2.292173 24.69595,-24.913168 16.65603,-1.746947 -5.37721,21.626772 -28.51744,28.949972 -47.71389,33.071212 -5.24367,1.71629 -10.11056,4.58927 -14.17609,8.28016 z"
         id="path4302"
         inkscape:connector-curvature="0" />
      <linearGradient
         x1="164.73"
         y1="64.574997"
         x2="78.827003"
         gradientUnits="userSpaceOnUse"
         y2="119.16"
         id="SVGID_5_">
        <stop
           id="stop4305"
           offset="0"
           style="stop-color:#FFFFFF" />
        <stop
           id="stop4307"
           offset=".4835"
           style="stop-color:#FFF200" />
        <stop
           id="stop4309"
           offset="1"
           style="stop-color:#ED1C24" />
      </linearGradient>
      <path
         style="fill:url(#SVGID_5_)"
         d="m 82.134,120.21 c -0.709802,-20.830061 13.199847,-39.781802 34.00754,-43.713668 16.4376,-6.465951 35.65898,-1.530542 51.19373,-9.62616 5.28255,16.207282 -20.99722,36.898658 -41.18727,34.962828 -15.79424,2.15368 -32.126626,7.35608 -44.014,18.377 z"
         id="path4311"
         inkscape:connector-curvature="0" />
      <linearGradient
         x1="286.48001"
         y1="104.02"
         x2="75.406998"
         gradientUnits="userSpaceOnUse"
         y2="278.98001"
         id="SVGID_6_">
        <stop
           id="stop4314"
           offset="0"
           style="stop-color:#FFFFFF" />
        <stop
           id="stop4316"
           offset=".4835"
           style="stop-color:#FFF200" />
        <stop
           id="stop4318"
           offset="1"
           style="stop-color:#ED1C24" />
      </linearGradient>
      <path
         style="fill:url(#SVGID_6_)"
         d="m 87.551,140.33 c -40.888043,26.55435 -53.723697,85.75857 -28.677674,127.30074 24.647621,43.62467 82.777564,62.25898 128.717714,43.05282 31.10411,-14.06814 52.92792,-44.65171 61.5609,-77.14124 3.22103,-13.11001 34.17612,-26.6395 32.03227,-25.48962 -21.5164,2.74569 -44.66635,7.3377 -61.51596,21.9077 -8.55324,15.16922 -3.05699,-17.78436 -1.992,-24.8589 5.82653,-29.33412 35.43713,-40.98126 55.916,-58.30513 8.89706,-5.7018 21.75025,-34.13816 5.29655,-14.80004 -31.61679,21.12721 -70.02384,26.38174 -104.8713,39.76562 -10.01567,2.2642 -32.37788,23.15628 -18.00972,2.73925 16.75174,-21.05735 48.08859,-29.48399 56.2251,-57.478 10.17094,-23.348096 4.19719,-49.506348 11.03228,-73.425348 11.32007,-12.896287 1.81109,-2.962629 -6.61455,2.045929 -15.73738,13.218975 -31.79422,29.03003 -35.69265,50.04568 -11.44225,20.982919 -38.6447,22.779579 -58.97087,30.055099 -11.9232,3.62422 -24.038334,7.51933 -34.43609,14.58544 z"
         id="path4320"
         inkscape:connector-curvature="0" />
      <linearGradient
         x1="374.79999"
         y1="2.2056"
         x2="309.32999"
         gradientUnits="userSpaceOnUse"
         y2="89.773003"
         id="SVGID_7_">
        <stop
           id="stop4323"
           offset="0"
           style="stop-color:#FFFFFF" />
        <stop
           id="stop4325"
           offset=".4835"
           style="stop-color:#FFF200" />
        <stop
           id="stop4327"
           offset="1"
           style="stop-color:#ED1C24" />
      </linearGradient>
      <path
         style="fill:url(#SVGID_7_);stroke:#ed1c24;stroke-width:9.90310001;stroke-linecap:square;stroke-linejoin:round"
         d="m 295.1,74.25 c 25.00458,1.780618 51.74488,-10.388988 63.60976,-33.152225 4.593,-9.865629 32.01832,-27.100383 28.73375,-25.007327 -24.08773,0.14506 -49.38028,9.666151 -62.17886,31.16986 C 316.77178,57.728718 307.54189,68.439972 295.1,74.25 Z"
         id="path4329"
         inkscape:connector-curvature="0" />
    </g>
  </g>
  <g
     inkscape:groupmode="layer"
     id="layer3"
     inkscape:label="OSGeo"
     transform="translate(-12.774608,151.14135)">
    <g
       transform="translate(564.87191,-164.45341)"
       id="Text"
       style="display:none">
      <g
         id="Associate">
        <path
           inkscape:connector-curvature="0"
           d="m 125.807,106.395 c -0.74,-0.246 -1.523,-0.357 -2.105,-0.357 -2.129,0 -3.024,1.141 -3.024,2.26 0,2.531 4.503,2.6 4.503,6.207 0,2.867 -2.532,5.084 -6.116,5.084 -0.874,0 -1.859,-0.068 -2.599,-0.291 l 0.449,-2.309 c 0.649,0.271 1.546,0.473 2.33,0.473 2.15,0 3.337,-1.01 3.337,-2.555 0,-2.42 -4.457,-2.441 -4.457,-6.049 0,-2.619 1.97,-4.838 5.734,-4.838 0.807,0 1.523,0.045 2.375,0.201 l -0.427,2.174 z"
           id="path5"
           style="display:inline;fill:#0054a4" />
        <path
           inkscape:connector-curvature="0"
           d="m 130.755,119.545 c -0.492,0 -0.917,-0.047 -1.411,-0.113 l -1.008,5.398 -2.352,0 2.15,-11.268 c 0.381,-2.062 0.74,-3.896 0.963,-5.33 l 2.33,0 c -0.179,0.916 -0.47,1.924 -1.143,4.029 l 0.045,0.025 c 1.121,-2.443 2.801,-4.303 4.929,-4.303 1.658,0 2.553,1.074 2.553,3.451 0.001,4.146 -2.171,8.111 -7.056,8.111 z m 3.63,-9.5 c -1.882,0 -4.078,4.076 -4.503,6.586 l -0.134,0.785 c 0.402,0.156 1.007,0.244 1.434,0.244 2.957,0 4.211,-3.225 4.211,-5.799 0,-1.279 -0.381,-1.816 -1.008,-1.816 z"
           id="path7"
           style="display:inline;fill:#0054a4" />
        <path
           inkscape:connector-curvature="0"
           d="m 143.366,119.588 c -2.935,0 -4.211,-1.455 -4.211,-3.986 0,-4.549 2.957,-7.594 6.564,-7.594 3.047,0 4.256,1.68 4.256,4.055 -0.001,4.568 -3.204,7.525 -6.609,7.525 z m 1.993,-9.543 c -2.285,0 -3.741,2.621 -3.741,5.174 0,1.459 0.583,2.309 2.084,2.309 2.105,0 3.786,-2.285 3.786,-5.197 0,-1.477 -0.65,-2.286 -2.129,-2.286 z"
           id="path9"
           style="display:inline;fill:#0054a4" />
        <path
           inkscape:connector-curvature="0"
           d="m 160.412,119.365 -2.354,0 1.367,-7.057 c 0.314,-1.592 0.021,-2.264 -0.852,-2.264 -1.791,0 -3.986,3.986 -4.48,6.676 l -0.492,2.645 -2.352,0 1.121,-5.824 c 0.357,-1.859 0.717,-3.811 0.961,-5.309 l 2.33,0 c -0.135,0.693 -0.424,1.881 -1.141,3.965 l 0.043,0.021 c 1.055,-2.195 2.711,-4.234 4.951,-4.234 2.105,0 2.777,1.5 2.352,3.764 l -1.454,7.617 z"
           id="path11"
           style="display:inline;fill:#0054a4" />
        <path
           inkscape:connector-curvature="0"
           d="m 170.646,110.066 c -0.492,-0.178 -1.053,-0.246 -1.59,-0.246 -1.322,0 -1.994,0.582 -1.994,1.434 0,1.592 3.158,2.152 3.158,4.615 0,1.859 -1.635,3.719 -4.928,3.719 -0.738,0 -1.344,-0.068 -1.904,-0.18 l 0.402,-2.059 c 0.562,0.178 1.166,0.289 1.771,0.289 1.322,0 2.195,-0.514 2.195,-1.523 0,-1.633 -3.137,-1.947 -3.137,-4.615 0,-1.947 1.547,-3.492 4.57,-3.492 0.738,0 1.344,0.066 1.904,0.178 l -0.447,1.88 z"
           id="path13"
           style="display:inline;fill:#0054a4" />
        <path
           inkscape:connector-curvature="0"
           d="m 176.56,119.588 c -2.936,0 -4.213,-1.455 -4.213,-3.986 0,-4.549 2.957,-7.594 6.564,-7.594 3.047,0 4.256,1.68 4.256,4.055 0,4.568 -3.203,7.525 -6.607,7.525 z m 1.992,-9.543 c -2.285,0 -3.74,2.621 -3.74,5.174 0,1.459 0.582,2.309 2.084,2.309 2.105,0 3.785,-2.285 3.785,-5.197 0,-1.477 -0.65,-2.286 -2.129,-2.286 z"
           id="path15"
           style="display:inline;fill:#0054a4" />
        <path
           inkscape:connector-curvature="0"
           d="m 191.857,110.314 c -1.859,-0.537 -3.943,3.182 -4.592,6.586 l -0.471,2.465 -2.352,0 1.121,-5.824 c 0.289,-1.568 0.672,-3.652 0.961,-5.309 l 2.287,0 c -0.158,0.916 -0.449,2.016 -1.055,3.762 l 0.045,0.021 c 1.232,-2.553 2.51,-4.344 4.549,-4.008 l -0.493,2.307 z"
           id="path17"
           style="display:inline;fill:#0054a4" />
        <path
           inkscape:connector-curvature="0"
           d="m 199.291,114.549 c -0.895,0 -1.521,-0.717 -1.5,-1.547 0.045,-0.963 0.852,-1.701 1.725,-1.701 0.896,0 1.523,0.738 1.502,1.545 -0.024,0.986 -0.829,1.703 -1.727,1.703 z"
           id="path19"
           style="display:inline;fill:#0054a4" />
        <path
           inkscape:connector-curvature="0"
           d="m 216.74,119.365 -0.492,-3.338 -6.004,0 -1.77,3.338 -2.531,0 8.199,-15.123 2.666,0 2.508,15.123 -2.576,0 z m -1.545,-10.035 c -0.135,-0.762 -0.225,-1.547 -0.27,-2.332 l -0.021,0 c -0.314,0.762 -0.695,1.592 -1.143,2.396 l -2.531,4.684 4.748,0 -0.783,-4.748 z"
           id="path21"
           style="display:inline;fill:#0054a4" />
        <path
           inkscape:connector-curvature="0"
           d="m 228.007,110.066 c -0.494,-0.178 -1.053,-0.246 -1.592,-0.246 -1.32,0 -1.992,0.582 -1.992,1.434 0,1.592 3.158,2.152 3.158,4.615 0,1.859 -1.637,3.719 -4.93,3.719 -0.738,0 -1.344,-0.068 -1.902,-0.18 l 0.402,-2.059 c 0.561,0.178 1.164,0.289 1.77,0.289 1.322,0 2.195,-0.514 2.195,-1.523 0,-1.633 -3.137,-1.947 -3.137,-4.615 0,-1.947 1.547,-3.492 4.57,-3.492 0.74,0 1.344,0.066 1.904,0.178 l -0.446,1.88 z"
           id="path23"
           style="display:inline;fill:#0054a4" />
        <path
           inkscape:connector-curvature="0"
           d="m 236.496,110.066 c -0.494,-0.178 -1.053,-0.246 -1.592,-0.246 -1.32,0 -1.992,0.582 -1.992,1.434 0,1.592 3.158,2.152 3.158,4.615 0,1.859 -1.635,3.719 -4.928,3.719 -0.74,0 -1.346,-0.068 -1.904,-0.18 l 0.402,-2.059 c 0.561,0.178 1.166,0.289 1.77,0.289 1.322,0 2.197,-0.514 2.197,-1.523 0,-1.633 -3.137,-1.947 -3.137,-4.615 0,-1.947 1.545,-3.492 4.57,-3.492 0.738,0 1.342,0.066 1.902,0.178 l -0.446,1.88 z"
           id="path25"
           style="display:inline;fill:#0054a4" />
        <path
           inkscape:connector-curvature="0"
           d="m 242.408,119.588 c -2.934,0 -4.211,-1.455 -4.211,-3.986 0,-4.549 2.957,-7.594 6.564,-7.594 3.045,0 4.256,1.68 4.256,4.055 0,4.568 -3.203,7.525 -6.609,7.525 z m 1.994,-9.543 c -2.285,0 -3.74,2.621 -3.74,5.174 0,1.459 0.582,2.309 2.082,2.309 2.105,0 3.787,-2.285 3.787,-5.197 0,-1.477 -0.651,-2.286 -2.129,-2.286 z"
           id="path27"
           style="display:inline;fill:#0054a4" />
        <path
           inkscape:connector-curvature="0"
           d="m 258.535,110.428 c -0.537,-0.248 -1.164,-0.404 -1.904,-0.404 -2.598,0 -3.785,2.91 -3.785,5.242 0,1.143 0.402,2.195 2.15,2.195 0.807,0 1.658,-0.18 2.33,-0.494 l -0.18,2.105 c -0.783,0.27 -1.77,0.494 -2.822,0.494 -2.936,0 -3.988,-1.545 -3.988,-3.764 0,-4.256 2.443,-7.773 6.453,-7.773 0.873,0 1.59,0.113 2.307,0.314 l -0.561,2.085 z"
           id="path29"
           style="display:inline;fill:#0054a4" />
        <path
           inkscape:connector-curvature="0"
           d="m 261.781,119.365 -2.352,0 2.127,-11.133 2.354,0 -2.129,11.133 z m 1.457,-12.791 c -0.852,0 -1.457,-0.672 -1.434,-1.434 0.021,-0.898 0.783,-1.57 1.635,-1.57 0.83,0 1.434,0.65 1.412,1.412 -0.023,0.92 -0.785,1.592 -1.613,1.592 z"
           id="path31"
           style="display:inline;fill:#0054a4" />
        <path
           inkscape:connector-curvature="0"
           d="m 273.921,119.365 -2.33,0 c 0.203,-0.918 0.584,-2.24 1.189,-4.078 l -0.045,-0.021 c -0.854,1.68 -2.465,4.346 -4.975,4.346 -1.635,0 -2.531,-1.076 -2.531,-3.449 0,-4.146 2.174,-8.111 7.057,-8.111 1.299,0 2.553,0.113 3.697,0.336 -1.099,5.669 -1.591,8.221 -2.062,10.977 z m -2.039,-9.453 c -2.979,0 -4.232,3.248 -4.232,5.824 0,1.277 0.381,1.812 1.008,1.812 1.881,0 4.01,-4.1 4.504,-6.631 l 0.154,-0.805 c -0.402,-0.11 -0.873,-0.2 -1.434,-0.2 z"
           id="path33"
           style="display:inline;fill:#0054a4" />
        <path
           inkscape:connector-curvature="0"
           d="m 284.472,110.092 -2.846,0 -1.029,5.463 c -0.291,1.547 -0.068,1.973 0.939,1.973 0.605,0 1.053,-0.066 1.479,-0.156 l -0.178,1.949 c -0.695,0.156 -1.523,0.246 -2.174,0.246 -2.33,0 -2.979,-1.098 -2.465,-3.697 l 1.098,-5.777 -2.105,0 0.381,-1.859 2.084,0 0.672,-3.539 2.441,-0.516 -0.783,4.055 2.867,0 -0.381,1.858 z"
           id="path35"
           style="display:inline;fill:#0054a4" />
        <path
           inkscape:connector-curvature="0"
           d="m 287.808,114.615 c -0.045,0.291 -0.09,0.785 -0.09,1.121 0,1.523 0.561,1.924 2.24,1.924 1.053,0 2.195,-0.244 3.182,-0.646 l 0,1.881 c -1.143,0.426 -2.51,0.693 -3.965,0.693 -2.689,0 -3.854,-1.188 -3.854,-3.697 0,-4.455 2.598,-7.883 6.182,-7.883 2.555,0 3.43,1.297 3.43,2.621 0,2.508 -2.533,3.828 -7.125,3.986 z m 3.428,-4.816 c -1.613,0 -2.688,1.455 -3.137,3.16 3.047,-0.113 4.48,-0.74 4.48,-2.018 10e-4,-0.738 -0.513,-1.142 -1.343,-1.142 z"
           id="path37"
           style="display:inline;fill:#0054a4" />
      </g>
      <g
         id="Supporting">
        <path
           inkscape:connector-curvature="0"
           d="m 112.149,106.585 c -0.741,-0.247 -1.527,-0.358 -2.111,-0.358 -2.133,0 -3.031,1.144 -3.031,2.268 0,2.538 4.513,2.604 4.513,6.22 0,2.875 -2.538,5.1 -6.131,5.1 -0.875,0 -1.864,-0.068 -2.604,-0.294 l 0.449,-2.312 c 0.652,0.269 1.55,0.47 2.336,0.47 2.156,0 3.346,-1.01 3.346,-2.559 0,-2.427 -4.469,-2.448 -4.469,-6.064 0,-2.627 1.977,-4.85 5.749,-4.85 0.808,0 1.527,0.044 2.38,0.201 l -0.427,2.178 z"
           id="path40"
           style="display:inline;fill:#0054a4" />
        <path
           inkscape:connector-curvature="0"
           d="m 116.885,119.768 c -0.494,0 -0.92,-0.046 -1.415,-0.112 l -1.011,5.412 -2.358,0 2.156,-11.296 c 0.382,-2.065 0.742,-3.907 0.966,-5.345 l 2.335,0 c -0.18,0.921 -0.472,1.932 -1.146,4.043 l 0.045,0.021 c 1.123,-2.448 2.808,-4.312 4.94,-4.312 1.662,0 2.561,1.078 2.561,3.459 0.001,4.154 -2.177,8.13 -7.073,8.13 z m 3.638,-9.523 c -1.886,0 -4.086,4.088 -4.513,6.602 l -0.135,0.788 c 0.404,0.157 1.01,0.247 1.437,0.247 2.963,0 4.221,-3.235 4.221,-5.817 0.001,-1.28 -0.381,-1.82 -1.01,-1.82 z"
           id="path42"
           style="display:inline;fill:#0054a4" />
        <path
           inkscape:connector-curvature="0"
           d="m 129.302,119.813 c -2.942,0 -4.222,-1.462 -4.222,-3.999 0,-4.559 2.964,-7.613 6.58,-7.613 3.054,0 4.267,1.685 4.267,4.064 0,4.582 -3.212,7.548 -6.625,7.548 z m 1.998,-9.568 c -2.291,0 -3.75,2.627 -3.75,5.188 0,1.459 0.583,2.312 2.088,2.312 2.111,0 3.795,-2.291 3.795,-5.211 0.001,-1.48 -0.651,-2.289 -2.133,-2.289 z"
           id="path44"
           style="display:inline;fill:#0054a4" />
        <path
           inkscape:connector-curvature="0"
           d="m 146.165,119.588 -2.358,0 1.372,-7.074 c 0.313,-1.595 0.022,-2.269 -0.853,-2.269 -1.798,0 -3.999,3.998 -4.493,6.693 l -0.494,2.649 -2.358,0 1.123,-5.839 c 0.359,-1.863 0.719,-3.817 0.965,-5.322 l 2.336,0 c -0.136,0.696 -0.427,1.886 -1.145,3.975 l 0.044,0.022 c 1.057,-2.201 2.717,-4.244 4.964,-4.244 2.111,0 2.785,1.505 2.358,3.773 l -1.461,7.636 z"
           id="path46"
           style="display:inline;fill:#0054a4" />
        <path
           inkscape:connector-curvature="0"
           d="m 156.202,110.269 c -0.494,-0.179 -1.055,-0.247 -1.595,-0.247 -1.323,0 -1.997,0.584 -1.997,1.438 0,1.595 3.165,2.154 3.165,4.624 0,1.864 -1.639,3.73 -4.939,3.73 -0.741,0 -1.348,-0.068 -1.91,-0.182 l 0.405,-2.065 c 0.562,0.18 1.168,0.291 1.773,0.291 1.326,0 2.201,-0.517 2.201,-1.526 0,-1.639 -3.144,-1.954 -3.144,-4.625 0,-1.954 1.549,-3.505 4.581,-3.505 0.741,0 1.348,0.068 1.909,0.18 l -0.449,1.887 z"
           id="path48"
           style="display:inline;fill:#0054a4" />
        <path
           inkscape:connector-curvature="0"
           d="m 161.905,119.813 c -2.942,0 -4.222,-1.462 -4.222,-3.999 0,-4.559 2.964,-7.613 6.58,-7.613 3.054,0 4.268,1.685 4.268,4.064 0,4.582 -3.212,7.548 -6.626,7.548 z m 1.999,-9.568 c -2.29,0 -3.751,2.627 -3.751,5.188 0,1.459 0.584,2.312 2.089,2.312 2.11,0 3.795,-2.291 3.795,-5.211 0,-1.48 -0.652,-2.289 -2.133,-2.289 z"
           id="path50"
           style="display:inline;fill:#0054a4" />
        <path
           inkscape:connector-curvature="0"
           d="m 177.016,110.516 c -1.863,-0.54 -3.952,3.188 -4.604,6.603 l -0.471,2.47 -2.357,0 1.122,-5.839 c 0.291,-1.572 0.674,-3.659 0.965,-5.322 l 2.292,0 c -0.157,0.921 -0.45,2.021 -1.057,3.771 l 0.046,0.024 c 1.234,-2.562 2.514,-4.357 4.56,-4.021 l -0.496,2.314 z"
           id="path52"
           style="display:inline;fill:#0054a4" />
        <path
           inkscape:connector-curvature="0"
           d="m 184.019,114.76 c -0.896,0 -1.526,-0.72 -1.503,-1.551 0.044,-0.965 0.854,-1.706 1.729,-1.706 0.898,0 1.526,0.741 1.505,1.551 -0.023,0.986 -0.832,1.706 -1.731,1.706 z"
           id="path54"
           style="display:inline;fill:#0054a4" />
        <path
           inkscape:connector-curvature="0"
           d="m 200.883,106.585 c -0.739,-0.247 -1.527,-0.358 -2.111,-0.358 -2.133,0 -3.031,1.144 -3.031,2.268 0,2.538 4.515,2.604 4.515,6.22 0,2.875 -2.538,5.1 -6.132,5.1 -0.875,0 -1.863,-0.068 -2.604,-0.294 l 0.449,-2.312 c 0.651,0.269 1.549,0.47 2.334,0.47 2.156,0 3.347,-1.01 3.347,-2.559 0,-2.427 -4.469,-2.448 -4.469,-6.064 0,-2.627 1.978,-4.85 5.749,-4.85 0.809,0 1.526,0.044 2.38,0.201 l -0.427,2.178 z"
           id="path56"
           style="display:inline;fill:#0054a4" />
        <path
           inkscape:connector-curvature="0"
           d="m 212.064,114.266 c -0.358,1.886 -0.718,3.863 -0.986,5.322 l -2.314,0 c 0.136,-0.695 0.427,-1.886 1.124,-3.975 l -0.046,-0.022 c -1.032,2.201 -2.695,4.244 -4.939,4.244 -2.111,0 -2.785,-1.505 -2.358,-3.773 l 1.459,-7.635 2.337,0 -1.348,7.074 c -0.315,1.593 -0.024,2.267 0.854,2.267 1.796,0 3.996,-3.996 4.49,-6.691 l 0.495,-2.649 2.357,0 -1.125,5.838 z"
           id="path58"
           style="display:inline;fill:#0054a4" />
        <path
           inkscape:connector-curvature="0"
           d="m 217.993,119.768 c -0.494,0 -0.921,-0.046 -1.416,-0.112 l -1.01,5.412 -2.358,0 2.156,-11.296 c 0.381,-2.065 0.74,-3.907 0.965,-5.345 l 2.337,0 c -0.182,0.921 -0.473,1.932 -1.146,4.043 l 0.046,0.021 c 1.122,-2.448 2.807,-4.312 4.939,-4.312 1.662,0 2.56,1.078 2.56,3.459 -0.001,4.154 -2.178,8.13 -7.073,8.13 z m 3.637,-9.523 c -1.888,0 -4.089,4.088 -4.515,6.602 l -0.134,0.788 c 0.402,0.157 1.011,0.247 1.438,0.247 2.964,0 4.222,-3.235 4.222,-5.817 0,-1.28 -0.383,-1.82 -1.011,-1.82 z"
           id="path60"
           style="display:inline;fill:#0054a4" />
        <path
           inkscape:connector-curvature="0"
           d="m 229.893,119.768 c -0.494,0 -0.921,-0.046 -1.415,-0.112 l -1.011,5.412 -2.358,0 2.157,-11.296 c 0.38,-2.065 0.739,-3.907 0.964,-5.345 l 2.337,0 c -0.182,0.921 -0.473,1.932 -1.146,4.043 l 0.046,0.021 c 1.122,-2.448 2.807,-4.312 4.939,-4.312 1.663,0 2.56,1.078 2.56,3.459 -0.001,4.154 -2.177,8.13 -7.073,8.13 z m 3.638,-9.523 c -1.888,0 -4.088,4.088 -4.515,6.602 l -0.134,0.788 c 0.402,0.157 1.011,0.247 1.438,0.247 2.964,0 4.222,-3.235 4.222,-5.817 0,-1.28 -0.383,-1.82 -1.011,-1.82 z"
           id="path62"
           style="display:inline;fill:#0054a4" />
        <path
           inkscape:connector-curvature="0"
           d="m 242.308,119.813 c -2.942,0 -4.223,-1.462 -4.223,-3.999 0,-4.559 2.965,-7.613 6.58,-7.613 3.054,0 4.269,1.685 4.269,4.064 0,4.582 -3.212,7.548 -6.626,7.548 z m 1.999,-9.568 c -2.29,0 -3.752,2.627 -3.752,5.188 0,1.459 0.584,2.312 2.09,2.312 2.11,0 3.795,-2.291 3.795,-5.211 0,-1.48 -0.651,-2.289 -2.133,-2.289 z"
           id="path64"
           style="display:inline;fill:#0054a4" />
        <path
           inkscape:connector-curvature="0"
           d="m 257.419,110.516 c -1.863,-0.54 -3.953,3.188 -4.603,6.603 l -0.473,2.47 -2.358,0 1.125,-5.839 c 0.291,-1.572 0.671,-3.659 0.965,-5.322 l 2.29,0 c -0.157,0.921 -0.448,2.021 -1.055,3.771 l 0.044,0.024 c 1.236,-2.562 2.516,-4.357 4.559,-4.021 l -0.494,2.314 z"
           id="path66"
           style="display:inline;fill:#0054a4" />
        <path
           inkscape:connector-curvature="0"
           d="m 265.433,110.291 -2.853,0 -1.033,5.479 c -0.293,1.549 -0.067,1.976 0.943,1.976 0.605,0 1.055,-0.068 1.481,-0.157 l -0.18,1.953 c -0.696,0.157 -1.527,0.247 -2.177,0.247 -2.336,0 -2.988,-1.101 -2.472,-3.706 l 1.101,-5.792 -2.111,0 0.383,-1.864 2.089,0 0.674,-3.548 2.445,-0.517 -0.785,4.064 2.875,0 -0.38,1.865 z"
           id="path68"
           style="display:inline;fill:#0054a4" />
        <path
           inkscape:connector-curvature="0"
           d="m 268.351,119.588 -2.358,0 2.133,-11.161 2.358,0 -2.133,11.161 z m 1.459,-12.823 c -0.853,0 -1.459,-0.674 -1.437,-1.438 0.021,-0.897 0.785,-1.571 1.639,-1.571 0.831,0 1.437,0.65 1.415,1.414 -0.022,0.921 -0.785,1.595 -1.617,1.595 z"
           id="path70"
           style="display:inline;fill:#0054a4" />
        <path
           inkscape:connector-curvature="0"
           d="m 280.746,119.588 -2.357,0 1.369,-7.074 c 0.315,-1.595 0.021,-2.269 -0.854,-2.269 -1.796,0 -3.996,3.998 -4.491,6.693 l -0.494,2.649 -2.357,0 1.124,-5.839 c 0.358,-1.863 0.718,-3.817 0.965,-5.322 l 2.336,0 c -0.136,0.696 -0.427,1.886 -1.146,3.975 l 0.046,0.022 c 1.055,-2.201 2.717,-4.244 4.962,-4.244 2.111,0 2.784,1.505 2.358,3.773 l -1.461,7.636 z"
           id="path72"
           style="display:inline;fill:#0054a4" />
        <path
           inkscape:connector-curvature="0"
           d="m 292.443,120.463 c -0.538,2.853 -2.336,4.806 -6.647,4.806 -1.258,0 -2.269,-0.179 -3.122,-0.448 l 0.562,-2.269 c 0.875,0.427 1.999,0.652 3.01,0.652 2.223,0 3.524,-0.854 3.975,-3.146 0.291,-1.527 0.561,-2.381 1.256,-4.491 l -0.044,0 c -0.809,1.595 -2.426,4.268 -4.939,4.268 -1.641,0 -2.537,-1.078 -2.537,-3.458 0,-4.154 2.2,-8.13 7.072,-8.13 1.304,0 2.56,0.112 3.706,0.337 l -2.292,11.879 z m -1.819,-10.352 c -2.986,0 -4.244,3.255 -4.244,5.839 0,1.279 0.383,1.817 1.011,1.817 1.886,0 4.021,-4.108 4.515,-6.646 l 0.155,-0.81 c -0.403,-0.11 -0.876,-0.2 -1.437,-0.2 z"
           id="path74"
           style="display:inline;fill:#0054a4" />
      </g>
      <g
         id="Sustaining">
        <path
           inkscape:connector-curvature="0"
           d="m 114.405,106.354 c -0.741,-0.246 -1.525,-0.357 -2.108,-0.357 -2.131,0 -3.028,1.143 -3.028,2.265 0,2.535 4.507,2.601 4.507,6.212 0,2.871 -2.535,5.093 -6.122,5.093 -0.875,0 -1.861,-0.068 -2.602,-0.293 l 0.448,-2.31 c 0.651,0.27 1.549,0.47 2.333,0.47 2.153,0 3.342,-1.009 3.342,-2.556 0,-2.423 -4.462,-2.445 -4.462,-6.057 0,-2.624 1.973,-4.844 5.741,-4.844 0.807,0 1.525,0.044 2.377,0.201 l -0.426,2.176 z"
           id="path77"
           style="display:inline;fill:#0054a4" />
        <path
           inkscape:connector-curvature="0"
           d="m 119.359,119.521 c -0.493,0 -0.918,-0.046 -1.412,-0.111 l -1.01,5.405 -2.355,0 2.153,-11.282 c 0.381,-2.062 0.739,-3.902 0.964,-5.338 l 2.333,0 c -0.179,0.92 -0.471,1.93 -1.144,4.038 l 0.045,0.021 c 1.122,-2.445 2.804,-4.307 4.934,-4.307 1.661,0 2.557,1.077 2.557,3.454 0,4.15 -2.174,8.12 -7.065,8.12 z m 3.634,-9.511 c -1.885,0 -4.083,4.084 -4.509,6.594 l -0.133,0.787 c 0.403,0.157 1.008,0.246 1.436,0.246 2.96,0 4.217,-3.23 4.217,-5.809 -0.001,-1.278 -0.383,-1.818 -1.011,-1.818 z"
           id="path79"
           style="display:inline;fill:#0054a4" />
        <path
           inkscape:connector-curvature="0"
           d="m 131.984,119.566 c -2.938,0 -4.216,-1.459 -4.216,-3.994 0,-4.553 2.96,-7.603 6.572,-7.603 3.05,0 4.262,1.682 4.262,4.06 0,4.575 -3.207,7.537 -6.618,7.537 z m 1.997,-9.556 c -2.288,0 -3.747,2.624 -3.747,5.183 0,1.457 0.583,2.31 2.086,2.31 2.108,0 3.791,-2.288 3.791,-5.204 0,-1.481 -0.651,-2.289 -2.13,-2.289 z"
           id="path81"
           style="display:inline;fill:#0054a4" />
        <path
           inkscape:connector-curvature="0"
           d="m 149.05,119.341 -2.356,0 1.37,-7.065 c 0.313,-1.593 0.022,-2.266 -0.852,-2.266 -1.795,0 -3.994,3.994 -4.487,6.686 l -0.492,2.646 -2.355,0 1.121,-5.831 c 0.358,-1.861 0.719,-3.812 0.964,-5.315 l 2.333,0 c -0.135,0.695 -0.426,1.884 -1.143,3.97 l 0.043,0.022 c 1.055,-2.198 2.714,-4.239 4.958,-4.239 2.107,0 2.781,1.504 2.355,3.77 l -1.459,7.622 z"
           id="path83"
           style="display:inline;fill:#0054a4" />
        <path
           inkscape:connector-curvature="0"
           d="m 159.298,110.034 c -0.494,-0.18 -1.055,-0.247 -1.592,-0.247 -1.324,0 -1.998,0.583 -1.998,1.436 0,1.593 3.164,2.152 3.164,4.619 0,1.861 -1.639,3.725 -4.936,3.725 -0.738,0 -1.346,-0.068 -1.904,-0.182 l 0.4,-2.062 c 0.562,0.18 1.168,0.291 1.773,0.291 1.324,0 2.197,-0.516 2.197,-1.525 0,-1.636 -3.139,-1.951 -3.139,-4.618 0,-1.951 1.549,-3.5 4.574,-3.5 0.74,0 1.346,0.067 1.906,0.179 l -0.445,1.884 z"
           id="path85"
           style="display:inline;fill:#0054a4" />
        <path
           inkscape:connector-curvature="0"
           d="m 165.216,119.566 c -2.938,0 -4.215,-1.459 -4.215,-3.994 0,-4.553 2.959,-7.603 6.57,-7.603 3.051,0 4.264,1.682 4.264,4.06 0,4.575 -3.207,7.537 -6.619,7.537 z m 1.998,-9.556 c -2.287,0 -3.746,2.624 -3.746,5.183 0,1.457 0.582,2.31 2.086,2.31 2.107,0 3.791,-2.288 3.791,-5.204 0,-1.481 -0.652,-2.289 -2.131,-2.289 z"
           id="path87"
           style="display:inline;fill:#0054a4" />
        <path
           inkscape:connector-curvature="0"
           d="m 180.535,110.281 c -1.861,-0.54 -3.947,3.183 -4.6,6.594 l -0.469,2.466 -2.355,0 1.121,-5.831 c 0.291,-1.57 0.672,-3.655 0.963,-5.315 l 2.291,0 c -0.158,0.92 -0.451,2.019 -1.057,3.767 l 0.047,0.024 c 1.232,-2.559 2.51,-4.353 4.553,-4.016 l -0.494,2.311 z"
           id="path89"
           style="display:inline;fill:#0054a4" />
        <path
           inkscape:connector-curvature="0"
           d="m 187.976,114.52 c -0.895,0 -1.523,-0.719 -1.5,-1.549 0.043,-0.964 0.852,-1.704 1.725,-1.704 0.898,0 1.525,0.74 1.504,1.549 -0.022,0.985 -0.83,1.704 -1.729,1.704 z"
           id="path91"
           style="display:inline;fill:#0054a4" />
        <path
           inkscape:connector-curvature="0"
           d="m 205.267,106.354 c -0.738,-0.246 -1.525,-0.357 -2.107,-0.357 -2.131,0 -3.029,1.143 -3.029,2.265 0,2.535 4.51,2.601 4.51,6.212 0,2.871 -2.535,5.093 -6.123,5.093 -0.875,0 -1.863,-0.068 -2.602,-0.293 l 0.449,-2.31 c 0.65,0.27 1.547,0.47 2.33,0.47 2.154,0 3.344,-1.009 3.344,-2.556 0,-2.423 -4.465,-2.445 -4.465,-6.057 0,-2.624 1.977,-4.844 5.742,-4.844 0.809,0 1.525,0.044 2.377,0.201 l -0.426,2.176 z"
           id="path93"
           style="display:inline;fill:#0054a4" />
        <path
           inkscape:connector-curvature="0"
           d="m 216.66,114.025 c -0.359,1.884 -0.717,3.858 -0.986,5.315 l -2.311,0 c 0.135,-0.694 0.426,-1.883 1.121,-3.97 l -0.045,-0.021 c -1.031,2.198 -2.691,4.238 -4.934,4.238 -2.107,0 -2.781,-1.503 -2.355,-3.769 l 1.457,-7.625 2.334,0 -1.346,7.065 c -0.314,1.591 -0.023,2.264 0.852,2.264 1.795,0 3.992,-3.991 4.486,-6.684 l 0.494,-2.646 2.354,0 -1.121,5.833 z"
           id="path95"
           style="display:inline;fill:#0054a4" />
        <path
           inkscape:connector-curvature="0"
           d="m 225.898,110.034 c -0.494,-0.18 -1.055,-0.247 -1.592,-0.247 -1.324,0 -1.998,0.583 -1.998,1.436 0,1.593 3.164,2.152 3.164,4.619 0,1.861 -1.639,3.725 -4.936,3.725 -0.738,0 -1.346,-0.068 -1.904,-0.182 l 0.402,-2.062 c 0.561,0.18 1.166,0.291 1.771,0.291 1.324,0 2.197,-0.516 2.197,-1.525 0,-1.636 -3.139,-1.951 -3.139,-4.618 0,-1.951 1.549,-3.5 4.574,-3.5 0.74,0 1.346,0.067 1.908,0.179 l -0.447,1.884 z"
           id="path97"
           style="display:inline;fill:#0054a4" />
        <path
           inkscape:connector-curvature="0"
           d="m 234.98,110.056 -2.848,0 -1.031,5.473 c -0.293,1.548 -0.068,1.974 0.941,1.974 0.605,0 1.053,-0.068 1.479,-0.157 l -0.18,1.951 c -0.693,0.157 -1.523,0.246 -2.174,0.246 -2.332,0 -2.984,-1.099 -2.469,-3.7 l 1.1,-5.786 -2.107,0 0.381,-1.861 2.088,0 0.672,-3.544 2.443,-0.516 -0.785,4.06 2.871,0 -0.381,1.86 z"
           id="path99"
           style="display:inline;fill:#0054a4" />
        <path
           inkscape:connector-curvature="0"
           d="m 244.49,119.341 -2.334,0 c 0.203,-0.919 0.584,-2.243 1.189,-4.081 l -0.045,-0.023 c -0.852,1.682 -2.467,4.352 -4.979,4.352 -1.637,0 -2.535,-1.077 -2.535,-3.454 0,-4.148 2.176,-8.118 7.066,-8.118 1.299,0 2.555,0.111 3.701,0.336 -1.1,5.672 -1.593,8.229 -2.063,10.988 z m -2.041,-9.464 c -2.982,0 -4.238,3.251 -4.238,5.831 0,1.278 0.379,1.815 1.008,1.815 1.885,0 4.014,-4.103 4.508,-6.638 l 0.158,-0.808 c -0.405,-0.11 -0.876,-0.2 -1.436,-0.2 z"
           id="path101"
           style="display:inline;fill:#0054a4" />
        <path
           inkscape:connector-curvature="0"
           d="m 250.228,119.341 -2.355,0 2.131,-11.146 2.355,0 -2.131,11.146 z m 1.457,-12.807 c -0.852,0 -1.457,-0.673 -1.436,-1.436 0.025,-0.896 0.787,-1.568 1.639,-1.568 0.83,0 1.436,0.648 1.414,1.411 -0.023,0.92 -0.787,1.593 -1.617,1.593 z"
           id="path103"
           style="display:inline;fill:#0054a4" />
        <path
           inkscape:connector-curvature="0"
           d="m 262.833,119.341 -2.355,0 1.367,-7.065 c 0.314,-1.593 0.021,-2.266 -0.852,-2.266 -1.795,0 -3.992,3.994 -4.486,6.686 l -0.494,2.646 -2.354,0 1.121,-5.831 c 0.359,-1.861 0.717,-3.812 0.965,-5.315 l 2.332,0 c -0.135,0.695 -0.426,1.884 -1.145,3.97 l 0.047,0.022 c 1.053,-2.198 2.713,-4.239 4.955,-4.239 2.107,0 2.781,1.504 2.355,3.77 l -1.456,7.622 z"
           id="path105"
           style="display:inline;fill:#0054a4" />
        <path
           inkscape:connector-curvature="0"
           d="m 268.593,119.341 -2.354,0 2.129,-11.146 2.355,0 -2.13,11.146 z m 1.459,-12.807 c -0.854,0 -1.459,-0.673 -1.436,-1.436 0.023,-0.896 0.785,-1.568 1.639,-1.568 0.83,0 1.434,0.648 1.412,1.411 -0.023,0.92 -0.785,1.593 -1.615,1.593 z"
           id="path107"
           style="display:inline;fill:#0054a4" />
        <path
           inkscape:connector-curvature="0"
           d="m 281.199,119.341 -2.355,0 1.367,-7.065 c 0.314,-1.593 0.021,-2.266 -0.852,-2.266 -1.795,0 -3.992,3.994 -4.486,6.686 l -0.492,2.646 -2.355,0 1.123,-5.831 c 0.357,-1.861 0.717,-3.812 0.963,-5.315 l 2.334,0 c -0.137,0.695 -0.428,1.884 -1.146,3.97 l 0.047,0.022 c 1.053,-2.198 2.713,-4.239 4.955,-4.239 2.107,0 2.781,1.504 2.355,3.77 l -1.458,7.622 z"
           id="path109"
           style="display:inline;fill:#0054a4" />
        <path
           inkscape:connector-curvature="0"
           d="m 293.105,120.215 c -0.537,2.85 -2.332,4.801 -6.639,4.801 -1.256,0 -2.266,-0.18 -3.117,-0.448 l 0.561,-2.266 c 0.873,0.426 1.996,0.651 3.006,0.651 2.221,0 3.52,-0.853 3.971,-3.142 0.291,-1.525 0.559,-2.378 1.254,-4.485 l -0.045,0 c -0.807,1.592 -2.422,4.262 -4.932,4.262 -1.639,0 -2.535,-1.077 -2.535,-3.454 0,-4.148 2.197,-8.118 7.064,-8.118 1.301,0 2.555,0.111 3.699,0.336 l -2.287,11.863 z m -1.816,-10.338 c -2.982,0 -4.24,3.251 -4.24,5.831 0,1.278 0.383,1.815 1.01,1.815 1.885,0 4.016,-4.103 4.51,-6.638 l 0.156,-0.808 c -0.403,-0.11 -0.876,-0.2 -1.436,-0.2 z"
           id="path111"
           style="display:inline;fill:#0054a4" />
      </g>
      <g
         id="Incubation">
        <path
           inkscape:connector-curvature="0"
           d="m 105.248,114.293 c -0.313,0 -0.761,-0.021 -1.141,-0.067 l -1.053,5.597 -2.372,0 2.865,-15.109 c 1.165,-0.045 2.418,-0.09 3.828,-0.09 2.955,0 4.61,1.388 4.61,3.738 0,3.402 -3.088,5.931 -6.737,5.931 z m 1.702,-7.678 c -0.605,0 -0.984,0 -1.388,0.045 l -1.052,5.508 c 0.313,0.066 0.649,0.089 1.03,0.089 2.126,0 3.939,-1.545 3.939,-3.56 0,-1.254 -0.671,-2.082 -2.529,-2.082 z"
           id="path114"
           style="display:inline;fill:#0054a4" />
        <path
           inkscape:connector-curvature="0"
           d="m 119.617,110.778 c -1.857,-0.536 -3.94,3.179 -4.59,6.581 l -0.469,2.463 -2.351,0 1.119,-5.82 c 0.291,-1.566 0.672,-3.648 0.963,-5.305 l 2.283,0 c -0.156,0.917 -0.448,2.015 -1.052,3.76 l 0.044,0.022 c 1.231,-2.552 2.506,-4.342 4.545,-4.006 l -0.492,2.305 z"
           id="path116"
           style="display:inline;fill:#0054a4" />
        <path
           inkscape:connector-curvature="0"
           d="m 124.021,120.045 c -2.933,0 -4.208,-1.454 -4.208,-3.983 0,-4.544 2.955,-7.588 6.559,-7.588 3.044,0 4.254,1.679 4.254,4.052 -0.001,4.565 -3.202,7.519 -6.605,7.519 z m 1.992,-9.535 c -2.283,0 -3.739,2.619 -3.739,5.17 0,1.457 0.582,2.307 2.083,2.307 2.104,0 3.783,-2.282 3.783,-5.193 -10e-4,-1.478 -0.65,-2.284 -2.127,-2.284 z"
           id="path118"
           style="display:inline;fill:#0054a4" />
        <path
           inkscape:connector-curvature="0"
           d="m 134.114,121.008 c -0.561,2.865 -1.858,4.455 -4.812,4.455 -0.537,0 -1.053,-0.09 -1.479,-0.201 l 0.493,-2.061 c 0.403,0.158 0.874,0.247 1.231,0.247 1.365,0 1.88,-0.716 2.283,-2.799 l 2.305,-11.952 2.329,0 -2.35,12.311 z m 1.633,-13.967 c -0.826,0 -1.432,-0.672 -1.409,-1.433 0.022,-0.896 0.783,-1.567 1.633,-1.567 0.829,0 1.433,0.649 1.411,1.41 -0.021,0.918 -0.782,1.59 -1.635,1.59 z"
           id="path120"
           style="display:inline;fill:#0054a4" />
        <path
           inkscape:connector-curvature="0"
           d="m 140.292,115.076 c -0.046,0.292 -0.091,0.783 -0.091,1.119 0,1.522 0.56,1.925 2.239,1.925 1.053,0 2.193,-0.245 3.179,-0.649 l 0,1.881 c -1.142,0.426 -2.507,0.693 -3.962,0.693 -2.686,0 -3.851,-1.186 -3.851,-3.693 0,-4.453 2.597,-7.878 6.177,-7.878 2.553,0 3.426,1.298 3.426,2.618 0,2.508 -2.53,3.827 -7.117,3.984 z m 3.423,-4.812 c -1.611,0 -2.687,1.455 -3.133,3.156 3.044,-0.112 4.477,-0.738 4.477,-2.014 -0.001,-0.739 -0.516,-1.142 -1.344,-1.142 z"
           id="path122"
           style="display:inline;fill:#0054a4" />
        <path
           inkscape:connector-curvature="0"
           d="m 156.72,110.891 c -0.537,-0.246 -1.166,-0.402 -1.904,-0.402 -2.596,0 -3.781,2.909 -3.781,5.238 0,1.141 0.402,2.193 2.148,2.193 0.807,0 1.656,-0.18 2.328,-0.493 l -0.18,2.104 c -0.783,0.268 -1.768,0.492 -2.82,0.492 -2.934,0 -3.984,-1.545 -3.984,-3.762 0,-4.252 2.439,-7.766 6.445,-7.766 0.875,0 1.59,0.111 2.307,0.313 l -0.559,2.083 z"
           id="path124"
           style="display:inline;fill:#0054a4" />
        <path
           inkscape:connector-curvature="0"
           d="m 165.242,110.555 -2.844,0 -1.029,5.461 c -0.291,1.547 -0.068,1.971 0.939,1.971 0.605,0 1.051,-0.066 1.477,-0.156 l -0.178,1.947 c -0.693,0.156 -1.523,0.246 -2.17,0.246 -2.33,0 -2.979,-1.097 -2.465,-3.693 l 1.098,-5.775 -2.105,0 0.383,-1.857 2.082,0 0.672,-3.537 2.438,-0.514 -0.783,4.051 2.865,0 -0.38,1.856 z"
           id="path126"
           style="display:inline;fill:#0054a4" />
        <path
           inkscape:connector-curvature="0"
           d="m 173.585,119.822 -2.352,0 2.127,-11.125 2.35,0 -2.125,11.125 z m 1.454,-12.781 c -0.85,0 -1.453,-0.672 -1.432,-1.433 0.023,-0.896 0.785,-1.567 1.635,-1.567 0.828,0 1.432,0.649 1.41,1.41 -0.024,0.918 -0.785,1.59 -1.613,1.59 z"
           id="path128"
           style="display:inline;fill:#0054a4" />
        <path
           inkscape:connector-curvature="0"
           d="m 186.164,119.822 -2.35,0 1.367,-7.051 c 0.311,-1.59 0.021,-2.262 -0.852,-2.262 -1.793,0 -3.986,3.984 -4.479,6.67 l -0.49,2.643 -2.352,0 1.119,-5.82 c 0.357,-1.857 0.717,-3.806 0.961,-5.305 l 2.33,0 c -0.135,0.694 -0.426,1.881 -1.141,3.962 l 0.043,0.022 c 1.053,-2.193 2.709,-4.23 4.947,-4.23 2.105,0 2.775,1.498 2.352,3.76 l -1.455,7.611 z"
           id="path130"
           style="display:inline;fill:#0054a4" />
        <path
           inkscape:connector-curvature="0"
           d="m 196.859,119.822 -2.395,0 2.865,-15.109 2.395,0 -2.865,15.109 z"
           id="path132"
           style="display:inline;fill:#0054a4" />
        <path
           inkscape:connector-curvature="0"
           d="m 209.417,119.822 -2.352,0 1.365,-7.051 c 0.314,-1.59 0.021,-2.262 -0.85,-2.262 -1.791,0 -3.984,3.984 -4.477,6.67 l -0.494,2.643 -2.35,0 1.121,-5.82 c 0.357,-1.857 0.715,-3.806 0.961,-5.305 l 2.328,0 c -0.135,0.694 -0.424,1.881 -1.143,3.962 l 0.047,0.022 c 1.051,-2.193 2.707,-4.23 4.945,-4.23 2.104,0 2.775,1.498 2.35,3.76 l -1.451,7.611 z"
           id="path134"
           style="display:inline;fill:#0054a4" />
        <path
           inkscape:connector-curvature="0"
           d="m 221.054,110.891 c -0.537,-0.246 -1.164,-0.402 -1.904,-0.402 -2.594,0 -3.779,2.909 -3.779,5.238 0,1.141 0.4,2.193 2.146,2.193 0.807,0 1.658,-0.18 2.33,-0.493 l -0.18,2.104 c -0.785,0.268 -1.768,0.492 -2.822,0.492 -2.932,0 -3.982,-1.545 -3.982,-3.762 0,-4.252 2.439,-7.766 6.445,-7.766 0.873,0 1.59,0.111 2.307,0.313 l -0.561,2.083 z"
           id="path136"
           style="display:inline;fill:#0054a4" />
        <path
           inkscape:connector-curvature="0"
           d="m 232.111,114.517 c -0.357,1.881 -0.717,3.851 -0.984,5.306 l -2.305,0 c 0.133,-0.695 0.424,-1.881 1.117,-3.963 l -0.043,-0.022 c -1.031,2.194 -2.686,4.231 -4.926,4.231 -2.104,0 -2.775,-1.499 -2.35,-3.76 l 1.453,-7.611 2.33,0 -1.344,7.051 c -0.314,1.59 -0.021,2.261 0.85,2.261 1.793,0 3.986,-3.983 4.477,-6.67 l 0.494,-2.642 2.35,0 -1.119,5.819 z"
           id="path138"
           style="display:inline;fill:#0054a4" />
        <path
           inkscape:connector-curvature="0"
           d="m 238.244,120.002 c -1.389,0 -2.598,-0.135 -3.693,-0.382 l 3.088,-16.139 2.328,0 -0.963,5.104 c -0.178,0.918 -0.471,1.903 -1.23,4.163 l 0.045,0.023 c 1.119,-2.463 2.797,-4.32 4.924,-4.32 1.656,0 2.551,1.074 2.551,3.447 -0.002,4.141 -2.171,8.104 -7.05,8.104 z m 3.625,-9.492 c -1.881,0 -4.029,4.097 -4.5,6.581 l -0.156,0.851 c 0.426,0.112 0.873,0.201 1.432,0.201 2.979,0 4.232,-3.245 4.232,-5.819 -0.001,-1.277 -0.381,-1.814 -1.008,-1.814 z"
           id="path140"
           style="display:inline;fill:#0054a4" />
        <path
           inkscape:connector-curvature="0"
           d="m 255.296,119.822 -2.328,0 c 0.203,-0.918 0.582,-2.238 1.188,-4.074 l -0.045,-0.021 c -0.85,1.678 -2.461,4.342 -4.969,4.342 -1.633,0 -2.529,-1.074 -2.529,-3.447 0,-4.142 2.172,-8.104 7.051,-8.104 1.297,0 2.551,0.113 3.693,0.336 -1.098,5.663 -1.59,8.214 -2.061,10.968 z m -2.035,-9.446 c -2.977,0 -4.23,3.245 -4.23,5.819 0,1.275 0.379,1.813 1.008,1.813 1.879,0 4.004,-4.097 4.498,-6.626 l 0.156,-0.805 c -0.402,-0.112 -0.873,-0.201 -1.432,-0.201 z"
           id="path142"
           style="display:inline;fill:#0054a4" />
        <path
           inkscape:connector-curvature="0"
           d="m 265.837,110.555 -2.844,0 -1.029,5.461 c -0.289,1.547 -0.066,1.971 0.941,1.971 0.605,0 1.053,-0.066 1.479,-0.156 l -0.18,1.947 c -0.693,0.156 -1.521,0.246 -2.172,0.246 -2.328,0 -2.977,-1.097 -2.461,-3.693 l 1.096,-5.775 -2.104,0 0.379,-1.857 2.082,0 0.672,-3.537 2.439,-0.514 -0.781,4.051 2.865,0 -0.382,1.856 z"
           id="path144"
           style="display:inline;fill:#0054a4" />
        <path
           inkscape:connector-curvature="0"
           d="m 268.97,119.822 -2.35,0 2.127,-11.125 2.35,0 -2.127,11.125 z m 1.455,-12.781 c -0.85,0 -1.455,-0.672 -1.432,-1.433 0.021,-0.896 0.781,-1.567 1.633,-1.567 0.828,0 1.432,0.649 1.41,1.41 -0.021,0.918 -0.783,1.59 -1.611,1.59 z"
           id="path146"
           style="display:inline;fill:#0054a4" />
        <path
           inkscape:connector-curvature="0"
           d="m 276.646,120.045 c -2.932,0 -4.207,-1.454 -4.207,-3.983 0,-4.544 2.953,-7.588 6.559,-7.588 3.043,0 4.254,1.679 4.254,4.052 -0.001,4.565 -3.202,7.519 -6.606,7.519 z m 1.994,-9.535 c -2.283,0 -3.74,2.619 -3.74,5.17 0,1.457 0.582,2.307 2.082,2.307 2.105,0 3.783,-2.282 3.783,-5.193 0,-1.478 -0.648,-2.284 -2.125,-2.284 z"
           id="path148"
           style="display:inline;fill:#0054a4" />
        <path
           inkscape:connector-curvature="0"
           d="m 293.679,119.822 -2.352,0 1.367,-7.051 c 0.312,-1.59 0.021,-2.262 -0.85,-2.262 -1.793,0 -3.986,3.984 -4.479,6.67 l -0.492,2.643 -2.35,0 1.119,-5.82 c 0.357,-1.857 0.717,-3.806 0.961,-5.305 l 2.328,0 c -0.135,0.694 -0.424,1.881 -1.141,3.962 l 0.045,0.022 c 1.053,-2.193 2.707,-4.23 4.947,-4.23 2.104,0 2.775,1.498 2.35,3.76 l -1.453,7.611 z"
           id="path150"
           style="display:inline;fill:#0054a4" />
      </g>
      <g
         id="Project"
         style="display:inline">
        <path
           inkscape:connector-curvature="0"
           d="m 236.4,114.176 c -0.314,0 -0.762,-0.021 -1.145,-0.068 l -1.053,5.604 -2.375,0 2.867,-15.126 c 1.166,-0.044 2.42,-0.09 3.832,-0.09 2.959,0 4.617,1.39 4.617,3.742 0.001,3.406 -3.093,5.938 -6.743,5.938 z m 1.701,-7.686 c -0.604,0 -0.986,0 -1.389,0.043 l -1.053,5.514 c 0.314,0.067 0.65,0.09 1.029,0.09 2.129,0 3.945,-1.547 3.945,-3.562 10e-4,-1.257 -0.671,-2.085 -2.532,-2.085 z"
           id="path153"
           style="fill:#0054a4" />
        <path
           inkscape:connector-curvature="0"
           d="m 250.558,110.657 c -1.859,-0.537 -3.943,3.183 -4.594,6.587 l -0.469,2.467 -2.354,0 1.119,-5.826 c 0.291,-1.568 0.672,-3.653 0.965,-5.311 l 2.285,0 c -0.156,0.918 -0.449,2.016 -1.055,3.764 l 0.045,0.021 c 1.232,-2.554 2.51,-4.346 4.551,-4.01 l -0.493,2.308 z"
           id="path155"
           style="fill:#0054a4" />
        <path
           inkscape:connector-curvature="0"
           d="m 254.742,119.934 c -2.936,0 -4.213,-1.456 -4.213,-3.988 0,-4.549 2.957,-7.596 6.566,-7.596 3.047,0 4.258,1.682 4.258,4.056 0,4.571 -3.205,7.528 -6.611,7.528 z m 1.994,-9.545 c -2.285,0 -3.74,2.621 -3.74,5.176 0,1.457 0.58,2.309 2.082,2.309 2.105,0 3.787,-2.285 3.787,-5.199 0,-1.48 -0.651,-2.286 -2.129,-2.286 z"
           id="path157"
           style="fill:#0054a4" />
        <path
           inkscape:connector-curvature="0"
           d="m 264.623,120.898 c -0.561,2.867 -1.859,4.458 -4.818,4.458 -0.537,0 -1.053,-0.091 -1.479,-0.202 l 0.494,-2.061 c 0.402,0.157 0.873,0.246 1.23,0.246 1.369,0 1.883,-0.717 2.285,-2.802 l 2.309,-11.964 2.33,0 -2.351,12.325 z m 1.634,-13.982 c -0.828,0 -1.434,-0.672 -1.412,-1.434 0.021,-0.897 0.785,-1.57 1.637,-1.57 0.828,0 1.436,0.65 1.41,1.412 -0.021,0.92 -0.783,1.592 -1.635,1.592 z"
           id="path159"
           style="fill:#0054a4" />
        <path
           inkscape:connector-curvature="0"
           d="m 270.582,114.959 c -0.045,0.293 -0.092,0.785 -0.092,1.121 0,1.523 0.562,1.926 2.242,1.926 1.055,0 2.195,-0.245 3.182,-0.648 l 0,1.882 c -1.143,0.425 -2.51,0.694 -3.965,0.694 -2.689,0 -3.855,-1.188 -3.855,-3.697 0,-4.459 2.6,-7.887 6.184,-7.887 2.557,0 3.43,1.299 3.43,2.621 -0.001,2.51 -2.533,3.832 -7.126,3.988 z m 3.427,-4.816 c -1.613,0 -2.689,1.455 -3.137,3.158 3.047,-0.111 4.48,-0.738 4.48,-2.016 0.001,-0.739 -0.515,-1.142 -1.343,-1.142 z"
           id="path161"
           style="fill:#0054a4" />
        <path
           inkscape:connector-curvature="0"
           d="m 286.802,110.77 c -0.537,-0.246 -1.166,-0.402 -1.906,-0.402 -2.598,0 -3.785,2.912 -3.785,5.242 0,1.143 0.402,2.196 2.15,2.196 0.809,0 1.66,-0.179 2.332,-0.493 l -0.18,2.105 c -0.785,0.269 -1.77,0.493 -2.824,0.493 -2.936,0 -3.988,-1.546 -3.988,-3.765 0,-4.256 2.443,-7.775 6.453,-7.775 0.875,0 1.59,0.113 2.309,0.314 l -0.561,2.085 z"
           id="path163"
           style="fill:#0054a4" />
        <path
           inkscape:connector-curvature="0"
           d="m 295.109,110.434 -2.848,0 -1.029,5.467 c -0.291,1.547 -0.068,1.973 0.939,1.973 0.607,0 1.055,-0.067 1.48,-0.157 l -0.178,1.948 c -0.695,0.158 -1.525,0.247 -2.176,0.247 -2.33,0 -2.979,-1.098 -2.463,-3.696 l 1.098,-5.781 -2.107,0 0.381,-1.859 2.084,0 0.672,-3.541 2.443,-0.516 -0.783,4.057 2.867,0 -0.38,1.858 z"
           id="path165"
           style="fill:#0054a4" />
      </g>
      <g
         id="Your_Open_Source_Compass">
        <path
           inkscape:connector-curvature="0"
           d="m 87.951,115.211 -0.869,4.748 -1.704,0 0.87,-4.748 -2.346,-8.445 1.779,0 1.172,4.459 c 0.208,0.779 0.378,1.543 0.53,2.285 l 0.019,0 c 0.437,-0.801 0.983,-1.659 1.532,-2.541 l 2.648,-4.203 1.91,0 -5.541,8.445"
           id="path168"
           style="display:inline;fill:#a0ce67" />
        <path
           inkscape:connector-curvature="0"
           d="m 94.741,120.137 c -2.366,0 -3.444,-1.23 -3.444,-3.459 0,-3.871 2.382,-6.607 5.448,-6.607 2.479,0 3.499,1.445 3.499,3.498 0,4.007 -2.669,6.568 -5.503,6.568 m 1.738,-8.58 c -2.061,0 -3.441,2.383 -3.441,4.828 0,1.445 0.569,2.248 1.986,2.248 1.834,0 3.443,-2.035 3.443,-4.869 0,-1.428 -0.625,-2.207 -1.988,-2.207"
           id="path170"
           style="display:inline;fill:#a0ce67" />
        <path
           inkscape:connector-curvature="0"
           d="m 108.849,119.959 -1.663,0 c 0.132,-0.644 0.379,-1.758 1.038,-3.828 l -0.035,0 c -0.892,2.052 -2.365,4.025 -4.333,4.025 -1.739,0 -2.345,-1.27 -1.966,-3.303 l 1.21,-6.607 1.681,0 -1.151,6.215 c -0.285,1.526 -0.018,2.191 0.813,2.191 1.739,0 3.688,-3.814 4.124,-6.217 l 0.396,-2.189 1.664,0 -1.778,9.713"
           id="path172"
           style="display:inline;fill:#a0ce67" />
        <path
           inkscape:connector-curvature="0"
           d="m 117.947,111.771 c -1.738,-0.51 -3.593,3.303 -4.086,6.002 l -0.396,2.186 -1.666,0 1.777,-9.713 1.629,0 c -0.153,0.84 -0.416,1.875 -0.966,3.578 l 0.037,0.02 c 1.061,-2.365 2.197,-4.085 4.011,-3.773 l -0.34,1.7"
           id="path174"
           style="display:inline;fill:#a0ce67" />
        <path
           inkscape:connector-curvature="0"
           d="m 127.311,120.157 c -3.084,0 -4.56,-1.798 -4.56,-4.81 0,-4.771 3.139,-8.775 7.301,-8.775 2.968,0 4.594,1.758 4.594,4.809 0,5.021 -3.29,8.776 -7.335,8.776 m 2.458,-12.004 c -3.024,0 -5.182,3.204 -5.182,6.942 0,2.129 1.019,3.457 2.968,3.457 2.894,0 5.259,-3.068 5.259,-6.979 0,-2.089 -0.982,-3.42 -3.045,-3.42"
           id="path176"
           style="display:inline;fill:#a0ce67" />
        <path
           inkscape:connector-curvature="0"
           d="m 138.562,120.1 c -0.472,0 -0.89,-0.042 -1.324,-0.119 l -0.871,4.809 -1.662,0 2.665,-14.543 1.666,0 c -0.169,0.84 -0.416,1.799 -1.06,3.891 l 0.04,0.02 c 0.963,-2.288 2.44,-4.105 4.37,-4.105 1.358,0 2.098,0.9 2.098,2.951 -0.001,3.576 -1.8,7.096 -5.922,7.096 m 3.234,-8.543 c -1.777,0 -3.688,3.89 -4.124,6.176 l -0.15,0.744 c 0.397,0.135 0.965,0.232 1.363,0.232 2.763,0 3.876,-2.973 3.876,-5.374 0.001,-1.271 -0.376,-1.778 -0.965,-1.778"
           id="path178"
           style="display:inline;fill:#a0ce67" />
        <path
           inkscape:connector-curvature="0"
           d="m 147.585,115.678 c -0.057,0.297 -0.095,0.783 -0.095,1.135 0,1.506 0.511,1.896 2.024,1.896 0.888,0 1.835,-0.216 2.647,-0.565 l 0,1.409 c -0.908,0.369 -2.005,0.584 -3.234,0.584 -2.156,0 -3.158,-0.955 -3.158,-3.146 0,-3.774 2.024,-6.92 5.145,-6.92 2.005,0 2.761,1.056 2.761,2.209 0,2.091 -2.063,3.242 -6.09,3.398 m 3.14,-4.28 c -1.496,0 -2.497,1.352 -2.932,2.99 2.913,-0.117 4.2,-0.721 4.2,-1.896 0.001,-0.703 -0.511,-1.094 -1.268,-1.094"
           id="path180"
           style="display:inline;fill:#a0ce67" />
        <path
           inkscape:connector-curvature="0"
           d="m 162.223,119.959 -1.662,0 1.152,-6.215 c 0.285,-1.524 0.02,-2.188 -0.83,-2.188 -1.741,0 -3.671,3.81 -4.105,6.217 l -0.397,2.186 -1.663,0 0.945,-5.081 c 0.245,-1.386 0.586,-3.206 0.829,-4.632 l 1.648,0 c -0.116,0.646 -0.378,1.758 -1.041,3.832 l 0.039,0 c 0.886,-2.053 2.383,-4.027 4.348,-4.027 1.739,0 2.327,1.271 1.969,3.303 l -1.232,6.605"
           id="path182"
           style="display:inline;fill:#a0ce67" />
        <path
           inkscape:connector-curvature="0"
           d="m 176.9,108.371 c -0.623,-0.234 -1.303,-0.314 -1.777,-0.314 -1.891,0 -2.742,1.115 -2.742,2.17 0,2.385 3.896,2.465 3.896,5.592 0,2.442 -2.082,4.339 -5.048,4.339 -0.682,0 -1.478,-0.079 -2.102,-0.274 l 0.322,-1.721 c 0.529,0.235 1.285,0.412 1.929,0.412 1.967,0 3.083,-0.998 3.083,-2.463 0,-2.287 -3.877,-2.307 -3.877,-5.474 0,-2.169 1.645,-4.065 4.709,-4.065 0.644,0 1.211,0.039 1.93,0.193 l -0.323,1.605"
           id="path184"
           style="display:inline;fill:#a0ce67" />
        <path
           inkscape:connector-curvature="0"
           d="m 181.404,120.137 c -2.364,0 -3.445,-1.23 -3.445,-3.459 0,-3.871 2.386,-6.607 5.45,-6.607 2.479,0 3.499,1.445 3.499,3.498 0,4.007 -2.667,6.568 -5.504,6.568 m 1.74,-8.58 c -2.062,0 -3.443,2.383 -3.443,4.828 0,1.445 0.566,2.248 1.984,2.248 1.835,0 3.442,-2.035 3.442,-4.869 0,-1.428 -0.622,-2.207 -1.983,-2.207"
           id="path186"
           style="display:inline;fill:#a0ce67" />
        <path
           inkscape:connector-curvature="0"
           d="m 195.512,119.959 -1.664,0 c 0.134,-0.644 0.379,-1.758 1.04,-3.828 l -0.038,0 c -0.889,2.052 -2.365,4.025 -4.329,4.025 -1.744,0 -2.349,-1.27 -1.969,-3.303 l 1.209,-6.607 1.684,0 -1.153,6.215 c -0.283,1.526 -0.02,2.191 0.816,2.191 1.737,0 3.688,-3.814 4.121,-6.217 l 0.396,-2.189 1.666,0 -1.779,9.713"
           id="path188"
           style="display:inline;fill:#a0ce67" />
        <path
           inkscape:connector-curvature="0"
           d="m 204.591,111.771 c -1.739,-0.51 -3.593,3.303 -4.088,6.002 l -0.393,2.186 -1.667,0 1.778,-9.713 1.627,0 c -0.151,0.84 -0.417,1.875 -0.965,3.578 l 0.037,0.02 c 1.059,-2.365 2.195,-4.085 4.011,-3.773 l -0.34,1.7"
           id="path190"
           style="display:inline;fill:#a0ce67" />
        <path
           inkscape:connector-curvature="0"
           d="m 211.815,111.907 c -0.511,-0.235 -1.057,-0.372 -1.722,-0.372 -2.382,0 -3.497,2.776 -3.497,4.986 0,1.014 0.319,2.053 1.968,2.053 0.735,0 1.529,-0.177 2.118,-0.469 l -0.115,1.543 c -0.66,0.254 -1.531,0.468 -2.479,0.468 -2.438,0 -3.27,-1.366 -3.27,-3.204 0,-3.714 2.024,-6.822 5.389,-6.822 0.777,0 1.399,0.117 1.987,0.291 l -0.379,1.526"
           id="path192"
           style="display:inline;fill:#a0ce67" />
        <path
           inkscape:connector-curvature="0"
           d="m 214.482,115.678 c -0.057,0.297 -0.094,0.783 -0.094,1.135 0,1.506 0.51,1.896 2.026,1.896 0.884,0 1.832,-0.216 2.646,-0.565 l 0,1.409 c -0.907,0.369 -2.005,0.584 -3.234,0.584 -2.155,0 -3.157,-0.955 -3.157,-3.146 0,-3.774 2.022,-6.92 5.142,-6.92 2.006,0 2.763,1.056 2.763,2.209 -0.001,2.091 -2.063,3.242 -6.092,3.398 m 3.14,-4.28 c -1.494,0 -2.496,1.352 -2.931,2.99 2.91,-0.117 4.198,-0.721 4.198,-1.896 0,-0.703 -0.511,-1.094 -1.267,-1.094"
           id="path194"
           style="display:inline;fill:#a0ce67" />
        <path
           inkscape:connector-curvature="0"
           d="m 235.836,108.682 c -0.889,-0.332 -1.778,-0.469 -2.649,-0.469 -3.705,0 -5.199,3.753 -5.199,7.076 0,1.896 0.757,3.227 3.215,3.227 1.059,0 2.098,-0.235 2.969,-0.646 l -0.076,1.623 c -1.019,0.391 -2.212,0.624 -3.402,0.624 -3.65,0 -4.597,-2.208 -4.597,-4.533 0,-4.614 2.514,-8.935 7.337,-8.935 1.078,0 1.986,0.158 2.818,0.394 l -0.416,1.639"
           id="path196"
           style="display:inline;fill:#a0ce67" />
        <path
           inkscape:connector-curvature="0"
           d="m 239.489,120.137 c -2.366,0 -3.443,-1.23 -3.443,-3.459 0,-3.871 2.382,-6.607 5.447,-6.607 2.477,0 3.498,1.445 3.498,3.498 0,4.007 -2.664,6.568 -5.502,6.568 m 1.737,-8.58 c -2.061,0 -3.439,2.383 -3.439,4.828 0,1.445 0.564,2.248 1.982,2.248 1.837,0 3.442,-2.035 3.442,-4.869 0,-1.428 -0.621,-2.207 -1.985,-2.207"
           id="path198"
           style="display:inline;fill:#a0ce67" />
        <path
           inkscape:connector-curvature="0"
           d="m 259.309,119.959 -1.684,0 1.154,-6.215 c 0.284,-1.524 0.019,-2.209 -0.757,-2.209 -1.608,0 -3.574,3.599 -4.066,6.238 l -0.396,2.186 -1.665,0 1.153,-6.215 c 0.284,-1.524 0.037,-2.209 -0.776,-2.209 -1.588,0 -3.555,3.599 -4.047,6.238 l -0.397,2.186 -1.662,0 0.943,-5.081 c 0.266,-1.446 0.588,-3.206 0.831,-4.632 l 1.647,0 c -0.111,0.646 -0.379,1.779 -1.041,3.832 l 0.039,0 c 0.868,-2.033 2.344,-4.027 4.274,-4.027 1.21,0 1.892,0.684 1.892,1.895 0,0.606 -0.152,1.174 -0.454,2.15 l 0.037,0.02 c 0.87,-2.09 2.346,-4.064 4.275,-4.064 1.702,0 2.288,1.271 1.908,3.303 l -1.208,6.604"
           id="path200"
           style="display:inline;fill:#a0ce67" />
        <path
           inkscape:connector-curvature="0"
           d="m 265.117,120.1 c -0.473,0 -0.892,-0.042 -1.324,-0.119 l -0.872,4.809 -1.663,0 2.668,-14.543 1.661,0 c -0.167,0.84 -0.416,1.799 -1.057,3.891 l 0.035,0.02 c 0.968,-2.288 2.441,-4.105 4.372,-4.105 1.36,0 2.097,0.9 2.097,2.951 0,3.576 -1.794,7.096 -5.917,7.096 m 3.234,-8.543 c -1.779,0 -3.689,3.89 -4.126,6.176 l -0.151,0.744 c 0.397,0.135 0.967,0.232 1.362,0.232 2.764,0 3.88,-2.973 3.88,-5.374 0,-1.271 -0.379,-1.778 -0.965,-1.778"
           id="path202"
           style="display:inline;fill:#a0ce67" />
        <path
           inkscape:connector-curvature="0"
           d="m 279.376,119.959 -1.683,0 c 0.171,-0.837 0.529,-2.129 1.098,-3.947 l -0.039,-0.017 c -0.681,1.503 -2.1,4.162 -4.386,4.162 -1.362,0 -2.102,-0.9 -2.102,-2.952 0,-3.579 1.796,-7.115 5.901,-7.115 1.077,0 2.079,0.117 2.952,0.295 -1.002,5.433 -1.344,7.25 -1.741,9.574 m -1.495,-8.48 c -2.798,0 -3.895,2.988 -3.895,5.393 0,1.272 0.38,1.781 0.965,1.781 1.776,0 3.706,-3.891 4.141,-6.217 l 0.136,-0.779 c -0.381,-0.1 -0.815,-0.178 -1.347,-0.178"
           id="path204"
           style="display:inline;fill:#a0ce67" />
        <path
           inkscape:connector-curvature="0"
           d="m 287.983,111.635 c -0.456,-0.156 -0.945,-0.236 -1.416,-0.236 -1.232,0 -1.876,0.605 -1.876,1.428 0,1.545 2.855,1.953 2.855,4.145 0,1.621 -1.379,3.166 -4.047,3.166 -0.624,0 -1.136,-0.037 -1.607,-0.138 l 0.302,-1.562 c 0.492,0.154 1.001,0.254 1.532,0.254 1.229,0 2.061,-0.509 2.061,-1.525 0,-1.543 -2.837,-1.8 -2.837,-4.145 0,-1.664 1.287,-2.951 3.727,-2.951 0.663,0 1.137,0.059 1.61,0.137 l -0.304,1.427"
           id="path206"
           style="display:inline;fill:#a0ce67" />
        <path
           inkscape:connector-curvature="0"
           d="m 295.095,111.635 c -0.456,-0.156 -0.945,-0.236 -1.421,-0.236 -1.229,0 -1.872,0.605 -1.872,1.428 0,1.545 2.855,1.953 2.855,4.145 0,1.621 -1.378,3.166 -4.045,3.166 -0.624,0 -1.138,-0.037 -1.61,-0.138 l 0.305,-1.562 c 0.49,0.154 1.002,0.254 1.529,0.254 1.229,0 2.064,-0.509 2.064,-1.525 0,-1.543 -2.84,-1.8 -2.84,-4.145 0,-1.664 1.288,-2.951 3.727,-2.951 0.663,0 1.135,0.059 1.607,0.137 l -0.299,1.427"
           id="path208"
           style="display:inline;fill:#a0ce67" />
      </g>
    </g>
    <g
       transform="translate(564.87191,-164.45341)"
       id="OSGeo"
       style="display:none">
      <path
         inkscape:connector-curvature="0"
         d="m 107.322,56.194 c -3.566,4.801 -5.377,10.846 -5.377,17.968 0,7.564 1.772,13.854 5.276,18.699 3.521,4.875 8.465,7.348 14.698,7.348 6.825,0 12.143,-2.34 15.812,-6.949 3.649,-4.596 5.503,-11.021 5.503,-19.098 0,-7.885 -1.849,-14.122 -5.492,-18.546 -3.653,-4.443 -8.977,-6.696 -15.823,-6.696 -6.098,0 -11.005,2.45 -14.597,7.274 m 5.475,31.931 c -2.177,-3.713 -3.281,-8.412 -3.281,-13.963 0,-5.77 1.076,-10.387 3.192,-13.718 2.096,-3.295 5.197,-4.966 9.214,-4.966 9.245,0 13.737,6.111 13.737,18.685 0,6.166 -1.191,11.018 -3.538,14.416 -2.325,3.365 -5.758,5.07 -10.199,5.07 -3.904,-0.001 -6.972,-1.858 -9.125,-5.524"
         id="path211"
         style="display:inline;fill:#49a942" />
      <path
         inkscape:connector-curvature="0"
         d="m 151.834,52.611 c -2.643,2.452 -3.981,5.586 -3.981,9.312 0,3.047 0.684,5.702 2.034,7.878 1.349,2.18 3.746,4.084 7.132,5.66 l 3.946,1.847 c 3.482,1.642 5.682,3.168 6.532,4.536 0.85,1.369 1.28,2.873 1.28,4.467 0,2.123 -0.768,3.895 -2.286,5.262 -1.521,1.376 -3.571,2.076 -6.103,2.076 -1.434,0 -3.084,-0.303 -4.91,-0.909 -1.825,-0.6 -3.366,-1.358 -4.583,-2.257 l -0.286,-0.211 -2.647,6.689 0.18,0.119 c 3.111,2.076 6.912,3.129 11.299,3.129 4.999,0 9.047,-1.319 12.041,-3.922 3.006,-2.609 4.532,-5.833 4.532,-9.584 0,-3.428 -0.695,-6.295 -2.069,-8.53 -1.375,-2.234 -3.789,-4.179 -7.174,-5.778 l -4.022,-1.91 c -2.562,-1.238 -4.279,-2.205 -5.093,-2.882 -0.803,-0.661 -1.439,-1.497 -1.888,-2.481 -0.452,-0.991 -0.681,-2.104 -0.681,-3.311 0,-1.949 0.635,-3.567 1.886,-4.805 1.25,-1.24 3.003,-1.867 5.205,-1.867 1.528,0 3.22,0.303 5.023,0.895 1.801,0.596 3.155,1.218 4.029,1.849 l 0.295,0.22 2.159,-6.354 -0.141,-0.119 c -2.168,-1.795 -6.043,-2.708 -11.522,-2.708 -4.122,-0.002 -7.552,1.24 -10.187,3.689"
         id="path213"
         style="display:inline;fill:#49a942" />
      <path
         inkscape:connector-curvature="0"
         d="m 187.21,56.094 c -4.314,4.751 -6.504,11.029 -6.504,18.652 0,7.646 1.996,13.864 5.934,18.482 3.949,4.63 9.403,6.98 16.213,6.98 3.016,0 6.171,-0.477 9.371,-1.404 3.212,-0.932 5.754,-2.188 7.56,-3.723 l 0.098,-0.079 0,-21.77 -14.013,0 0,6.219 6.778,0 0,11.115 c -2.135,2.039 -4.954,3.082 -8.389,3.082 -4.91,0 -8.837,-1.713 -11.68,-5.099 -2.853,-3.396 -4.296,-7.95 -4.296,-13.532 0,-5.875 1.472,-10.656 4.379,-14.208 2.895,-3.539 6.901,-5.332 11.916,-5.332 3.152,0 6.425,1.243 9.726,3.688 l 0.26,0.192 3.013,-5.995 -0.16,-0.138 c -3.247,-2.854 -7.5,-4.305 -12.645,-4.305 -7.33,0.001 -13.24,2.417 -17.561,7.175"
         id="path215"
         style="display:inline;fill:#49a942" />
      <path
         inkscape:connector-curvature="0"
         d="m 231.083,67.17 c -3.629,3.611 -5.471,8.46 -5.471,14.418 0,5.744 1.796,10.378 5.334,13.787 3.184,3.092 7.104,4.661 11.661,4.661 3.143,0 6.028,-0.481 8.593,-1.435 2.052,-0.729 3.606,-1.61 4.612,-2.627 l 0.146,-0.148 -2.948,-5.039 -0.243,0.22 c -2.367,2.09 -5.366,3.151 -8.918,3.151 -3.104,0 -5.671,-0.967 -7.638,-2.871 -2.18,-2.141 -3.293,-5.246 -3.343,-9.209 l 25.761,0 0.054,-0.199 c 0.34,-1.203 0.512,-2.535 0.512,-3.959 0,-4.631 -1.443,-8.404 -4.299,-11.213 -2.94,-2.92 -7.048,-4.402 -12.207,-4.402 -4.451,0 -8.352,1.639 -11.606,4.865 m 4.96,3.685 c 1.854,-1.771 4.188,-2.67 6.932,-2.67 2.938,0 5.293,0.914 6.991,2.722 1.487,1.595 2.227,3.617 2.286,5.968 l -19.155,0 c 0.292,-2.367 1.248,-4.41 2.946,-6.02"
         id="path217"
         style="display:inline;fill:#49a942" />
      <path
         inkscape:connector-curvature="0"
         d="m 268.197,67.503 c -3.011,3.439 -4.538,8.007 -4.538,13.585 0,5.75 1.463,10.396 4.352,13.801 2.896,3.415 6.986,5.147 12.161,5.147 5.06,0 9.113,-1.714 12.058,-5.097 2.933,-3.373 4.418,-8.031 4.418,-13.852 0,-5.84 -1.452,-10.479 -4.318,-13.785 -2.877,-3.316 -6.965,-4.998 -12.157,-4.998 -4.927,10e-4 -8.959,1.75 -11.976,5.199 m 2.698,13.585 c 0,-4.08 0.856,-7.32 2.542,-9.63 1.67,-2.282 3.934,-3.438 6.734,-3.438 6.217,0 9.242,4.271 9.242,13.068 0,4.103 -0.834,7.377 -2.481,9.736 -1.623,2.324 -3.897,3.5 -6.761,3.5 -6.243,0 -9.276,-4.328 -9.276,-13.236"
         id="path219"
         style="display:inline;fill:#49a942" />
    </g>
    <g
       id="g4974"
       transform="translate(41.795865,-3.8771187)">
      <polygon
         transform="matrix(2.6753304,0,0,2.6753304,47.585988,-50.202166)"
         points="3.379,93.238 49.515,86.588 78.884,121.407 72.411,75.859 107.593,46.548 61.494,53.061 26.327,4.407 38.873,63.876 "
         id="polygon228"
         style="fill:#ffffff;stroke:#008000;stroke-width:2;stroke-miterlimit:6;stroke-opacity:1" />
      <g
         style="fill:#dc710d;fill-opacity:1"
         transform="matrix(2.6753304,0,0,2.6753304,47.585988,-50.202166)"
         id="g230">
        <polygon
           points="40.388,64.431 52.106,66.806 46.326,49.022 55.255,65.431 60.669,55.451 58.606,66.663 76.371,60.624 60.143,69.772 69.983,74.904 59.123,73.172 65.45,91.554 55.707,74.987 50.335,84.403 51.976,73.643 34.388,79.515 50.561,70.082 "
           id="polygon232"
           style="fill:#dc710d;fill-opacity:1;fill-rule:evenodd" />
      </g>
      <path
         inkscape:connector-curvature="0"
         d="M 175.82528,192.86231"
         id="path234"
         style="fill:none" />
      <path
         inkscape:connector-curvature="0"
         d="M 209.89561,98.147582"
         id="path236"
         style="fill:none" />
    </g>
  </g>
  <g
     inkscape:groupmode="layer"
     id="layer1"
     inkscape:label="Laurel"
     style="display:inline"
     transform="translate(-12.774608,151.14135)">
    <g
       transform="translate(-212.24804,-153.87711)"
       id="g4">
      <g
         id="g6"
         style="fill:#008000">
        <path
           d="m 569.38574,394.10938 c -9.13492,1.66712 -28.35041,6.73668 -31.12777,5.93279 17.722,-17.02697 15.97914,-44.78524 32.32882,-62.8482 5.21821,-7.60244 6.62007,-8.58381 2.76809,1.01208 -3.47167,17.57223 -3.68037,37.74588 -18.32595,50.50858 -7.98455,8.9253 10.11745,-7.70502 14.42811,-9.2206 16.51195,-9.44663 37.74933,-15.89576 45.60058,-35.05067 -3.71159,23.5344 -23.89835,42.07384 -45.67188,49.66602 z"
           id="path8"
           inkscape:connector-curvature="0" />
        <path
           d="m 617.73535,304.14551 c -6.03667,6.84306 -17.98264,26.12024 -20.32024,24.64521 2.88242,-19.64119 -9.09527,-37.12951 -10.98228,-56.33026 -1.55938,-6.89851 -3.30624,-29.14911 1.91262,-9.65334 10.62729,14.57257 20.21775,36.1888 15.28243,51.47694 3.13665,-14.72805 7.36022,-29.25316 14.03349,-42.85981 4.18701,-6.17698 4.16824,-26.86362 4.164,-24.67218 7.40379,18.37687 5.03959,40.06953 -4.09002,57.39344 z"
           id="path10"
           inkscape:connector-curvature="0" />
        <path
           d="m 607.37109,206.75781 c 12.77467,17.80577 13.04883,42.43261 3.34663,61.68729 -3.1478,5.98175 -3.59493,25.85943 -6.37275,9.6615 -8.01679,-19.72096 -27.2596,-33.72193 -30.36239,-55.73266 4.48372,6.69971 28.59336,21.30426 30.33761,37.70687 3.25143,15.06105 -0.54989,-12.06772 0.48828,-16.71106 2.0838,-12.96625 1.62044,-37.13679 -1.60174,-42.34295 1.65093,1.71718 2.68745,3.8818 4.16436,5.73101 z"
           id="path12"
           inkscape:connector-curvature="0" />
        <path
           d="m 599.56445,203.87744 c 2.82273,12.97371 -1.19222,26.40856 1.23243,39.34424 -10.03987,-19.64668 -37.14386,-25.73862 -41.61054,-49.04657 -4.62963,-13.55268 7.91373,10.29829 15.33998,10.91698 7.52958,3.19374 19.5877,18.04531 20.18175,19.90316 -7.82471,-15.51295 -4.91139,-36.9847 -20.40631,-47.94447 12.64888,2.96836 22.2332,14.52291 25.26269,26.82666 z"
           id="path14"
           inkscape:connector-curvature="0" />
        <path
           d="m 567.01172,173.72168 c 10.1995,8.38482 13.39385,21.49885 17.50976,33.34033 -14.90234,-10.06383 -25.79349,-24.55834 -36.46876,-38.6291 -6.14459,-5.78485 -10.88649,-10.44626 0.86927,-4.54015 6.43972,2.40386 12.93321,5.15503 18.08973,9.82892 z"
           id="path16"
           inkscape:connector-curvature="0" />
        <path
           d="m 356.80566,162.27393 c -14.4726,12.51025 -21.51169,31.64368 -37.95808,42.19696 -10.0729,11.75663 0.78051,-14.39671 3.86336,-19.49823 7.0389,-12.65286 21.33763,-17.86162 34.09472,-22.69873 z"
           id="path18"
           inkscape:connector-curvature="0" />
        <path
           d="m 306.49219,190.35986 c 2.97761,-6.04685 23.67735,-16.47827 10.83294,-5.62086 -8.28285,13.50847 -8.37367,30.90954 -14.01751,45.09303 5.68523,-18.8849 29.12538,-22.68878 36.35351,-40.22168 -0.30885,20.8901 -19.83335,32.43047 -33.46275,44.94209 -5.77009,6.57873 -9.75489,15.51275 -7.47861,1.18634 -0.72751,-15.22017 -3.77812,-33.13982 7.77242,-45.37892 z"
           id="path20"
           inkscape:connector-curvature="0" />
        <path
           d="m 281.41211,240.22754 c -0.39865,-14.036 5.75214,-28.1273 15.15723,-38.16895 -10.70326,18.03529 0.82933,38.8323 -2.75647,58.22223 -1.46016,18.2704 1.68365,-6.81133 7.0808,-11.4622 5.32007,-7.18725 25.47108,-26.18635 23.26253,-24.07743 -2.61033,24.69569 -26.82494,39.59462 -30.9189,63.64846 -1.24472,-16.71162 -13.23478,-31.01711 -11.82519,-48.16211 z"
           id="path22"
           inkscape:connector-curvature="0" />
        <path
           d="m 274.21387,261.24316 c 0.93694,-5.51473 5.20173,-20.60056 3.20656,-6.55975 0.7451,19.82629 15.32103,35.79565 16.96469,55.56339 5.35524,17.2486 -2.38011,-10.83189 2.05403,-16.09913 2.91357,-14.17578 14.665,-24.37773 17.57843,-38.47775 1.80172,22.48763 -8.34011,43.34051 -12.08553,64.98088 0.0423,8.29671 2.33483,18.77459 -4.55362,5.51752 -10.54529,-12.28817 -21.63965,-25.35661 -22.98795,-42.25401 -1.254,-7.4778 -1.58149,-15.18887 -0.17661,-22.67115 z"
           id="path24"
           inkscape:connector-curvature="0" />
        <path
           d="m 273.59766,299.40137 c 2.39229,22.5916 25.90608,32.87488 35.88786,51.47416 3.31949,5.74689 8.69778,10.60334 2.70686,1.32271 -9.31365,-16.55226 -0.593,-34.6148 0.05,-51.85226 1.14823,-6.35683 6.94193,20.14442 6.82663,27.85153 1.62139,15.75071 1.49462,32.38655 9.96228,46.39526 -21.2443,-14.1098 -48.07172,-27.20631 -54.37781,-54.36256 -1.57004,-6.81647 -1.60818,-13.88859 -1.05578,-20.82884 z"
           id="path26"
           inkscape:connector-curvature="0" />
        <path
           d="m 284.72949,346.95508 c 10.65804,24.556 41.0948,26.47958 58.80713,43.67761 12.98925,7.89483 -9.64273,-9.2763 -9.23378,-15.15912 -5.09967,-12.20528 -7.10091,-36.08978 -9.74436,-42.2267 12.63452,13.62344 19.06659,31.09606 24.63732,48.46144 -0.10415,9.28607 24.11867,25.62867 5.58438,18.4904 -20.11157,-2.2232 -40.93757,-7.69949 -54.50991,-23.89865 -7.63499,-8.15404 -13.69767,-18.20016 -15.54078,-29.34498 z"
           id="path28"
           inkscape:connector-curvature="0" />
        <path
           d="m 311.43457,390.80664 c 17.3965,19.43386 45.67471,12.38743 68.3877,18.02002 16.30644,2.04817 -13.06646,-3.36036 -14.81328,-11.15628 -5.30108,-6.71907 -15.67615,-27.09603 -14.52751,-27.228 18.52902,11.8896 30.33855,34.23498 53.22744,38.75721 12.72774,2.21987 -13.40936,3.72194 -18.40136,6.71764 -20.93545,6.40516 -45.75605,5.40414 -62.34906,-10.55953 -4.64599,-4.12703 -8.68385,-9.00484 -11.52393,-14.55106 z"
           id="path30"
           inkscape:connector-curvature="0" />
        <path
           d="m 537.55664,434.97314 c -22.19288,8.64844 -44.56812,-4.1714 -61.80029,-17.39795 -6.01422,-4.9025 -26.54186,-3.14931 -10.01026,1.99324 10.09288,6.73031 27.85359,15.18839 30.04061,25.17895 -10.68337,10.65204 -19.68834,-15.52688 -31.45526,-18.96532 -14.26384,-16.86411 -30.71767,2.09946 -42.42747,11.93956 -6.34626,6.73486 -11.13168,16.49182 -18.43522,6.06988 8.72491,-11.99333 33.17205,-23.12088 37.17508,-28.99772 -17.96626,-2.1511 -28.69743,16.73092 -44.98947,20.89673 -19.09743,7.43154 -42.00867,0.61314 -54.91998,-14.99276 16.83928,11.44369 38.80379,7.68511 55.68192,-1.5757 16.97702,-7.99638 36.62858,-12.23999 54.87921,-6.13747 19.37486,-7.49455 40.4398,-0.75489 58.37032,7.73749 15.72256,7.66592 35.57645,8.81243 50.42206,-1.50869 -5.82716,7.24277 -13.8108,12.62665 -22.53125,15.75976 z"
           id="path32"
           inkscape:connector-curvature="0" />
        <path
           d="m 557.6748,415.57471 c -21.98445,8.32637 -44.68373,-2.84414 -66.36816,-5.69141 14.84466,-2.27929 27.58768,-10.80596 37.08042,-22.21158 5.5134,-5.53991 21.5378,-20.85917 21.94914,-18.15578 -8.16431,16.2729 -15.7457,36.41238 -36.61257,39.18181 15.87597,-2.66439 31.97836,-3.98571 47.99463,-5.82415 9.27237,0.58172 26.45114,-12.08823 25.97068,-11.86201 -6.39906,11.5746 -17.74966,20.02453 -30.01414,24.56312 z"
           id="path34"
           inkscape:connector-curvature="0" />
        <path
           d="m 595.97266,356.26855 c -6.87889,3.04268 -23.17196,17.57171 -23.6646,14.00372 12.0203,-23.80262 4.2055,-52.24206 15.53081,-76.32012 -1.63269,19.13244 10.15421,39.07633 -0.56137,57.3038 -6.1354,12.64674 8.92802,-11.80173 12.92315,-15.71298 11.13648,-8.66553 25.45659,-29.51103 26.21568,-36.42359 2.83908,23.26703 -11.75319,44.72666 -30.44367,57.14917 z"
           id="path36"
           inkscape:connector-curvature="0" />
      </g>
    </g>
  </g>
</svg>
