<?xml version="1.0" encoding="UTF-8"?>
<svg width="76px" height="26px" viewBox="0 0 76 26" version="1.1" xmlns="http://www.w3.org/2000/svg" xmlns:xlink="http://www.w3.org/1999/xlink">
    <!-- Generator: Sketch 43.2 (39069) - http://www.bohemiancoding.com/sketch -->
    <title>Imported Layers Copy 6</title>
    <desc>Created with Sketch.</desc>
    <defs></defs>
    <g id="1st-iteration---1st-July" stroke="none" stroke-width="1" fill="none" fill-rule="evenodd">
        <g id="Payment-Instructions-Desktop" transform="translate(-32.000000, -2098.000000)" fill="#0084C0">
            <g id="flywire" transform="translate(32.000000, 2079.000000)">
                <g id="Group-6">
                    <g id="Imported-Layers-Copy-6" transform="translate(0.000000, 19.000000)">
                        <g id="Group-Copy-2" transform="translate(0.000000, 0.043189)">
                            <polyline id="Fill-25" points="16.059508 20.0204652 19.2078315 0 21.7641532 0 18.6158296 20.0204652 16.059508 20.0204652"></polyline>
                            <path d="M31.6748495,19.6351101 C31.0700881,23.5317749 28.8160371,25.5634453 25.2699658,25.5634453 C23.0984123,25.5634453 21.3941245,24.7565108 20.2393799,23.3924337 L21.6688961,21.6109996 C22.6586458,22.7801768 23.8404496,23.336875 25.2424666,23.336875 C27.3865209,23.336875 28.7060405,22.0843597 29.1185279,19.6351101 L29.2833028,18.6608328 L29.2283045,18.6608328 C28.0739999,19.7464498 26.7269811,20.3309272 25.2424666,20.3309272 C22.4936508,20.3309272 21.1741313,18.939293 21.1741313,16.2951435 C21.1741313,15.7942263 21.2291296,15.2653075 21.3116271,14.6806078 L22.6018875,6.44480882 L25.1304901,6.44480882 L23.8679487,14.6806078 C23.7854513,15.1259663 23.7581721,15.4877645 23.7581721,15.8217834 C23.7581721,17.3249795 24.4177119,18.0765776 25.9022264,18.0765776 C27.4415192,18.0765776 28.8160371,17.1300796 29.7505685,15.4877645 L31.1783248,6.44480882 L33.7346464,6.44480882 L31.6748495,19.6351101" id="Fill-26"></path>
                            <path d="M60.4418282,8.89368497 L60.9825716,6.39421033 L58.4627688,6.39421033 L56.3182745,20.0552049 L58.8748162,20.0552049 L60.0102014,12.7221236 C60.511786,10.033305 62.4800657,8.69945177 64.5651619,8.69945177 C64.8188141,8.69945177 65.0038284,8.69989624 65.2075422,8.71967513 L65.5887905,6.29109338 C63.1783243,5.9117386 61.3695398,7.15291989 60.4418282,8.89368497" id="Fill-27"></path>
                            <polyline id="Fill-28" points="50.8054634 6.44480882 46.6123919 15.8962321 45.1199576 6.44480882 42.6395336 6.44480882 38.3267857 15.8962321 36.9051893 6.44480882 34.3189485 6.44480882 36.4955619 20.1058034 39.1214014 20.1058034 43.3395522 10.6372681 44.8086672 20.1058034 47.4107474 20.1058034 53.4900412 6.44480882 50.8054634 6.44480882"></polyline>
                            <polyline id="Fill-29" points="51.6984161 20.1058034 53.8422504 6.44480882 56.399012 6.44480882 54.2547377 20.1058034 51.6984161 20.1058034"></polyline>
                            <path d="M66.9183914,11.7915556 C67.3306587,9.47853589 68.7364157,8.20490833 70.8769501,8.20490833 C72.445722,8.20490833 73.459451,8.9591732 73.459451,10.1265725 C73.459451,11.5593202 72.4549617,12.2266913 70.2981478,12.2266913 L66.8385338,12.2266913 L66.9183914,11.7915556 L66.9183914,11.7915556 Z M69.0593658,18.0487982 C68.1219745,18.0676882 67.4034765,17.7903392 66.929391,17.2267517 C66.4308863,16.6342738 66.2969104,15.6591076 66.5116238,14.3281434 L70.2477694,14.3281434 C71.3754548,14.3281434 72.8973682,14.1743569 74.1174508,13.4236478 C75.3142141,12.6871617 75.9209555,11.5608758 75.9209555,10.075903 C75.9209555,9.046067 75.483169,8.03534319 74.7204523,7.3026351 C73.8329995,6.45058692 72.5629784,6.00033925 71.0481048,6.00033925 C65.5058146,6.00033925 64.8295554,9.98056428 64.286172,13.1798563 L64.0925779,14.4001475 C63.8591651,16.1049105 64.1726555,17.4809883 65.0510886,18.6066075 C65.8679236,19.6535556 67.2666407,20.2302549 68.9896279,20.2302549 C74.568657,20.2302549 75.0746415,15.480653 75.0746415,15.480653 L72.7255534,15.480653 C72.7255534,15.480653 72.6135769,17.9774608 69.0593658,18.0487982 L69.0593658,18.0487982 Z" id="Fill-30"></path>
                            <path d="M9.1404289,12.6007124 L7.89115823,20.0711411 C7.55852842,22.1283685 6.54611944,22.9357475 4.66297714,22.9335251 L4.53802096,22.9346363 L4.14753293,25.4454449 L4.34002703,25.4467783 C7.68524454,25.4510008 9.9124563,23.5564492 10.4353803,20.2467065 L12.3594413,8.7273886 L15.8819734,8.7273886 L16.255742,6.34969861 L12.72859,6.34969861 L12.891825,5.30719523 C13.2264348,3.23952277 14.2832824,2.31235924 16.1334257,2.31458159 L17.8454133,2.31724841 L18.2044423,6.28292899e-06 L16.3767383,6.28292899e-06 C13.0497802,-0.00399394323 10.8577673,1.90233606 10.3352833,5.2118565 L10.1575288,6.34969861 L1.03506829,6.34969861 L0.65997978,8.7273886 L9.78816011,8.7273886 L9.53808425,10.2228002 L3.57423049,10.2228002 L0.375088508,10.2228002 L0,12.6007124 L9.1404289,12.6007124 Z" id="Fill-32"></path>
                            <path d="M57.052172,3.70420943 C57.052172,4.52247791 56.3952722,5.18607099 55.585257,5.18607099 C54.7750218,5.18607099 54.1183419,4.52247791 54.1183419,3.70420943 C54.1183419,2.88571871 54.7750218,2.22234787 55.585257,2.22234787 C56.3952722,2.22234787 57.052172,2.88571871 57.052172,3.70420943" id="Fill-35"></path>
                        </g>
                    </g>
                </g>
            </g>
        </g>
    </g>
</svg>