<?xml version="1.0" encoding="UTF-8" standalone="no"?>
<!DOCTYPE svg PUBLIC "-//W3C//DTD SVG 1.1//EN" "http://www.w3.org/Graphics/SVG/1.1/DTD/svg11.dtd">
<svg width="100%" height="100%" viewBox="0 0 662 261" version="1.1" xmlns="http://www.w3.org/2000/svg" xmlns:xlink="http://www.w3.org/1999/xlink" xml:space="preserve" xmlns:serif="http://www.serif.com/" style="fill-rule:evenodd;clip-rule:evenodd;stroke-linejoin:round;stroke-miterlimit:1.41421;">
    <g transform="matrix(8.33333,0,0,8.33333,-693.514,-310.973)">
        <g transform="matrix(1,0,0,1,91.2514,61.6747)">
            <path d="M0,-6.833L3.23,-12.844C3.384,-13.151 3.521,-13.367 3.914,-13.367L7.341,-13.367C7.481,-13.367 7.595,-13.31 7.659,-13.207C7.693,-13.151 7.711,-13.086 7.711,-13.017C7.711,-12.949 7.693,-12.877 7.658,-12.808L2.631,-3.651C2.629,-3.648 2.629,-3.645 2.629,-3.641C2.629,-3.638 2.629,-3.634 2.631,-3.631C2.631,-3.631 7.938,5.974 7.939,5.975C7.975,6.044 7.991,6.116 7.991,6.185C7.991,6.253 7.975,6.318 7.939,6.374C7.876,6.477 7.763,6.534 7.621,6.534L4.194,6.534C3.803,6.534 3.664,6.318 3.512,6.012C3.511,6.012 0,-0.449 0,-0.449C-0.004,-0.456 -0.011,-0.46 -0.019,-0.46C-0.026,-0.46 -0.033,-0.456 -0.037,-0.449L-3.549,6.012C-3.702,6.318 -3.84,6.534 -4.232,6.534L-7.659,6.534C-7.801,6.534 -7.914,6.478 -7.978,6.374C-8.047,6.263 -8.047,6.113 -7.978,5.975L-2.669,-3.631C-2.665,-3.637 -2.665,-3.645 -2.669,-3.651L-7.696,-12.808C-7.766,-12.946 -7.766,-13.095 -7.696,-13.207C-7.633,-13.31 -7.52,-13.367 -7.378,-13.367L-3.951,-13.367C-3.529,-13.367 -3.396,-13.102 -3.269,-12.845L-0.037,-6.833C-0.034,-6.827 -0.026,-6.822 -0.019,-6.822C-0.011,-6.822 -0.004,-6.827 0,-6.833" style="fill:rgb(0,96,97);fill-rule:nonzero;"/>
        </g>
        <g transform="matrix(1,0,0,1,117.92,56.2997)">
            <path d="M0,3.917C0.01,3.915 0.017,3.906 0.017,3.897L0.017,-7.479C0.017,-7.776 0.232,-7.992 0.529,-7.992L3.254,-7.992C3.551,-7.992 3.767,-7.776 3.767,-7.479L3.767,11.397C3.767,11.694 3.551,11.909 3.254,11.909L0.417,11.909C0.043,11.909 -0.145,11.63 -0.267,11.387L-6.165,0.011C-6.17,0.002 -6.18,-0.002 -6.189,0C-6.198,0.002 -6.205,0.011 -6.205,0.021L-6.205,11.397C-6.205,11.694 -6.421,11.909 -6.718,11.909L-9.442,11.909C-9.739,11.909 -9.955,11.694 -9.955,11.397L-9.955,-7.479C-9.955,-7.776 -9.739,-7.992 -9.442,-7.992L-6.605,-7.992C-6.184,-7.992 -6.051,-7.727 -5.922,-7.47L-0.023,3.906C-0.019,3.915 -0.009,3.919 0,3.917" style="fill:rgb(0,96,97);fill-rule:nonzero;"/>
        </g>
        <g transform="matrix(1,0,0,1,101.157,48.8197)">
            <path d="M0,18.877L0,0.001C0,-0.296 0.216,-0.512 0.513,-0.512L3.237,-0.512C3.534,-0.512 3.75,-0.296 3.75,0.001L3.75,18.877C3.75,19.174 3.534,19.389 3.237,19.389L0.513,19.389C0.216,19.389 0,19.174 0,18.877" style="fill:rgb(0,96,97);fill-rule:nonzero;"/>
        </g>
        <g transform="matrix(1,0,0,1,132.959,65.0674)">
            <path d="M0,-13.544C-1.506,-13.544 -2.668,-13.215 -3.618,-11.925C-4.518,-10.702 -5,-9.152 -5,-6.907C-5,-4.784 -4.907,-3.02 -4.175,-1.866C-3.443,-0.712 -2.313,0 -0.812,0C0.832,0 2.045,-0.434 2.058,-0.439C2.066,-0.442 2.071,-0.45 2.071,-0.459L2.071,-4.662C2.071,-4.673 2.062,-4.683 2.051,-4.683L-0.791,-4.683C-1.089,-4.683 -1.305,-4.899 -1.305,-5.196L-1.305,-7.644C-1.305,-7.941 -1.089,-8.157 -0.791,-8.157L5.313,-8.157C5.61,-8.157 5.827,-7.941 5.827,-7.644L5.827,1.935C5.618,2.039 2.669,3.475 -1.017,3.475C-4.069,3.475 -5.792,2.322 -7.009,0.727C-8.412,-1.113 -8.905,-4.104 -8.905,-6.907C-8.905,-8.864 -8.642,-10.71 -7.957,-12.292C-7.23,-13.972 -6.083,-15.202 -4.839,-15.933C-3.46,-16.743 -1.781,-17.019 -0.209,-17.019L0.245,-17.019C2.726,-17.019 4.236,-16.43 4.741,-16.177C5.137,-15.978 5.264,-15.829 5.264,-15.564L5.264,-13.214C5.264,-13.054 5.21,-12.923 5.112,-12.846C5.018,-12.77 4.88,-12.736 4.729,-12.785C3.752,-13.099 2.293,-13.544 0.318,-13.544L0,-13.544Z" style="fill:rgb(0,96,97);fill-rule:nonzero;"/>
        </g>
        <g transform="matrix(1,0,0,1,159.051,58.7358)">
            <path d="M0,-21.419C-0.462,-21.419 -0.661,-21.128 -0.827,-20.831C-0.827,-20.831 -7.482,-9.029 -7.701,-8.641C-7.689,-8.621 -3.312,-0.589 -3.312,-0.589C-3.159,-0.315 -2.922,0 -2.449,0L0.637,0C0.822,0 0.969,-0.07 1.047,-0.198C1.129,-0.33 1.127,-0.504 1.04,-0.675L-3.314,-8.631C-3.318,-8.638 -3.318,-8.646 -3.314,-8.652L3.525,-20.745C3.61,-20.916 3.613,-21.09 3.531,-21.222C3.453,-21.349 3.307,-21.419 3.121,-21.419L0,-21.419Z" style="fill:rgb(166,206,56);fill-rule:nonzero;"/>
        </g>
        <g transform="matrix(1,0,0,1,146.071,52.3154)">
            <path d="M0,-10.772C-0.186,-10.772 -0.331,-10.702 -0.41,-10.574C-0.491,-10.442 -0.489,-10.269 -0.403,-10.097L1.696,-6.491C1.699,-6.485 1.699,-6.477 1.696,-6.47L-1.595,-0.674C-1.68,-0.503 -1.683,-0.329 -1.601,-0.197C-1.522,-0.07 -1.376,0 -1.19,0L1.907,0C2.369,0 2.577,-0.304 2.735,-0.588C2.735,-0.588 5.956,-6.261 6.082,-6.481C6.069,-6.501 3.949,-10.183 3.949,-10.183C3.796,-10.457 3.561,-10.772 3.086,-10.772L0,-10.772Z" style="fill:rgb(0,96,97);fill-rule:nonzero;"/>
        </g>
        <g transform="matrix(1,0,0,1,91.2514,61.6747)">
            <path d="M0,-6.833L3.23,-12.844C3.384,-13.151 3.521,-13.367 3.914,-13.367L7.341,-13.367C7.481,-13.367 7.595,-13.31 7.659,-13.207C7.693,-13.151 7.711,-13.086 7.711,-13.017C7.711,-12.949 7.693,-12.877 7.658,-12.808L2.631,-3.651C2.629,-3.648 2.629,-3.645 2.629,-3.641C2.629,-3.638 2.629,-3.634 2.631,-3.631C2.631,-3.631 7.938,5.974 7.939,5.975C7.975,6.044 7.991,6.116 7.991,6.185C7.991,6.253 7.975,6.318 7.939,6.374C7.876,6.477 7.763,6.534 7.621,6.534L4.194,6.534C3.803,6.534 3.664,6.318 3.512,6.012C3.511,6.012 0,-0.449 0,-0.449C-0.004,-0.456 -0.011,-0.46 -0.019,-0.46C-0.026,-0.46 -0.033,-0.456 -0.037,-0.449L-3.549,6.012C-3.702,6.318 -3.84,6.534 -4.232,6.534L-7.659,6.534C-7.801,6.534 -7.914,6.478 -7.978,6.374C-8.047,6.263 -8.047,6.113 -7.978,5.975L-2.669,-3.631C-2.665,-3.637 -2.665,-3.645 -2.669,-3.651L-7.696,-12.808C-7.766,-12.946 -7.766,-13.095 -7.696,-13.207C-7.633,-13.31 -7.52,-13.367 -7.378,-13.367L-3.951,-13.367C-3.529,-13.367 -3.396,-13.102 -3.269,-12.845L-0.037,-6.833C-0.034,-6.827 -0.026,-6.822 -0.019,-6.822C-0.011,-6.822 -0.004,-6.827 0,-6.833" style="fill:rgb(0,96,97);fill-rule:nonzero;"/>
        </g>
        <g transform="matrix(1,0,0,1,117.92,56.2997)">
            <path d="M0,3.917C0.01,3.915 0.017,3.906 0.017,3.897L0.017,-7.479C0.017,-7.776 0.232,-7.992 0.529,-7.992L3.254,-7.992C3.551,-7.992 3.767,-7.776 3.767,-7.479L3.767,11.397C3.767,11.694 3.551,11.909 3.254,11.909L0.417,11.909C0.043,11.909 -0.145,11.63 -0.267,11.387L-6.165,0.011C-6.17,0.002 -6.18,-0.002 -6.189,0C-6.198,0.002 -6.205,0.011 -6.205,0.021L-6.205,11.397C-6.205,11.694 -6.421,11.909 -6.718,11.909L-9.442,11.909C-9.739,11.909 -9.955,11.694 -9.955,11.397L-9.955,-7.479C-9.955,-7.776 -9.739,-7.992 -9.442,-7.992L-6.605,-7.992C-6.184,-7.992 -6.051,-7.727 -5.922,-7.47L-0.023,3.906C-0.019,3.915 -0.009,3.919 0,3.917" style="fill:rgb(0,96,97);fill-rule:nonzero;"/>
        </g>
        <g transform="matrix(1,0,0,1,101.157,48.8197)">
            <path d="M0,18.877L0,0.001C0,-0.296 0.216,-0.512 0.513,-0.512L3.237,-0.512C3.534,-0.512 3.75,-0.296 3.75,0.001L3.75,18.877C3.75,19.174 3.534,19.389 3.237,19.389L0.513,19.389C0.216,19.389 0,19.174 0,18.877" style="fill:rgb(0,96,97);fill-rule:nonzero;"/>
        </g>
        <g transform="matrix(1,0,0,1,132.959,65.0674)">
            <path d="M0,-13.544C-1.506,-13.544 -2.668,-13.215 -3.618,-11.925C-4.518,-10.702 -5,-9.152 -5,-6.907C-5,-4.784 -4.907,-3.02 -4.175,-1.866C-3.443,-0.712 -2.313,0 -0.812,0C0.832,0 2.045,-0.434 2.058,-0.439C2.066,-0.442 2.071,-0.45 2.071,-0.459L2.071,-4.662C2.071,-4.673 2.062,-4.683 2.051,-4.683L-0.791,-4.683C-1.089,-4.683 -1.305,-4.899 -1.305,-5.196L-1.305,-7.644C-1.305,-7.941 -1.089,-8.157 -0.791,-8.157L5.313,-8.157C5.61,-8.157 5.827,-7.941 5.827,-7.644L5.827,1.935C5.618,2.039 2.669,3.475 -1.017,3.475C-4.069,3.475 -5.792,2.322 -7.009,0.727C-8.412,-1.113 -8.905,-4.104 -8.905,-6.907C-8.905,-8.864 -8.642,-10.71 -7.957,-12.292C-7.23,-13.972 -6.083,-15.202 -4.839,-15.933C-3.46,-16.743 -1.781,-17.019 -0.209,-17.019L0.245,-17.019C2.726,-17.019 4.236,-16.43 4.741,-16.177C5.137,-15.978 5.264,-15.829 5.264,-15.564L5.264,-13.214C5.264,-13.054 5.21,-12.923 5.112,-12.846C5.018,-12.77 4.88,-12.736 4.729,-12.785C3.752,-13.099 2.293,-13.544 0.318,-13.544L0,-13.544Z" style="fill:rgb(0,96,97);fill-rule:nonzero;"/>
        </g>
        <g transform="matrix(1,0,0,1,159.051,58.7358)">
            <path d="M0,-21.419C-0.462,-21.419 -0.661,-21.128 -0.827,-20.831C-0.827,-20.831 -7.482,-9.029 -7.701,-8.641C-7.689,-8.621 -3.312,-0.589 -3.312,-0.589C-3.159,-0.315 -2.922,0 -2.449,0L0.637,0C0.822,0 0.969,-0.07 1.047,-0.198C1.129,-0.33 1.127,-0.504 1.04,-0.675L-3.314,-8.631C-3.318,-8.638 -3.318,-8.646 -3.314,-8.652L3.525,-20.745C3.61,-20.916 3.613,-21.09 3.531,-21.222C3.453,-21.349 3.307,-21.419 3.121,-21.419L0,-21.419Z" style="fill:rgb(166,206,56);fill-rule:nonzero;"/>
        </g>
        <g transform="matrix(1,0,0,1,146.071,52.3154)">
            <path d="M0,-10.772C-0.186,-10.772 -0.331,-10.702 -0.41,-10.574C-0.491,-10.442 -0.489,-10.269 -0.403,-10.097L1.696,-6.491C1.699,-6.485 1.699,-6.477 1.696,-6.47L-1.595,-0.674C-1.68,-0.503 -1.683,-0.329 -1.601,-0.197C-1.522,-0.07 -1.376,0 -1.19,0L1.907,0C2.369,0 2.577,-0.304 2.735,-0.588C2.735,-0.588 5.956,-6.261 6.082,-6.481C6.069,-6.501 3.949,-10.183 3.949,-10.183C3.796,-10.457 3.561,-10.772 3.086,-10.772L0,-10.772Z" style="fill:rgb(0,96,97);fill-rule:nonzero;"/>
        </g>
    </g>
</svg>
