<?xml version="1.0" encoding="UTF-8" standalone="no"?>
<!-- Generator: Adobe Illustrator 23.0.3, SVG Export Plug-In . SVG Version: 6.00 Build 0)  -->

<svg
   xmlns:dc="http://purl.org/dc/elements/1.1/"
   xmlns:cc="http://creativecommons.org/ns#"
   xmlns:rdf="http://www.w3.org/1999/02/22-rdf-syntax-ns#"
   xmlns:svg="http://www.w3.org/2000/svg"
   xmlns="http://www.w3.org/2000/svg"
   xmlns:sodipodi="http://sodipodi.sourceforge.net/DTD/sodipodi-0.dtd"
   xmlns:inkscape="http://www.inkscape.org/namespaces/inkscape"
   version="1.1"
   id="Capa_1"
   x="0px"
   y="0px"
   viewBox="0 0 1920 976.3"
   enable-background="new 0 0 1920 976.3"
   xml:space="preserve"
   sodipodi:docname="fondo.svg"
   inkscape:version="0.92.3 (2405546, 2018-03-11)"><metadata
   id="metadata130"><rdf:RDF><cc:Work
       rdf:about=""><dc:format>image/svg+xml</dc:format><dc:type
         rdf:resource="http://purl.org/dc/dcmitype/StillImage" /><dc:title></dc:title></cc:Work></rdf:RDF></metadata><defs
   id="defs128" /><sodipodi:namedview
   pagecolor="#ffffff"
   bordercolor="#666666"
   borderopacity="1"
   objecttolerance="10"
   gridtolerance="10"
   guidetolerance="10"
   inkscape:pageopacity="0"
   inkscape:pageshadow="2"
   inkscape:window-width="1853"
   inkscape:window-height="1145"
   id="namedview126"
   showgrid="false"
   inkscape:zoom="0.55095403"
   inkscape:cx="967.92564"
   inkscape:cy="576.41291"
   inkscape:window-x="67"
   inkscape:window-y="27"
   inkscape:window-maximized="1"
   inkscape:current-layer="Capa_1" />

<g
   id="Grupo_1"
   transform="translate(120 744.055)">
	
		<rect
   id="Rectángulo_3"
   x="31.07"
   y="16.42"
   transform="matrix(0.7061 -0.7081 0.7081 0.7061 -32.8258 42.2035)"
   fill="#C9197C"
   width="6.72"
   height="88.45" />
	
		<rect
   id="Rectángulo_4"
   x="45.41"
   y="2.08"
   transform="matrix(0.7061 -0.7081 0.7081 0.7061 -18.4521 48.1454)"
   fill="#C9197C"
   width="6.72"
   height="88.45" />
	
		<rect
   id="Rectángulo_5"
   x="59.76"
   y="-12.27"
   transform="matrix(0.7061 -0.7081 0.7081 0.7061 -4.0784 54.0873)"
   fill="#C9197C"
   width="6.72"
   height="88.45" />
</g>
<path
   id="Trazado_1"
   fill="#C9197C"
   d="M1169.42,55.6c7.7-7.09,19.69-6.59,26.77,1.11c6.67,7.25,6.67,18.41,0,25.66l8.68,8.68  c11.88-12.49,11.38-32.25-1.11-44.12c-12.05-11.46-30.96-11.46-43.01,0L1169.42,55.6z" />
<path
   id="Trazado_2"
   fill="#C9197C"
   d="M1548.76,714.18c-7.71,7.08-19.69,6.57-26.77-1.13c-6.66-7.25-6.66-18.39,0-25.64l-8.68-8.67  c-11.88,12.49-11.38,32.25,1.11,44.12c12.05,11.46,30.96,11.46,43.01,0L1548.76,714.18z" />
<path
   id="Trazado_49"
   fill="#C9197C"
   d="M507.58,811.19c8.84,5.61,11.45,17.32,5.84,26.16c-5.28,8.31-16.04,11.2-24.77,6.64  l-6.13,10.63c15.13,8.27,34.09,2.7,42.36-12.43c7.99-14.63,3.08-32.96-11.16-41.63L507.58,811.19z" />
<path
   id="Trazado_3"
   fill="#FFFFFF"
   d="M1760.74,469.86c10.46,0.43,18.58,9.25,18.15,19.71c-0.41,9.85-8.3,17.75-18.15,18.15V520  c17.23-0.46,30.83-14.8,30.37-32.03c-0.44-16.59-13.78-29.93-30.37-30.37V469.86z" />
<path
   id="Trazado_4"
   fill="#003AFF"
   d="M1374.66,886.31c0.41-9.61,8.53-17.07,18.14-16.67c9.04,0.38,16.29,7.63,16.67,16.67h11.28  c-0.4-15.84-13.56-28.36-29.4-27.96c-15.28,0.38-27.58,12.68-27.96,27.96H1374.66z" />
<path
   id="Trazado_5"
   fill="#C9197C"
   d="M458.75,486.56c-6.65,6.12-17,5.68-23.12-0.97c-5.75-6.26-5.75-15.89,0-22.15l-7.49-7.49  c-10.25,10.8-9.8,27.85,1,38.1c10.4,9.87,26.7,9.87,37.1,0L458.75,486.56z" />
<path
   id="Trazado_6"
   fill="#10FFB3"
   d="M1453.25,243.46c-6.65,6.12-17,5.69-23.12-0.96c-5.76-6.26-5.76-15.9,0-22.16l-7.49-7.49  c-10.26,10.78-9.84,27.84,0.94,38.1c10.41,9.9,26.75,9.9,37.16,0L1453.25,243.46z" />
<path
   id="Trazado_228"
   fill="#10FFB3"
   d="M335.31,642.82c4.19,8.01,1.09,17.89-6.92,22.08c-7.54,3.94-16.85,1.45-21.4-5.74  l-9.18,5.3c7.76,12.7,24.34,16.71,37.05,8.96c12.26-7.49,16.5-23.28,9.62-35.89L335.31,642.82z" />
<path
   id="Trazado_7"
   fill="#003AFF"
   d="M312.75,291.01c-7.1,6.53-18.14,6.07-24.67-1.03c-6.15-6.68-6.15-16.96,0-23.64l-7.99-7.99  c-10.95,11.51-10.49,29.71,1.02,40.65c11.1,10.56,28.53,10.56,39.64,0L312.75,291.01z" />

<g
   id="Grupo_15"
   transform="translate(672.492 100)">
	<path
   id="Trazado_47"
   fill="#10FFB3"
   d="M15.53,92.35V84c2.79,0,4.59-0.97,5.67-3.05c0.54-1.08,0.86-2.26,0.96-3.46l0,0   c-0.05-1.28-0.37-2.54-0.93-3.69c-0.64-1.23-1.9-2.86-5.5-2.86C11.81,71.1,8,69.63,5.2,66.89c-4.17-4.24-4.26-10.1-4.26-10.96   c0.01-5.94,3.96-14.75,14.78-14.75c2.7,0,4.38-0.91,5.43-2.96c0.59-1.2,0.93-2.52,1-3.85c-0.07-1.18-0.4-2.32-0.97-3.36   c-0.66-1.16-1.97-2.7-5.66-2.7c-3.9,0.14-7.68-1.32-10.47-4.04c-4.3-4.38-4.32-10.52-4.31-11.2C0.86,7.15,4.88-1.64,15.53-1.64V6.7   c-2.73,0-4.43,0.93-5.49,3.02C9.51,10.82,9.19,12,9.1,13.21l0,0c0.05,1.32,0.37,2.62,0.94,3.81c0.69,1.36,1.95,2.93,5.49,2.93   c10.99,0,14.98,8.61,14.98,14.4c0,6.1-3.94,15.17-14.78,15.17c-2.8,0-4.51,0.92-5.55,3c-0.52,1.08-0.82,2.24-0.89,3.44v0.07l0,0   c0.05,1.28,0.37,2.54,0.93,3.69c0.64,1.23,1.9,2.86,5.5,2.86c3.92-0.16,7.73,1.31,10.53,4.05c4.25,4.32,4.27,10.33,4.25,11   C30.4,83.55,26.32,92.35,15.53,92.35z" />
</g>
<g
   id="Grupo_16"
   transform="translate(1681 767.015)">
	<path
   id="Trazado_48"
   fill="#003AFF"
   d="M19.53,36.03h-0.16C11.88,35.89,0.74,30.8,0.74,17.31h10.57c0,7.21,6.22,8.06,8.23,8.15   c1.68-0.06,3.32-0.47,4.83-1.19c1.73-0.88,3.71-2.46,3.71-6.96c0-13.91,10.9-18.96,18.23-18.96c7.72,0,19.21,4.98,19.21,18.72   c0,3.55,1.17,5.71,3.79,7.02c1.36,0.65,2.84,1.03,4.35,1.12h0.09c1.62-0.06,3.22-0.46,4.68-1.18c1.55-0.81,3.62-2.41,3.62-6.97   c0-6.86,2.79-11.03,5.13-13.33c5.47-5.38,13.08-5.4,13.93-5.39c7.49,0.14,18.62,5.3,18.62,18.96h-10.57c0-3.53-1.23-5.82-3.86-7.18   c-1.37-0.68-2.86-1.09-4.38-1.21c-1.62,0.06-3.22,0.46-4.67,1.18c-1.55,0.81-3.62,2.41-3.62,6.97c0,6.85-2.79,11.03-5.13,13.33   c-5.37,5.28-12.79,5.39-13.87,5.39c-7.52-0.02-18.68-5.01-18.68-18.72c0-3.51-1.22-5.67-3.97-6.99c-1.47-0.67-3.05-1.07-4.66-1.15   c-1.49,0.1-2.93,0.51-4.24,1.23c-1.47,0.84-3.42,2.5-3.42,7.16c0,5.39-1.77,9.97-5.12,13.26C28.26,35.77,20.95,36.03,19.53,36.03z" />
</g>
<g
   id="Grupo_165"
   transform="translate(1759.34 81.66) rotate(90)">
	<path
   id="Trazado_48-2"
   fill="#003AFF"
   d="M17.14,36.94h-0.16C9.49,36.8-1.65,31.71-1.65,18.22H8.92c0,7.21,6.22,8.06,8.23,8.15   c1.68-0.06,3.32-0.47,4.83-1.19c1.73-0.88,3.71-2.46,3.71-6.96c0-13.91,10.9-18.96,18.23-18.96c7.72,0,19.21,4.98,19.21,18.72   c0,3.55,1.17,5.71,3.79,7.02c1.36,0.65,2.84,1.03,4.35,1.12h0.09c1.62-0.06,3.22-0.46,4.68-1.18c1.55-0.81,3.62-2.41,3.62-6.97   c0-6.86,2.79-11.03,5.13-13.33c5.47-5.38,13.08-5.4,13.93-5.39c7.49,0.14,18.62,5.3,18.62,18.96h-10.57c0-3.53-1.23-5.82-3.86-7.18   c-1.37-0.68-2.86-1.09-4.38-1.21c-1.62,0.06-3.22,0.46-4.67,1.18c-1.55,0.81-3.62,2.41-3.62,6.97c0,6.85-2.79,11.03-5.13,13.33   c-5.37,5.28-12.79,5.39-13.87,5.39c-7.52-0.02-18.68-5.01-18.68-18.72c0-3.51-1.22-5.67-3.97-6.99c-1.47-0.67-3.05-1.07-4.66-1.15   c-1.49,0.1-2.93,0.51-4.24,1.23c-1.47,0.84-3.42,2.5-3.42,7.16c0,5.39-1.77,9.97-5.12,13.26C25.87,36.67,18.56,36.94,17.14,36.94z" />
</g>
<g
   id="Grupo_17"
   transform="translate(17 240)">
	<circle
   id="Elipse_7"
   fill="#E7EAE3"
   cx="3.54"
   cy="1.15"
   r="2.8" />
	<circle
   id="Elipse_8"
   fill="#E7EAE3"
   cx="42.88"
   cy="1.15"
   r="2.8" />
	<circle
   id="Elipse_9"
   fill="#E7EAE3"
   cx="82.22"
   cy="1.15"
   r="2.8" />
	<circle
   id="Elipse_10"
   fill="#E7EAE3"
   cx="121.56"
   cy="1.15"
   r="2.8" />
	<circle
   id="Elipse_12"
   fill="#E7EAE3"
   cx="3.54"
   cy="42.69"
   r="2.8" />
	<circle
   id="Elipse_13"
   fill="#E7EAE3"
   cx="42.88"
   cy="42.69"
   r="2.8" />
	<circle
   id="Elipse_14"
   fill="#E7EAE3"
   cx="82.22"
   cy="42.69"
   r="2.8" />
	<circle
   id="Elipse_15"
   fill="#E7EAE3"
   cx="121.56"
   cy="42.69"
   r="2.8" />
	<circle
   id="Elipse_17"
   fill="#E7EAE3"
   cx="3.54"
   cy="84.23"
   r="2.8" />
	<circle
   id="Elipse_18"
   fill="#E7EAE3"
   cx="42.88"
   cy="84.23"
   r="2.8" />
	<circle
   id="Elipse_19"
   fill="#E7EAE3"
   cx="82.22"
   cy="84.23"
   r="2.8" />
	<circle
   id="Elipse_20"
   fill="#E7EAE3"
   cx="121.56"
   cy="84.23"
   r="2.8" />
	<circle
   id="Elipse_22"
   fill="#E7EAE3"
   cx="3.54"
   cy="125.77"
   r="2.8" />
	<circle
   id="Elipse_23"
   fill="#E7EAE3"
   cx="42.88"
   cy="125.77"
   r="2.8" />
	<circle
   id="Elipse_24"
   fill="#E7EAE3"
   cx="82.22"
   cy="125.77"
   r="2.8" />
	<circle
   id="Elipse_25"
   fill="#E7EAE3"
   cx="121.56"
   cy="125.77"
   r="2.8" />
	<circle
   id="Elipse_27"
   fill="#E7EAE3"
   cx="3.54"
   cy="167.31"
   r="2.8" />
	<circle
   id="Elipse_28"
   fill="#E7EAE3"
   cx="42.88"
   cy="167.31"
   r="2.8" />
	<circle
   id="Elipse_29"
   fill="#E7EAE3"
   cx="82.22"
   cy="167.31"
   r="2.8" />
	<circle
   id="Elipse_30"
   fill="#E7EAE3"
   cx="121.56"
   cy="167.31"
   r="2.8" />
	<circle
   id="Elipse_32"
   fill="#E7EAE3"
   cx="3.54"
   cy="208.85"
   r="2.8" />
	<circle
   id="Elipse_33"
   fill="#E7EAE3"
   cx="42.88"
   cy="208.85"
   r="2.8" />
	<circle
   id="Elipse_34"
   fill="#E7EAE3"
   cx="82.22"
   cy="208.85"
   r="2.8" />
	<circle
   id="Elipse_35"
   fill="#E7EAE3"
   cx="121.56"
   cy="208.85"
   r="2.8" />
	<circle
   id="Elipse_37"
   fill="#E7EAE3"
   cx="3.54"
   cy="250.39"
   r="2.8" />
	<circle
   id="Elipse_38"
   fill="#E7EAE3"
   cx="42.88"
   cy="250.39"
   r="2.8" />
	<circle
   id="Elipse_39"
   fill="#E7EAE3"
   cx="82.22"
   cy="250.39"
   r="2.8" />
	<circle
   id="Elipse_40"
   fill="#E7EAE3"
   cx="121.56"
   cy="250.39"
   r="2.8" />
	<circle
   id="Elipse_42"
   fill="#E7EAE3"
   cx="3.54"
   cy="291.93"
   r="2.8" />
	<circle
   id="Elipse_43"
   fill="#E7EAE3"
   cx="42.88"
   cy="291.93"
   r="2.8" />
	<circle
   id="Elipse_44"
   fill="#E7EAE3"
   cx="82.22"
   cy="291.93"
   r="2.8" />
	<circle
   id="Elipse_45"
   fill="#E7EAE3"
   cx="121.56"
   cy="291.93"
   r="2.8" />
</g>
<g
   id="Grupo_3"
   transform="translate(122 66)">
	<path
   id="Trazado_13"
   fill="#C9197C"
   d="M30.73,58.34c-16.56,0-29.99-13.44-29.99-30c0-16.56,13.44-29.99,30-29.99   c16.56,0,29.99,13.43,29.99,29.99C60.71,44.9,47.29,58.32,30.73,58.34z M30.73,13.04c-8.45,0-15.31,6.85-15.31,15.31   c0,8.45,6.85,15.31,15.31,15.31c8.45,0,15.31-6.85,15.31-15.31C46.03,19.9,39.18,13.05,30.73,13.04L30.73,13.04z" />
</g>







</svg>