<?xml version="1.0" encoding="UTF-8" standalone="no"?>
<!-- Created with Inkscape (http://www.inkscape.org/) -->

<svg
   xmlns:dc="http://purl.org/dc/elements/1.1/"
   xmlns:cc="http://creativecommons.org/ns#"
   xmlns:rdf="http://www.w3.org/1999/02/22-rdf-syntax-ns#"
   xmlns:svg="http://www.w3.org/2000/svg"
   xmlns="http://www.w3.org/2000/svg"
   xmlns:sodipodi="http://sodipodi.sourceforge.net/DTD/sodipodi-0.dtd"
   xmlns:inkscape="http://www.inkscape.org/namespaces/inkscape"
   width="560mm"
   height="230mm"
   viewBox="0 0 100 100"
   version="1.1"
   id="logo"
   inkscape:version="0.92.3 (2405546, 2018-03-11)"
   sodipodi:docname="vlctechfest_2019.svg">
  <defs
     id="defs15230" />
  <sodipodi:namedview
     id="base"
     pagecolor="#ffffff"
     bordercolor="#666666"
     borderopacity="1.0"
     inkscape:pageopacity="0.0"
     inkscape:pageshadow="2"
     inkscape:zoom="0.12374369"
     inkscape:cx="144.56043"
     inkscape:cy="-320.36238"
     inkscape:document-units="mm"
     inkscape:current-layer="layer1"
     showgrid="false"
     inkscape:window-width="1853"
     inkscape:window-height="1145"
     inkscape:window-x="67"
     inkscape:window-y="27"
     inkscape:window-maximized="1" />
  <metadata
     id="metadata15233">
    <rdf:RDF>
      <cc:Work
         rdf:about="">
        <dc:format>image/svg+xml</dc:format>
        <dc:type
           rdf:resource="http://purl.org/dc/dcmitype/StillImage" />
        <dc:title></dc:title>
      </cc:Work>
    </rdf:RDF>
  </metadata>
  <g
     inkscape:label="Capa 1"
     inkscape:groupmode="layer"
     id="layer1"
     transform="translate(0,44.366743)">
    <g
       transform="matrix(0.10940422,0,0,0.10940422,-84.570976,-58.436121)"
       id="text"
       style="fill:#bf3376;fill-opacity:1">
      <path
         id="path3949"
         d="m 1160.708,313.687 -62.821,143.277 h -28.555 l -60.116,-143.277 h 31.561 l 44.386,109.712 44.286,-109.712 z"
         inkscape:connector-curvature="0"
         style="fill:#bf3376;fill-opacity:1" />
      <path
         id="path3951"
         d="m 1202.289,313.687 v 120.232 h 56.91 v 23.045 h -83.461 V 313.687 Z"
         inkscape:connector-curvature="0"
         style="fill:#bf3376;fill-opacity:1" />
      <path
         id="path3953"
         d="m 1383.439,450.953 c -12.359,4.676 -26.386,7.014 -42.082,7.014 -51.434,0 -77.149,-24.881 -77.149,-74.645 0,-47.091 25.716,-70.637 77.149,-70.637 15.696,0 29.723,2.339 42.082,7.014 v 24.047 c -12.359,-5.343 -25.718,-8.016 -40.078,-8.016 -34.4,0 -51.6,15.865 -51.6,47.592 0,34.401 17.199,51.6 51.6,51.6 14.36,0 27.719,-2.67 40.078,-8.015 z"
         inkscape:connector-curvature="0"
         style="fill:#bf3376;fill-opacity:1" />
      <path
         id="path3955"
         d="m 1153.029,494.375 v 27.438 h -54.344 V 664.964 H 1063.56 V 521.813 h -54.344 v -27.438 z"
         inkscape:connector-curvature="0"
         style="fill:#bf3376;fill-opacity:1" />
      <path
         id="path3957"
         d="m 1228.316,525.789 c 42.237,0 63.358,21.562 63.358,64.683 0,5.745 -0.398,11.488 -1.193,17.231 h -92.386 c 0,19.617 14.402,29.426 43.211,29.426 14.05,0 28.1,-1.325 42.15,-3.977 v 27.835 c -12.284,2.651 -27.218,3.977 -44.801,3.977 -50.457,0 -75.685,-23.727 -75.685,-71.178 10e-4,-45.331 21.782,-67.997 65.346,-67.997 z m -30.22,57.526 h 59.381 v -1.061 c 0,-19.263 -9.721,-28.896 -29.161,-28.896 -18.556,0.001 -28.629,9.987 -30.22,29.957 z"
         inkscape:connector-curvature="0"
         style="fill:#bf3376;fill-opacity:1" />
      <path
         id="path3959"
         d="m 1420.775,660.988 c -11.488,2.651 -23.417,3.977 -35.787,3.977 -49.486,0 -74.227,-24.078 -74.227,-72.238 0,-44.623 24.74,-66.937 74.227,-66.937 12.37,0 24.299,1.326 35.787,3.977 v 27.835 c -11.488,-2.651 -22.533,-3.977 -33.137,-3.977 -27.835,0 -41.752,13.035 -41.752,39.102 0,29.604 13.917,44.403 41.752,44.403 10.604,0 21.648,-1.325 33.137,-3.977 z"
         inkscape:connector-curvature="0"
         style="fill:#bf3376;fill-opacity:1" />
      <path
         id="path3961"
         d="M 1443.972,664.964 V 475.421 h 35.125 v 68.129 c 10.956,-11.84 24.963,-17.761 42.018,-17.761 32.959,0 49.44,17.144 49.44,51.428 v 87.747 h -35.125 v -87.747 c 0,-15.375 -7.645,-23.063 -22.931,-23.063 -11.399,0 -22.533,4.553 -33.402,13.653 v 97.157 z"
         inkscape:connector-curvature="0"
         style="fill:#bf3376;fill-opacity:1" />
      <path
         id="path3963"
         d="m 1742.745,481.048 v 29.323 h -96.603 v 46.301 h 91.744 v 30.481 h -92.173 v 77.811 h -37.155 V 481.048 Z"
         inkscape:connector-curvature="0"
         style="fill:#bf3376;fill-opacity:1" />
      <path
         id="path3965"
         d="m 1834.631,514.916 c 45.537,0 68.309,23.247 68.309,69.737 0,6.194 -0.43,12.386 -1.287,18.577 h -99.604 c 0,21.149 15.527,31.725 46.587,31.725 15.147,0 30.296,-1.429 45.443,-4.287 v 30.01 c -13.243,2.857 -29.345,4.287 -48.302,4.287 -54.398,0 -81.598,-25.58 -81.598,-76.739 10e-4,-48.874 23.484,-73.31 70.452,-73.31 z m -32.582,62.02 h 64.021 v -1.144 c 0,-20.768 -10.481,-31.152 -31.439,-31.152 -20.006,0 -30.867,10.767 -32.582,32.296 z"
         inkscape:connector-curvature="0"
         style="fill:#bf3376;fill-opacity:1" />
      <path
         id="path3967"
         d="M 1931.377,657.819 V 626.38 c 16.67,6.67 35.915,10.003 57.732,10.003 16.291,0 24.437,-5.238 24.437,-15.719 0,-10.003 -5.479,-15.005 -16.434,-15.005 h -27.151 c -30.488,0 -45.729,-15.005 -45.729,-45.015 0,-31.438 22.243,-47.158 66.735,-47.158 18.863,0 36.631,2.858 53.303,8.574 v 31.44 c -16.672,-6.667 -34.774,-10.003 -54.303,-10.003 -20.484,0 -30.725,5.24 -30.725,15.72 0,10.003 5.953,15.005 17.863,15.005 h 24.293 c 33.344,0 50.017,15.005 50.017,45.014 0,31.439 -21.245,47.158 -63.734,47.158 -20.865,-10e-4 -39.634,-2.859 -56.304,-8.575 z"
         inkscape:connector-curvature="0"
         style="fill:#bf3376;fill-opacity:1" />
      <path
         id="path3969"
         d="m 2075.709,490.623 h 28.009 l 5.716,24.293 h 37.727 v 30.009 h -33.582 v 69.022 c 0,14.005 6.049,21.007 18.148,21.007 h 15.434 v 30.01 h -33.725 c -25.151,0 -37.727,-13.479 -37.727,-40.441 z"
         inkscape:connector-curvature="0"
         style="fill:#bf3376;fill-opacity:1" />
      <path
         id="path3971"
         d="m 1025.649,856.964 v -21.436 c 63.353,-32.104 95.03,-59.733 95.03,-82.884 0,-17.148 -12.861,-25.723 -38.584,-25.723 -19.055,0 -37.869,5.241 -56.446,15.72 v -22.864 c 18.577,-9.525 37.392,-14.291 56.446,-14.291 43.347,0 65.021,15.72 65.021,47.158 0,27.63 -26.057,55.257 -78.168,82.884 h 85.313 v 21.436 z"
         inkscape:connector-curvature="0"
         style="fill:#bf3376;fill-opacity:1" />
      <path
         id="path3973"
         d="m 1182.843,782.226 c 0,-51.159 25.15,-76.739 75.453,-76.739 49.252,0 73.88,25.58 73.88,76.739 0,50.779 -24.628,76.167 -73.88,76.167 -50.303,0 -75.453,-25.388 -75.453,-76.167 z m 75.452,54.732 c 30.675,0 46.015,-18.529 46.015,-55.59 0,-36.297 -15.34,-54.446 -46.015,-54.446 -31.725,0 -47.586,18.149 -47.586,54.446 0,37.061 15.862,55.59 47.586,55.59 z"
         inkscape:connector-curvature="0"
         style="fill:#bf3376;fill-opacity:1" />
      <path
         id="path3975"
         d="M 1400.77,835.529 V 733.925 h -35.726 v -14.147 l 62.163,-12.861 v 128.612 h 34.153 v 21.436 h -96.316 v -21.436 z"
         inkscape:connector-curvature="0"
         style="fill:#bf3376;fill-opacity:1" />
      <path
         id="path3977"
         d="m 1634.273,781.511 c 0,48.208 -31.345,88.837 -94.03,121.896 l -13.719,-18.148 c 32.582,-16.769 56.112,-35.297 70.595,-55.59 -10.575,4.098 -23.247,6.146 -38.013,6.146 -48.016,0 -72.023,-20.958 -72.023,-62.878 0,-44.775 24.912,-67.164 74.738,-67.164 48.302,0 72.452,25.247 72.452,75.738 z m -73.738,-54.303 c -31.725,0 -47.586,15.244 -47.586,45.729 0,27.63 15.813,41.442 47.443,41.442 17.527,0 32.486,-2.286 44.871,-6.859 2.666,-3.81 4.002,-12.194 4.002,-25.151 10e-4,-36.773 -16.244,-55.161 -48.73,-55.161 z"
         inkscape:connector-curvature="0"
         style="fill:#bf3376;fill-opacity:1" />
    </g>
    <g
       transform="matrix(0.10940422,0,0,0.10940422,-84.570976,-58.436121)"
       id="icon">
      <g
         id="zero">
        <g
           id="g3987">
          <polygon
             id="polygon3981"
             points="627.784,364.542 585.836,406.489 627.784,406.489 "
             style="fill:#bf3376" />
          <polygon
             id="polygon3983"
             points="627.784,313.084 607.148,313.084 534.379,385.853 534.379,406.489 555.014,406.489 627.784,333.719 "
             style="fill:#bf3376" />
          <polygon
             id="polygon3985"
             points="534.379,313.084 534.379,355.083 576.378,313.084 "
             style="fill:#bf3376" />
        </g>
        <g
           id="g3995">
          <polygon
             id="polygon3989"
             points="752.323,364.542 710.375,406.489 752.323,406.489 "
             style="fill:#bf3376" />
          <polygon
             id="polygon3991"
             points="752.323,313.084 731.688,313.084 658.918,385.853 658.918,406.489 679.553,406.489 752.323,333.719 "
             style="fill:#bf3376" />
          <polygon
             id="polygon3993"
             points="658.918,313.084 658.918,355.083 700.917,313.084 "
             style="fill:#bf3376" />
        </g>
        <g
           id="g4003">
          <polygon
             id="polygon3997"
             points="503.244,493.706 461.296,535.653 503.244,535.653 "
             style="fill:#bf3376" />
          <polygon
             id="polygon3999"
             points="503.244,442.249 482.608,442.249 409.839,515.017 409.839,535.653 430.474,535.653 503.244,462.883 "
             style="fill:#bf3376" />
          <polygon
             id="polygon4001"
             points="409.839,442.249 409.839,484.248 451.838,442.249 "
             style="fill:#bf3376" />
        </g>
        <g
           id="g4011">
          <polygon
             id="polygon4005"
             points="752.323,493.706 710.375,535.653 752.323,535.653 "
             style="fill:#bf3376" />
          <polygon
             id="polygon4007"
             points="752.323,442.249 731.688,442.249 658.918,515.017 658.918,535.653 679.553,535.653 752.323,462.883 "
             style="fill:#bf3376" />
          <polygon
             id="polygon4009"
             points="658.918,442.249 658.918,484.248 700.917,442.249 "
             style="fill:#bf3376" />
        </g>
        <g
           id="g4019">
          <polygon
             id="polygon4013"
             points="503.244,622.871 461.296,664.817 503.244,664.817 "
             style="fill:#bf3376" />
          <polygon
             id="polygon4015"
             points="503.244,571.414 482.608,571.414 409.839,644.182 409.839,664.817 430.474,664.817 503.244,592.048 "
             style="fill:#bf3376" />
          <polygon
             id="polygon4017"
             points="409.839,571.414 409.839,613.413 451.838,571.414 "
             style="fill:#bf3376" />
        </g>
        <g
           id="XMLID_14_">
          <polygon
             id="polygon4021"
             points="378.706,364.542 336.758,406.489 378.706,406.489 "
             style="fill:#bf3376" />
          <polygon
             id="polygon4023"
             points="378.706,313.084 358.07,313.084 285.301,385.853 285.301,406.489 305.936,406.489 378.706,333.719 "
             style="fill:#bf3376" />
          <polygon
             id="polygon4025"
             points="285.301,313.084 285.301,355.083 327.3,313.084 "
             style="fill:#bf3376" />
        </g>
        <g
           id="g4034">
          <polygon
             id="polygon4028"
             points="752.323,622.871 710.375,664.817 752.323,664.817 "
             style="fill:#bf3376" />
          <polygon
             id="polygon4030"
             points="752.323,571.414 731.688,571.414 658.918,644.182 658.918,664.817 679.553,664.817 752.323,592.048 "
             style="fill:#bf3376" />
          <polygon
             id="polygon4032"
             points="658.918,571.414 658.918,613.413 700.917,571.414 "
             style="fill:#bf3376" />
        </g>
        <g
           id="g4042">
          <polygon
             id="polygon4036"
             points="876.861,622.871 834.914,664.817 876.861,664.817 "
             style="fill:#bf3376" />
          <polygon
             id="polygon4038"
             points="876.861,571.414 856.227,571.414 783.458,644.182 783.458,664.817 804.092,664.817 876.861,592.048 "
             style="fill:#bf3376" />
          <polygon
             id="polygon4040"
             points="783.458,571.414 783.458,613.413 825.457,571.414 "
             style="fill:#bf3376" />
        </g>
      </g>
      <g
         id="one">
        <g
           id="g4048">
          <rect
             id="rect4046"
             height="93.403999"
             width="93.403999"
             style="fill:#bf3376"
             y="313.08401"
             x="409.83899" />
        </g>
        <g
           id="g4052">
          <rect
             id="rect4050"
             height="93.403999"
             width="93.403999"
             style="fill:#bf3376"
             y="442.24799"
             x="534.37903" />
        </g>
        <g
           id="g4056">
          <rect
             id="rect4054"
             height="93.403999"
             width="93.403999"
             style="fill:#bf3376"
             y="571.41199"
             x="285.30099" />
        </g>
        <g
           id="g4060">
          <rect
             id="rect4058"
             height="93.403999"
             width="93.403999"
             style="fill:#bf3376"
             y="571.41199"
             x="534.37903" />
        </g>
        <g
           id="g4064">
          <rect
             id="rect4062"
             height="93.403999"
             width="93.403999"
             style="fill:#bf3376"
             y="313.08401"
             x="783.45697" />
        </g>
        <g
           id="g4068">
          <rect
             id="rect4066"
             height="93.403999"
             width="93.403999"
             style="fill:#bf3376"
             y="442.24799"
             x="783.45697" />
        </g>
      </g>
    </g>
  </g>
</svg>
